<?xml version="1.0" standalone="no"?>
<!DOCTYPE svg PUBLIC "-//W3C//DTD SVG 20010904//EN"
 "http://www.w3.org/TR/2001/REC-SVG-20010904/DTD/svg10.dtd">
<svg version="1.0" xmlns="http://www.w3.org/2000/svg"
 width="624.000000pt" height="624.000000pt" viewBox="0 0 624.000000 624.000000"
 preserveAspectRatio="xMidYMid meet">
<metadata>
Created by potrace 1.11, written by Peter Selinger 2001-2013
</metadata>
<g transform="translate(0.000000,624.000000) scale(0.100000,-0.100000)"
fill="#000000" stroke="none">
<path d="M4829 6236 c-4 -3 -29 -7 -144 -21 -22 -3 -49 -7 -61 -10 -12 -2 -39
-7 -60 -11 -121 -18 -571 -151 -679 -200 -16 -7 -64 -26 -105 -43 -41 -16 -93
-37 -115 -47 -22 -10 -42 -18 -45 -19 -51 -15 -550 -262 -561 -278 -3 -5 -8
-7 -10 -6 -2 2 -38 -16 -80 -39 -42 -23 -81 -42 -87 -42 -6 0 -12 -4 -14 -8
-1 -5 -38 -28 -82 -51 -109 -59 -119 -65 -136 -77 -8 -6 -35 -23 -60 -36 -67
-37 -174 -101 -185 -110 -22 -18 -188 -118 -196 -118 -5 0 -9 -4 -9 -8 0 -5
-18 -18 -40 -31 -22 -12 -45 -27 -52 -34 -8 -7 -54 -39 -103 -72 -50 -33 -94
-63 -100 -67 -5 -5 -77 -58 -160 -119 -82 -61 -151 -115 -153 -120 -2 -5 -8
-9 -13 -9 -5 0 -26 -16 -46 -35 -20 -19 -40 -35 -44 -35 -3 0 -19 -12 -36 -27
-16 -16 -58 -53 -93 -83 -177 -153 -363 -338 -490 -488 -25 -30 -54 -63 -65
-75 -11 -12 -33 -40 -49 -62 -16 -22 -34 -45 -40 -50 -6 -6 -15 -17 -21 -26
-5 -9 -50 -75 -98 -148 -161 -240 -289 -520 -343 -746 -41 -174 -49 -247 -49
-445 0 -162 5 -225 19 -290 3 -14 8 -38 10 -55 13 -80 60 -236 103 -345 28
-73 93 -212 102 -220 3 -3 17 -27 30 -54 41 -79 172 -275 242 -361 134 -162
208 -243 339 -370 123 -121 157 -151 260 -235 30 -25 57 -48 58 -53 2 -4 10
-7 18 -7 8 0 14 -4 14 -8 0 -18 239 -176 370 -245 95 -50 242 -114 280 -122 8
-2 16 -4 18 -5 1 -2 5 -3 10 -4 4 -1 25 -8 47 -15 108 -33 238 -49 379 -45
130 3 211 8 211 13 0 2 9 4 20 6 67 11 183 48 273 86 23 10 43 18 45 18 9 -3
261 151 307 188 8 6 42 33 75 60 103 82 291 262 365 349 14 16 54 63 90 105
69 80 75 88 130 159 19 25 37 47 40 50 3 3 21 28 39 55 19 28 38 52 41 55 9 7
100 140 100 145 0 3 8 13 18 24 9 10 62 89 117 175 55 87 117 184 138 216 20
33 37 62 37 66 0 3 10 20 23 37 23 34 59 95 80 137 6 14 14 27 18 30 6 6 88
150 128 225 14 28 29 52 33 53 5 2 8 7 8 12 0 4 17 39 38 77 35 61 66 119 182
338 215 406 690 1354 759 1515 80 187 163 446 186 580 11 69 14 85 19 107 20
93 28 404 13 502 -28 189 -83 339 -170 470 -68 101 -212 221 -332 276 -60 27
-194 72 -243 80 -23 4 -54 9 -70 11 -32 6 -388 14 -393 10z"/>
</g>
</svg>
