<svg width="37" height="44" viewBox="0 0 37 44" fill="none" xmlns="http://www.w3.org/2000/svg">
<path d="M34.6613 13.9321C25.7446 31.8889 18.5009 46.0997 6.31414 35.3177C-5.87265 24.5357 0.420372 13.1195 18.2348 3.76453C36.0491 -5.59042 39.4713 4.24021 34.6613 13.9321Z" fill="#182D27"/>
<path d="M30.5336 15.1424C22.8527 30.6216 16.6167 42.8703 6.103 33.5946C-4.41072 24.3189 1.02675 14.4487 16.3696 6.38199C31.7124 -1.68468 34.6783 6.77839 30.5336 15.1424Z" fill="url(#paint0_linear)"/>
<path d="M29.9443 15.3207C22.4345 30.4433 16.3315 42.4144 6.06499 33.3369C-4.20157 24.2595 1.10282 14.627 16.1034 6.75857C31.104 -1.1099 33.9938 7.15497 29.9443 15.3207Z" fill="#3F806E"/>
<path d="M29.3548 15.4991C22.0161 30.2648 16.0653 41.9585 6.0269 33.0991C-4.01152 24.2396 1.19781 14.8252 15.8372 7.13511C30.4765 -0.554979 33.3093 7.51169 29.3548 15.4991Z" fill="#3E886F"/>
<path d="M28.7655 15.6577C21.598 30.0667 15.7993 41.4829 6.008 32.8415C-3.78326 24.2 1.27397 15.0036 15.5711 7.51172C29.8682 0.0198278 32.625 7.8883 28.7655 15.6577Z" fill="#3C9070"/>
<path d="M28.1761 15.836C21.1986 29.9081 15.533 41.027 5.96991 32.5838C-3.5932 24.1405 1.36897 15.2018 15.3049 7.88826C29.2408 0.574748 31.9405 8.24502 28.1761 15.836Z" fill="#3A9871"/>
<path d="M27.5867 16.0144C20.7804 29.7297 15.2479 40.5712 5.95092 32.3459C-3.34602 24.1207 1.46405 15.3802 15.0387 8.24503C28.6134 1.10989 31.2561 8.60179 27.5867 16.0144Z" fill="#35A171"/>
<path d="M26.9973 16.1928C20.362 29.5513 14.9816 40.1153 5.91279 32.1081C-3.156 24.1009 1.54 15.5784 14.7724 8.6216C28.0049 1.66485 30.5715 8.97836 26.9973 16.1928Z" fill="#2FA970"/>
<path d="M26.4081 16.3514C19.9439 29.3532 14.7156 39.6396 5.87495 31.8505C-2.9657 24.0613 1.63524 15.7766 14.5065 8.9982C27.3777 2.21982 29.8873 9.33514 26.4081 16.3514Z" fill="#24B570"/>
<path d="M25.8186 16.5297C19.5445 29.1747 14.4493 39.1838 5.8558 31.5928C-2.73769 24.0018 1.71115 15.9549 14.2402 9.37475C26.7692 2.79457 29.2217 9.71169 25.8186 16.5297Z" fill="url(#paint1_linear)"/>
<path d="M25.2291 16.7081C19.1262 28.9964 14.1641 38.7279 5.81773 31.355C-2.52861 23.982 1.80616 16.1532 13.993 9.75135C26.1797 3.34955 28.5372 10.0685 25.2291 16.7081Z" fill="#2F875C"/>
<path d="M24.6396 16.8865C18.7078 28.818 13.8978 38.272 5.79858 31.1171C-2.3006 23.9621 1.88208 16.3315 13.7266 10.1279C25.5712 3.9243 27.8527 10.4252 24.6396 16.8865Z" fill="#2D7453"/>
<path d="M24.0502 17.045C18.2896 28.6396 13.6316 37.7964 5.76056 30.8396C-2.11047 23.8829 1.95813 16.5099 13.4415 10.4847C24.9248 4.45945 27.1682 10.8018 24.0502 17.045Z" fill="#2A6048"/>
<path d="M23.4609 17.2234C17.8904 28.4612 13.3655 37.3405 5.72261 30.6018C-1.92028 23.863 2.05326 16.7081 13.1944 10.8612C24.3355 5.01439 26.4839 11.1585 23.4609 17.2234Z" fill="#254F3E"/>
<path d="M22.8718 17.4018C17.4724 28.2829 13.0806 36.8847 5.70386 30.364C-1.67285 23.8432 2.14859 16.9063 12.9285 11.2378C23.7084 5.56937 25.7997 11.5153 22.8718 17.4018Z" fill="#1F3E33"/>
<path d="M22.2824 17.5802C17.054 28.1045 12.8143 36.4288 5.66573 30.1261C-1.48283 23.8234 2.22453 17.0847 12.6622 11.6144C23.0999 6.14412 25.1152 11.8919 22.2824 17.5802Z" fill="#182D27"/>
<path d="M18.1565 18.7892C14.164 26.836 10.9129 33.1982 5.45642 28.382C-6.74725e-05 23.5658 2.83274 18.4126 10.7988 14.2306C18.7649 10.0487 20.3239 14.4487 18.1565 18.7892Z" fill="#B9E2DF"/>
<path d="M17.5672 18.9478C13.7457 26.6379 10.6467 32.7225 5.4184 28.1045C0.190055 23.4865 2.90879 18.591 10.5137 14.5874C18.1185 10.5838 19.6395 14.8054 17.5672 18.9478Z" fill="#AEDED7"/>
<path d="M16.9778 19.1261C13.3275 26.4595 10.3806 32.2667 5.39943 27.8667C0.418246 23.4667 3.0039 18.7892 10.2665 14.9838C17.5292 11.1784 18.9551 15.1622 16.9778 19.1261Z" fill="#A3D9CE"/>
<path d="M16.3883 19.3045C12.9281 26.2811 10.1143 31.8108 5.3613 27.6288C0.608265 23.4468 3.07984 18.9874 10.0003 15.3604C16.9207 11.7333 18.2706 15.5387 16.3883 19.3045Z" fill="#98D5C6"/>
<path d="M15.799 19.4829C12.5099 26.1027 9.82918 31.355 5.34231 27.3712C0.855443 23.3874 3.17493 19.1658 9.73412 15.7171C16.2933 12.2685 17.5861 15.8955 15.799 19.4829Z" fill="#8DD0BE"/>
<path d="M15.2097 19.6414C12.0917 25.9243 9.56305 30.8793 5.30432 27.1135C1.0456 23.3477 3.25101 19.364 9.487 16.0937C15.723 12.8234 16.9017 16.2523 15.2097 19.6414Z" fill="#81CCB6"/>
<path d="M14.6202 19.8198C11.6733 25.7459 9.29682 30.4234 5.26625 26.8757C1.23567 23.3279 3.34602 19.5622 9.22077 16.4703C15.0955 13.3784 16.2172 16.6288 14.6202 19.8198Z" fill="#75C8AE"/>
<path d="M14.0309 19.9982C11.2742 25.5676 9.03075 29.9676 5.24733 26.6378C1.46392 23.3081 3.42217 19.7405 8.9547 16.8468C14.4872 13.9531 15.5329 16.9856 14.0309 19.9982Z" fill="#68C4A6"/>
<path opacity="0.71" d="M3.17504 28.5207C0.209144 32.3658 1.02667 38.0342 4.94317 40.809C8.09919 43.0486 11.8636 44.8126 14.8865 43.6036C21.4267 40.9874 23.9173 11.2576 16.6927 14.964C12.491 17.1045 7.0155 23.5261 3.17504 28.5207Z" fill="url(#paint2_radial)"/>
<defs>
<linearGradient id="paint0_linear" x1="26.6831" y1="23.4608" x2="4.51129" y2="13.1422" gradientUnits="userSpaceOnUse">
<stop stop-color="#B29F5F"/>
<stop offset="0.4749" stop-color="#FDFAD2"/>
<stop offset="0.4788" stop-color="#FBF6CF"/>
<stop offset="0.561" stop-color="#DCD2A4"/>
<stop offset="0.6451" stop-color="#C7B986"/>
<stop offset="0.7302" stop-color="#B8A872"/>
<stop offset="0.8167" stop-color="#AD9D64"/>
<stop offset="0.9055" stop-color="#A7965B"/>
<stop offset="1" stop-color="#A59458"/>
</linearGradient>
<linearGradient id="paint1_linear" x1="22.6772" y1="23.3255" x2="4.56261" y2="14.8951" gradientUnits="userSpaceOnUse">
<stop stop-color="#B29F5F"/>
<stop offset="0.4749" stop-color="#FDFAD2"/>
<stop offset="0.4788" stop-color="#FBF6CF"/>
<stop offset="0.561" stop-color="#DCD2A4"/>
<stop offset="0.6451" stop-color="#C7B986"/>
<stop offset="0.7302" stop-color="#B8A872"/>
<stop offset="0.8167" stop-color="#AD9D64"/>
<stop offset="0.9055" stop-color="#A7965B"/>
<stop offset="1" stop-color="#A59458"/>
</linearGradient>
<radialGradient id="paint2_radial" cx="0" cy="0" r="1" gradientUnits="userSpaceOnUse" gradientTransform="translate(13.5149 29.056) rotate(84.0839) scale(10.9342 10.4983)">
<stop offset="0.0223739" stop-color="white"/>
<stop offset="0.6648" stop-color="white" stop-opacity="0"/>
</radialGradient>
</defs>
</svg>
