<svg width="204" height="35" viewBox="0 0 204 35" fill="none" xmlns="http://www.w3.org/2000/svg">
<path d="M11.2634 24.1611V15.1055C11.2634 12.8804 10.0905 10.8451 7.7964 10.8451C5.53682 10.8451 4.19143 12.8632 4.19143 15.1055V24.1611H0V7.20564H3.88095L4.19143 9.25823C5.08836 7.55061 7.03746 6.92966 8.65883 6.92966C10.6769 6.92966 12.7123 7.75759 13.6609 10.0862C15.1788 7.6886 17.1279 6.99865 19.3185 6.99865C24.1309 6.99865 26.494 9.94817 26.494 15.0365V24.1611H22.3025V15.0365C22.3025 12.8115 21.3711 10.9141 19.1115 10.9141C16.8519 10.9141 15.4376 12.8632 15.4376 15.1055V24.1611H11.2634Z" fill="white"/>
<path d="M44.1566 7.24015H48.1756V24.1611H44.2256L44.0187 21.6945C43.0527 23.6781 40.4137 24.6441 38.5336 24.6786C33.5315 24.713 29.823 21.6255 29.823 15.692C29.823 9.86195 33.7039 6.80893 38.6371 6.84343C40.8966 6.84343 43.07 7.91285 44.0187 9.58597L44.1566 7.24015ZM34.0144 15.692C34.0144 18.9175 36.2395 20.8321 39.0165 20.8321C45.6055 20.8321 45.6055 10.5691 39.0165 10.5691C36.2395 10.5691 34.0144 12.4665 34.0144 15.692Z" fill="white"/>
<path d="M55.8686 0.168152V24.161H51.7117V0.168152H55.8686Z" fill="white"/>
<path d="M72.9618 7.24015H76.9808V24.1611H73.0308L72.8238 21.6945C71.8579 23.6781 69.2189 24.6441 67.3388 24.6786C62.3366 24.713 58.6282 21.6255 58.6282 15.692C58.6282 9.86195 62.5091 6.80893 67.4422 6.84343C69.7018 6.84343 71.8752 7.91285 72.8238 9.58597L72.9618 7.24015ZM62.8024 15.692C62.8024 18.9175 65.0274 20.8321 67.8045 20.8321C74.3935 20.8321 74.3935 10.5691 67.8045 10.5691C65.0274 10.5691 62.8024 12.4665 62.8024 15.692Z" fill="white"/>
<path d="M95.4023 22.005C93.4532 23.9196 91.3834 24.6785 88.8823 24.6785C83.9837 24.6785 79.8958 21.729 79.8958 15.7265C79.8958 9.72394 83.9837 6.77441 88.8823 6.77441C91.2799 6.77441 93.1427 7.46436 94.9883 9.27547L92.3493 12.0525C91.3489 11.1556 90.1242 10.7071 88.9513 10.7071C86.1398 10.7071 84.0699 12.7597 84.0699 15.7092C84.0699 18.9347 86.2605 20.6423 88.8823 20.6423C90.2277 20.6423 91.5558 20.2629 92.5908 19.228L95.4023 22.005Z" fill="white"/>
<path d="M101.439 0.133698V9.53422C102.957 7.58512 104.803 6.99867 106.717 6.99867C111.53 6.99867 113.651 10.2587 113.651 15.2263V24.1438H109.46V15.278C109.46 12.1905 107.839 10.8796 105.614 10.8796C103.147 10.8796 101.422 12.9667 101.422 15.5195V24.1611H97.2307V0.133698H101.439Z" fill="white"/>
<path d="M121.741 2.47951C121.741 5.73951 116.808 5.73951 116.808 2.47951C116.808 -0.780484 121.741 -0.780484 121.741 2.47951ZM117.187 7.17115V24.1611H121.379V7.17115H117.187Z" fill="white"/>
<path d="M131.055 2.47949V7.29187H135.73V10.8968H131.021V18.2103C131.021 19.8316 131.918 20.6078 133.211 20.6078C133.867 20.6078 134.626 20.4009 135.229 20.0904L136.402 23.6609C135.195 24.1438 134.212 24.3508 132.935 24.3853C129.261 24.5233 126.864 22.4362 126.864 18.2103V10.8796H123.707V7.27462H126.864V2.92796L131.055 2.47949Z" fill="white"/>
<path d="M142.405 17.1926C142.681 19.2797 144.492 20.7976 147.441 20.7976C148.994 20.7976 151.012 20.2111 151.978 19.2107L154.651 21.8498C152.875 23.6954 149.943 24.5923 147.372 24.5923C141.542 24.5923 138.075 20.9873 138.075 15.5713C138.075 10.4312 141.577 6.72269 147.062 6.72269C152.72 6.72269 156.256 10.2242 155.6 17.1926H142.405ZM151.598 13.7256C151.322 11.5351 149.615 10.4312 147.2 10.4312C144.94 10.4312 143.078 11.5351 142.457 13.7256H151.598Z" fill="white"/>
<path d="M169.899 7.17113V27.766C169.899 31.9575 168.088 34.6655 164.276 34.6655C163.035 34.6655 161.741 34.3205 160.533 33.5271L162.051 30.2671C162.776 30.6121 163.466 30.7846 164.069 30.7501C165.449 30.6811 165.743 29.6117 165.743 27.766V7.17113H169.899ZM165.363 2.445C165.363 5.705 170.296 5.705 170.296 2.445C170.296 -0.815 165.363 -0.815 165.363 2.445Z" fill="white"/>
<path d="M177.023 17.1926C177.299 19.2797 179.11 20.7976 182.06 20.7976C183.612 20.7976 185.63 20.2111 186.596 19.2107L189.27 21.8498C187.493 23.6954 184.561 24.5923 181.991 24.5923C176.161 24.5923 172.694 20.9873 172.694 15.5713C172.694 10.4312 176.195 6.72269 181.68 6.72269C187.338 6.72269 190.874 10.2242 190.218 17.1926H177.023ZM186.217 13.7256C185.941 11.5351 184.233 10.4312 181.818 10.4312C179.559 10.4312 177.696 11.5351 177.075 13.7256H186.217Z" fill="white"/>
<path d="M198.653 2.47949V7.29187H203.327V10.8968H198.618V18.2103C198.618 19.8316 199.515 20.6078 200.809 20.6078C201.464 20.6078 202.223 20.4009 202.827 20.0904L204 23.6609C202.793 24.1438 201.809 24.3508 200.533 24.3853C196.859 24.5233 194.461 22.4362 194.461 18.2103V10.8796H191.305V7.27462H194.461V2.92796L198.653 2.47949Z" fill="white"/>
</svg>
