<?xml version="1.0" standalone="no"?>
<!DOCTYPE svg PUBLIC "-//W3C//DTD SVG 1.1//EN" "http://www.w3.org/Graphics/SVG/1.1/DTD/svg11.dtd" >
<svg xmlns="http://www.w3.org/2000/svg" xmlns:xlink="http://www.w3.org/1999/xlink" version="1.1">
<metadata>
Created by FontForge 20190801 at Fri May  5 13:18:58 2017
 By Jimmy Wärting
Copyright (c) 2014 Indian Type Foundry (info@indiantypefoundry.com)
</metadata>
<defs>
<font id="RozhaOne-Regular" horiz-adv-x="300" >
  <font-face 
    font-family="Rozha One"
    font-weight="400"
    font-stretch="normal"
    units-per-em="1000"
    panose-1="2 0 0 0 0 0 0 0 0 0"
    ascent="800"
    descent="-200"
    x-height="460"
    cap-height="560"
    bbox="-540 -422 2142 998"
    underline-thickness="50"
    underline-position="-100"
    unicode-range="U+000D-FB02"
  />
<missing-glyph horiz-adv-x="750" 
d="M234 651v-601h282v601h-282zM180 0v701h390v-701h-390z" />
    <glyph glyph-name="fi" unicode="fi" horiz-adv-x="637" 
d="M557 20h50v-20h-250v20h50v420h-167v-420h50v-20h-250v20h50v420h-60v20h60q0 76 31.5 126.5t97.5 83.5q36 18 90.5 25.5t113 -2.5t89.5 -36t36 -59.5t-15 -57.5t-49 -27.5t-52 15.5q-33 30 -25 69q2 10 8 20q12 20 8 30.5t-31.5 20.5t-73 2t-62 -56t-16.5 -154h317v-440
z" />
    <glyph glyph-name="fl" unicode="fl" horiz-adv-x="637" 
d="M557 20h50v-20h-250v20h50v578q0 33 -23 56.5t-60 16.5q-51 -10 -67.5 -57.5t-16.5 -153.5h130v-20h-130v-420h50v-20h-250v20h50v420h-60v20h60q0 146 127 209.5t340 0.5v-650z" />
    <glyph glyph-name="f_b" unicode="fb" horiz-adv-x="905" 
d="M407 598q0 33 -23 56.5t-60 16.5q-51 -10 -67.5 -57.5t-16.5 -153.5h130v-20h-130v-420h50v-20h-250v20h50v420h-60v20h60q0 146 127 209.5t340 0.5v-246q16 27 52.5 42.5t76.5 15.5q76 0 132.5 -66.5t56.5 -185.5q0 -70 -23 -120t-60 -74q-67 -45 -142 -45
q-32 0 -60 12.5t-44.5 27t-36.5 27t-38 12.5t-31.5 -20t-13.5 -50h-19v598zM557 156q0 -76 17 -109.5t54.5 -33.5t66.5 56.5t29 159t-30.5 157.5t-72 55t-64.5 -47v-238z" />
    <glyph glyph-name="f_f" unicode="ff" horiz-adv-x="752" 
d="M290 0h-250v20h50v420h-60v20h60q0 132 119 192q52 26 130 28.5t142 -28.5q44 28 115.5 28t108.5 -29.5t37 -68.5q0 -24 -15.5 -37.5t-36.5 -13.5q-54 0 -54 64.5t-38 64.5q-28 0 -38 -48.5t-10 -151.5h130v-20h-130v-420h50v-20h-250v20h50v420h-160v-420h50v-20z
M400 460q0 55 14.5 103.5t-19.5 74.5t-80.5 15.5t-60.5 -51t-14 -142.5h160z" />
    <glyph glyph-name="f_f_b" unicode="ffb" horiz-adv-x="1221" 
d="M873 156q0 -76 17 -109.5t54.5 -33.5t66.5 56.5t29 159t-30.5 157.5t-72 55t-64.5 -47v-238zM406 460q0 55 14.5 103.5t-22.5 74.5t-83.5 15.5t-60.5 -51t-14 -142.5h166zM1036 1q-35 -10 -68.5 -10t-61.5 12.5t-44.5 27t-36.5 27t-38 12.5t-31.5 -20t-13.5 -50h-19v598
q0 33 -23 56.5t-60 16.5q-51 -10 -67.5 -57.5t-16.5 -153.5h130v-20h-130v-420h50v-20h-250v20h50v420h-166v-420h50v-20h-250v20h50v420h-60v20h60q0 132 119 192q53 26 132 27t153 -33l41 24q125 63 338 0v-246q16 27 52.5 42.5t76.5 15.5q76 0 132.5 -66.5t56.5 -185.5
q0 -70 -23 -120t-60 -74.5t-72 -34.5z" />
    <glyph glyph-name="f_f_h" unicode="ffh" horiz-adv-x="1261" 
d="M1198 20h33v-20h-250v20h67v280q0 71 -21 101t-63 30q-56 0 -91 -60v-351h50v-20h-250v20h50v578q0 33 -23 56.5t-60 16.5q-51 -10 -67.5 -57.5t-16.5 -153.5h130v-20h-130v-420h50v-20h-250v20h50v420h-166v-420h50v-20h-250v20h50v420h-60v20h60q0 132 119 192
q53 26 132 27t153 -33l41 24q68 34 159 36t179 -36v-262q19 27 59 45t88 18q178 0 178 -193v-258zM240 460h166q0 55 14.5 103.5t-22.5 74.5t-83.5 15.5t-60.5 -51t-14 -142.5z" />
    <glyph glyph-name="f_f_i" unicode="ffi" horiz-adv-x="947" 
d="M867 20h50v-20h-250v20h50v420h-167v-420h50v-20h-250v20h50v420h-160v-420h50v-20h-250v20h50v420h-60v20h60q0 132 119 192q49 24 138 25.5t150 -25.5q10 6 39 21t83.5 22.5t113 -2.5t89.5 -36t36 -59.5t-15 -57.5t-49 -27.5t-52 15.5q-33 30 -25 69q2 10 8 20
q12 20 8 30.5t-31.5 20.5t-73 2t-62 -56t-16.5 -154h317v-440zM240 460h160q0 55 14.5 103.5t-19.5 74.5t-80.5 15.5t-60.5 -51t-14 -142.5z" />
    <glyph glyph-name="f_f_j" unicode="ffj" horiz-adv-x="919" 
d="M659 -220q-76 0 -110 28.5t-34 69.5q0 24 15.5 37.5t36.5 13.5q54 0 54 -64.5t38 -64.5q28 0 38 48.5t10 151.5v440h-157v-420h50v-20h-250v20h50v420h-160v-420h50v-20h-250v20h50v420h-60v20h60q0 132 119 192q49 24 138 25.5t150 -25.5q10 6 39 21t83.5 22.5t113 -2.5
t89.5 -36t36 -59.5t-15 -57.5t-49 -27.5t-52 15.5q-33 30 -25 69q2 10 8 20q12 20 8 30.5t-31.5 20.5t-73 2t-62 -56t-16.5 -154h307v-460q0 -220 -198 -220zM400 460q0 55 14.5 103.5t-19.5 74.5t-80.5 15.5t-60.5 -51t-14 -142.5h160z" />
    <glyph glyph-name="f_f_k" unicode="ffk" horiz-adv-x="1251" 
d="M1241 20v-20q-136 0 -188.5 19.5t-103.5 97.5l-63 97l-13 -12v-182h50v-20h-250v20h50v578q0 33 -23 56.5t-60 16.5q-51 -10 -67.5 -57.5t-16.5 -153.5h130v-20h-130v-420h50v-20h-250v20h50v420h-166v-420h50v-20h-250v20h50v420h-60v20h60q0 132 119 192q53 26 132 27
t153 -33l41 24q125 63 338 0v-438l209 208h-81v20h190v-20h-79l-120 -119l120 -180q81 -121 129 -121zM240 460h166q0 55 14.5 103.5t-22.5 74.5t-83.5 15.5t-60.5 -51t-14 -142.5z" />
    <glyph glyph-name="f_f_l" unicode="ffl" horiz-adv-x="953" 
d="M873 20h50v-20h-250v20h50v578q0 33 -23 56.5t-60 16.5q-51 -10 -67.5 -57.5t-16.5 -153.5h130v-20h-130v-420h50v-20h-250v20h50v420h-166v-420h50v-20h-250v20h50v420h-60v20h60q0 132 119 192q53 26 132 27t153 -33l41 24q125 63 338 0v-650zM240 460h166
q0 55 14.5 103.5t-22.5 74.5t-83.5 15.5t-60.5 -51t-14 -142.5z" />
    <glyph glyph-name="f_j" unicode="fj" horiz-adv-x="617" 
d="M557 460v-460q0 -220 -198 -220q-76 0 -110 28.5t-34 69.5q0 24 15.5 37.5t36.5 13.5q54 0 54 -64.5t38 -64.5q28 0 38 48.5t10 151.5v440h-167v-420h50v-20h-250v20h50v420h-60v20h60q0 76 31.5 126.5t97.5 83.5q36 18 90.5 25.5t113 -2.5t89.5 -36t36 -59.5t-15 -57.5
t-49 -27.5t-52 15.5q-33 30 -25 69q2 10 8 20q12 20 8 30.5t-31.5 20.5t-73 2t-62 -56t-16.5 -154h317z" />
    <glyph glyph-name="f_k" unicode="fk" horiz-adv-x="935" 
d="M925 20v-20q-136 0 -188.5 19.5t-103.5 97.5l-63 97l-13 -12v-182h50v-20h-250v20h50v578q0 33 -23 56.5t-60 16.5q-51 -10 -67.5 -57.5t-16.5 -153.5h130v-20h-130v-420h50v-20h-250v20h50v420h-60v20h60q0 146 127 209.5t340 0.5v-438l209 208h-81v20h190v-20h-79
l-120 -119l120 -180q81 -121 129 -121z" />
    <glyph glyph-name=".notdef" horiz-adv-x="750" 
d="M234 651v-601h282v601h-282zM180 0v701h390v-701h-390z" />
    <glyph glyph-name=".null" horiz-adv-x="0" 
 />
    <glyph glyph-name="nonmarkingreturn" horiz-adv-x="333" 
 />
    <glyph glyph-name="NULL" horiz-adv-x="0" 
 />
    <glyph glyph-name="NULL" horiz-adv-x="0" 
 />
    <glyph glyph-name="CR" unicode="&#xd;" horiz-adv-x="0" 
 />
    <glyph glyph-name="space" unicode=" " horiz-adv-x="215" 
 />
    <glyph glyph-name="exclam" unicode="!" horiz-adv-x="312" 
d="M66.5 390.5q-21.5 35.5 -21.5 75t27 71.5t84 32t84 -32t27 -71t-21 -74.5t-47 -83t-35 -101.5h-16q-8 54 -34 101t-47.5 82.5zM92 6q-27 27 -27 65.5t27 65.5t65.5 27t65.5 -27t27 -65.5t-27 -65.5t-65.5 -27t-65.5 27z" />
    <glyph glyph-name="quotedbl" unicode="&#x22;" horiz-adv-x="262" 
d="M156.5 602q-7.5 31 -7.5 52.5t14 39.5t37.5 18t37 -18t13.5 -39t-6.5 -50.5t-20 -78t-19.5 -75.5h-10q-7 31 -19 75.5t-19.5 75.5zM22.5 602q-7.5 31 -7.5 52.5t14 39.5t37.5 18t37 -18t13.5 -39t-6.5 -50.5t-20 -78t-19.5 -75.5h-10q-7 31 -19 75.5t-19.5 75.5z" />
    <glyph glyph-name="numbersign" unicode="#" horiz-adv-x="501" 
d="M494 373h-105l-54 -176h113v-20h-119l-53 -170h-21l53 170h-170l-52 -168h-21l52 168h-97v20h103l55 176h-117v20h123l54 175h21l-54 -175h169l54 173h21l-54 -173h99v-20zM314 197l54 176h-169l-55 -176h170z" />
    <glyph glyph-name="dollar" unicode="$" horiz-adv-x="548" 
d="M306 -15h-12v-36h-20v38q-50 5 -103 29t-64 24q-37 0 -37 -40h-20v233h20q0 -87 58.5 -150.5t145.5 -73.5v189q-119 52 -154 79q-62 48 -54.5 127t59.5 122.5t125 43.5q16 0 24 -1v64h20v-66q37 -4 76.5 -18t49.5 -14q20 0 20 35h20v-183h-20q0 62 -40 105t-106 54v-175
q4 -2 12 -5.5t14 -6.5t28 -13t32 -14.5t29 -14.5t28.5 -18t24.5 -20t22 -24.5t14 -28.5q14 -32 10 -75q-8 -81 -60.5 -123.5t-141.5 -42.5zM251 550q-37 0 -58 -21.5t-21 -55.5t25 -53.5t77 -40.5v170q-7 1 -23 1zM294 7h8q40 0 64.5 23.5t24.5 58t-24 55.5t-73 44v-181z
" />
    <glyph glyph-name="percent" unicode="%" horiz-adv-x="630" 
d="M451 233q-49 0 -49 -110.5t50 -110.5q46 0 46 117q0 55 -11 79.5t-36 24.5zM553 219q37 -34 37 -92.5t-36 -96t-105.5 -37.5t-103.5 35.5t-34 93.5t37.5 94.5t102.5 36.5t102 -34zM156 2l292 565l18 -9l-293 -565zM180 550q-49 0 -49 -110.5t50 -110.5q46 0 46 117
q0 55 -11 79.5t-36 24.5zM282 536q37 -34 37 -92.5t-36 -96t-105.5 -37.5t-103.5 35.5t-34 93.5t37.5 94.5t102.5 36.5t102 -34z" />
    <glyph glyph-name="ampersand" unicode="&#x26;" horiz-adv-x="856" 
d="M851 216v-13q0 -64 -34 -124q-14 -26 -34 -44.5t-54 -31.5t-76 -13q-110 0 -205 70q-31 -40 -76.5 -54.5t-108.5 -14.5t-109.5 20t-73 51.5t-38 71t-6 77.5t28.5 72.5t65 58.5t102 27q-5 27 -5 49q0 82 59 135t154.5 53t142 -43t46.5 -100t-44.5 -95.5t-118.5 -38.5
l-5 16q25 9 40 47t15 86q0 108 -78 108q-34 0 -55 -26.5t-21 -72t28 -115.5q34 -86 111 -163q38 87 101.5 117.5t132.5 7.5q35 -12 54 -44t5 -66t-42 -45.5t-55 -0.5t-37.5 29.5t-10.5 34.5q0 44 -18 52q-27 11 -56.5 -17t-54.5 -87q90 -85 177 -85q35 0 61.5 11.5
t39.5 27.5q28 35 31 60l2 12h20zM196 161q19 -42 61.5 -77t89 -41.5t81.5 33.5q-41 33 -80 78q-87 97 -112 196q-39 -24 -52 -75.5t12 -113.5z" />
    <glyph glyph-name="quotesingle" unicode="'" horiz-adv-x="181" 
d="M51.5 602q-7.5 31 -7.5 52.5t14 39.5t37.5 18t37 -18t13.5 -39t-6.5 -50.5t-20 -78t-19.5 -75.5h-10q-7 31 -19 75.5t-19.5 75.5z" />
    <glyph glyph-name="parenleft" unicode="(" horiz-adv-x="319" 
d="M40 285q0 149 84 251t185 116v-20q-61 -29 -95 -119.5t-34 -227.5t34 -227.5t95 -119.5v-20q-101 14 -185 116t-84 251z" />
    <glyph glyph-name="parenright" unicode=")" horiz-adv-x="319" 
d="M279 285q0 -149 -84 -251t-185 -116v20q61 29 95 119.5t34 227.5t-34 227.5t-95 119.5v20q101 -14 185 -116t84 -251z" />
    <glyph glyph-name="asterisk" unicode="*" horiz-adv-x="328" 
d="M229 342q0 -51 -44.5 -51t-44.5 51q0 17 19.5 43.5t19.5 53.5q-23 -13 -36 -43.5t-29 -39.5q-44 -25 -67 14q-21 39 22 63q15 9 48 5.5t55 9.5q-22 13 -55 9.5t-48 5.5q-43 24 -22 63q23 39 67 14q16 -9 29 -39.5t36 -43.5q0 27 -19.5 53t-19.5 44q0 51 44.5 51t44.5 -51
q0 -18 -19.5 -44.5t-19.5 -52.5q22 13 35.5 43.5t30.5 39.5q44 25 66.5 -14t-22.5 -63q-15 -9 -47.5 -5.5t-55.5 -9.5q23 -13 56 -9.5t47 -5.5q45 -24 22.5 -63t-66.5 -14q-17 9 -30.5 39.5t-35.5 43.5q0 -26 19.5 -52.5t19.5 -44.5z" />
    <glyph glyph-name="plus" unicode="+" horiz-adv-x="485" 
d="M252 242h213v-20h-213v-213h-20v213h-212v20h212v212h20v-212z" />
    <glyph glyph-name="comma" unicode="," horiz-adv-x="290" 
d="M153 5l-41 -6q-29 0 -52 20t-23 57.5t24.5 62.5t69 25t72.5 -34t28 -77q0 -62 -40.5 -114.5t-116.5 -86.5l-7 18q104 61 104 118q0 17 -18 17z" />
    <glyph glyph-name="hyphen" unicode="-" horiz-adv-x="251" 
d="M40 198v76h171v-76h-171z" />
    <glyph glyph-name="period" unicode="." horiz-adv-x="255" 
d="M63 6q-27 27 -27 65.5t27 65.5t65.5 27t65.5 -27t27 -65.5t-27 -65.5t-65.5 -27t-65.5 27z" />
    <glyph glyph-name="slash" unicode="/" horiz-adv-x="264" 
d="M40 1l166 563l18 -5l-165 -564z" />
    <glyph glyph-name="zero" unicode="0" horiz-adv-x="572" 
d="M465 69.5q-67 -81.5 -180.5 -81.5t-179 81t-65.5 229q0 122 65.5 205.5t182 83.5t180.5 -82.5t64 -218t-67 -217zM286 567q-97 0 -97 -269q0 -144 21 -217t77 -73t76 72t20 218q0 269 -97 269z" />
    <glyph glyph-name="one" unicode="1" horiz-adv-x="377" 
d="M277 20h70v-20h-300v20h80v481l-81 -31l-6 19l201 93h36v-562z" />
    <glyph glyph-name="two" unicode="2" horiz-adv-x="528" 
d="M478 142q0 -63 -29.5 -107.5t-86 -44.5t-131.5 37.5t-108 37.5q-59 0 -73 -65h-20q6 76 56 143q34 45 144 153q29 29 52 69t23 86t-27 79t-80 33q-34 0 -62 -13t-28 -29.5t13.5 -24.5t29 -12.5t29 -20.5t13.5 -43t-19.5 -46t-53.5 -19t-56 25t-22 64q0 61 52.5 102
t147 41t160.5 -41t66 -113q0 -59 -27.5 -100t-70 -62t-87 -36.5t-87 -36t-60.5 -47.5q24 20 62 20t86.5 -13t76.5 -13t46 3t34 17t19 40h10q8 -32 8 -63z" />
    <glyph glyph-name="three" unicode="3" horiz-adv-x="526" 
d="M222 587q228 0 228 -138q0 -55 -43.5 -93t-124.5 -42q91 -1 147.5 -41t56.5 -109q0 -85 -68.5 -132.5t-193.5 -47.5q-87 0 -135.5 38.5t-48.5 102.5q0 40 21.5 65t56.5 25t54.5 -19t19.5 -46.5t-15 -43.5t-33 -20q-47 -11 -47 -31.5t28.5 -33.5t65.5 -13q58 0 94 42
t36 113.5t-31.5 105.5t-114.5 34h-16v20h16q64 0 92 38.5t28 87.5t-28 82t-71 33t-65 -14t-22 -29.5t12.5 -22.5t28 -10.5t28 -17.5t12.5 -38t-17 -41t-48 -17t-51 22t-20 60q0 55 45.5 93t122.5 38z" />
    <glyph glyph-name="four" unicode="4" horiz-adv-x="531" 
d="M468 229h23v-154h-23v68h-74v-123h65v-20h-280v20h65v123h-234v20l284 419h100v-419h74v66zM244 163v309l-208 -309h208z" />
    <glyph glyph-name="five" unicode="5" horiz-adv-x="515" 
d="M286 554q58 0 82 6.5t35.5 20t21.5 36.5h10q8 -31 8 -68q0 -65 -31 -106t-91 -41q-110 0 -199 94l-21 -189q42 40 134 40q121 0 180.5 -44.5t59.5 -127.5t-66.5 -134t-194.5 -51q-87 0 -135.5 38.5t-48.5 102.5q0 40 21.5 65t56.5 25t54.5 -19t19.5 -46.5t-15 -43.5
t-33 -20q-47 -11 -47 -31.5t28.5 -33.5t65.5 -13q129 0 129 163q0 67 -22.5 104t-89 37t-106.5 -50l-17 4l34 305q57 -23 177 -23z" />
    <glyph glyph-name="six" unicode="6" horiz-adv-x="551" 
d="M189 293q47 40 129 40t137.5 -41.5t55.5 -122.5t-58.5 -131t-164.5 -50q-258 0 -258 296q0 143 72.5 223.5t211.5 80.5q51 0 102.5 -25.5t67.5 -75.5q14 -36 5 -69t-39 -45.5t-56 -4t-37 32.5q-14 39 -1.5 56.5t31 37t14 35t-31.5 25t-51 9.5t-40.5 -4.5t-29 -10t-22 -19
t-16 -23t-10.5 -31t-6.5 -34t-3.5 -41t-1 -41.5v-67zM289 8q82 0 82 156q0 63 -24.5 100t-71.5 37t-86 -36q1 -134 25.5 -195.5t74.5 -61.5z" />
    <glyph glyph-name="seven" unicode="7" horiz-adv-x="472" 
d="M274 424q-32 0 -93.5 11.5t-87.5 11.5t-43.5 -21t-19.5 -54h-11q-9 34 -9 90.5t29 93t84.5 36.5t141 -29t113 -29t39.5 16.5t18 48.5h17q0 -114 -55 -191q-23 -32 -47 -61q-55 -68 -55 -155q0 -21 9 -56t9 -62.5t-25.5 -56.5t-68 -29t-66.5 30.5t-24 81.5t21.5 94.5
t55.5 74.5t70.5 59t74 69t58.5 88l-3 3q-38 -64 -132 -64z" />
    <glyph glyph-name="eight" unicode="8" horiz-adv-x="530" 
d="M500 153q0 -73 -67.5 -119t-165 -46t-167.5 35.5t-70 117.5q0 49 35 87t94 55q-85 71 -85 155q0 62 49 105t142.5 43t152 -37.5t58.5 -90.5q0 -86 -111 -121q135 -89 135 -184zM331.5 536q-31.5 30 -74.5 30t-65.5 -18.5t-22.5 -51.5q0 -29 37 -58q32 -25 76.5 -51
t60.5 -36q20 37 20 109q0 46 -31.5 76zM193.5 43.5q40.5 -35.5 86 -35.5t74 25t28.5 67q0 26 -26.5 50t-86.5 60t-86 55q-30 -72 -30 -129t40.5 -92.5z" />
    <glyph glyph-name="nine" unicode="9" horiz-adv-x="551" 
d="M263 588q258 0 258 -296q0 -143 -72.5 -223.5t-211.5 -80.5q-51 0 -102.5 25.5t-67.5 75.5q-14 36 -5 69t39 45.5t56 4t37 -32.5q14 -39 1.5 -56.5t-31 -37t-14 -35t31.5 -25t51 -9.5t40.5 4.5t29 10t22 19t16 23t10.5 31t6.5 34t3.5 41t1 41.5v67q-47 -40 -129 -40
t-137.5 41.5t-55.5 122.5t58.5 131t164.5 50zM180 412q0 -63 24.5 -100t71.5 -37t86 36q-1 134 -25.5 195.5t-74.5 61.5q-82 0 -82 -156z" />
    <glyph glyph-name="colon" unicode=":" horiz-adv-x="264" 
d="M63 6q-27 27 -27 65.5t27 65.5t65.5 27t65.5 -27t27 -65.5t-27 -65.5t-65.5 -27t-65.5 27zM63 309q-27 27 -27 65.5t27 65.5t65.5 27t65.5 -27t27 -65.5t-27 -65.5t-65.5 -27t-65.5 27z" />
    <glyph glyph-name="semicolon" unicode=";" horiz-adv-x="264" 
d="M63 309q-27 27 -27 65.5t27 65.5t65.5 27t65.5 -27t27 -65.5t-27 -65.5t-65.5 -27t-65.5 27zM153 5l-41 -6q-29 0 -52 20t-23 57.5t24.5 62.5t69 25t72.5 -34t28 -77q0 -62 -40.5 -114.5t-116.5 -86.5l-7 18q104 61 104 118q0 17 -18 17z" />
    <glyph glyph-name="less" unicode="&#x3c;" horiz-adv-x="483" 
d="M453 45v-23l-423 214v13l423 212v-22l-392 -197z" />
    <glyph glyph-name="equal" unicode="=" horiz-adv-x="465" 
d="M435 166v-21h-405v21h405zM435 321v-20h-405v20h405z" />
    <glyph glyph-name="greater" unicode="&#x3e;" horiz-adv-x="483" 
d="M30 22v23l392 197l-392 197v22l423 -212v-13z" />
    <glyph glyph-name="question" unicode="?" horiz-adv-x="451" 
d="M203 570q130 0 189 -60q33 -35 29 -81.5t-30 -75t-59.5 -42t-65.5 -25.5q-73 -29 -59 -91h-17q-63 36 -56 93q3 25 23 46.5t42 34.5t42.5 32.5t25.5 40.5q12 52 -15 76.5t-64 24.5t-71 -14t-34 -26.5t10 -21t22 -13.5t22 -19t10 -36.5t-19 -40.5t-47 -18t-49.5 23
t-21.5 57q0 57 53.5 96.5t139.5 39.5zM137 6q-27 27 -27 65.5t27 65.5t65.5 27t65.5 -27t27 -65.5t-27 -65.5t-65.5 -27t-65.5 27z" />
    <glyph glyph-name="at" unicode="@" horiz-adv-x="1000" 
d="M654 117q0 -47 47 -47q35 0 63 58t28 120q0 138 -81.5 220t-230 82t-238 -89t-89.5 -230.5t89.5 -222.5t228.5 -81q25 0 55 5v-27q-23 -4 -54 -4q-150 0 -247.5 88.5t-97.5 240.5t97.5 248.5t256.5 96.5t248 -89.5t89 -237.5q0 -55 -14.5 -97t-32 -66t-49 -40.5
t-65.5 -16.5t-56 6t-34 14q-24 18 -34 37q-29 -47 -100.5 -47t-118 49.5t-46.5 146t48 152.5t119 56t98 -55l1 47h160v-16h-40v-301zM533 145v208q-21 44 -56 44t-60.5 -42t-25.5 -116q0 -149 86 -149q22 0 39 13.5t17 41.5z" />
    <glyph glyph-name="A" unicode="A" horiz-adv-x="643" 
d="M633 20v-20h-263v20h59l-67 139h-202l-58 -139h79v-20h-171v20h67l229 550h25l254 -550h48zM169 180h183l-98 204z" />
    <glyph glyph-name="B" unicode="B" horiz-adv-x="596" 
d="M240 306h31q121 0 121 115q0 119 -121 119h-31v-234zM240 20h56q60 0 95 31t35 90q0 83 -41 114t-113 31h-32v-266zM40 0v20h50v520h-50v20h252q124 0 182.5 -38t58.5 -104q0 -53 -34.5 -86.5t-92.5 -33.5v-6q72 0 121 -38.5t49 -109.5t-57 -107.5t-163 -36.5h-316z" />
    <glyph glyph-name="C" unicode="C" horiz-adv-x="560" 
d="M525 337h-20q0 80 -51 148t-146 68q-53 0 -87.5 -62t-34.5 -212t34.5 -212t108 -62t124 46t62.5 130h20q-14 -99 -69.5 -147.5t-132.5 -48.5q-149 0 -228.5 71.5t-79.5 224t77.5 222.5t205.5 70q69 0 134 -37q21 -13 34.5 -13t21.5 12.5t8 24.5h19v-223z" />
    <glyph glyph-name="D" unicode="D" horiz-adv-x="615" 
d="M290 0h-250v20h50v520h-50v20h250q74 0 133.5 -24.5t96.5 -64.5q75 -83 75 -188q0 -142 -75 -212.5t-230 -70.5zM240 20q108 0 156 58.5t48 191t-52 201.5t-152 69v-520z" />
    <glyph glyph-name="E" unicode="E" horiz-adv-x="545" 
d="M340 20q150 0 150 170h20v-190h-470v20h50v520h-50v20h460v-170h-20q0 89 -35.5 119.5t-114.5 30.5h-90v-240h40q72 0 91 18t19 72h20v-200h-20q0 56 -19 73t-91 17h-40v-260h100z" />
    <glyph glyph-name="F" unicode="F" horiz-adv-x="530" 
d="M500 560v-170h-20q0 89 -35.5 119.5t-114.5 30.5h-90v-262h40q72 0 91 18t19 72h20v-200h-20q0 56 -19 73t-91 17h-40v-238h60v-20h-260v20h50v520h-50v20h460z" />
    <glyph glyph-name="G" unicode="G" horiz-adv-x="608" 
d="M509 38.5q-13 15.5 -33.5 15.5t-42 -17t-50 -34.5t-68.5 -17.5q-136 0 -210.5 70t-74.5 215q0 303 283 303q51 0 104.5 -25t65.5 -25t20 12.5t8 24.5h19v-203h-20q0 76 -59.5 136t-137.5 60q-60 0 -91 -64.5t-31 -213t31.5 -209.5t92.5 -61q96 0 96 171v74h-63v20h240
v-20h-47v-250h-19q0 23 -13 38.5z" />
    <glyph glyph-name="H" unicode="H" horiz-adv-x="657" 
d="M627 540h-50v-520h50v-20h-250v20h50v268h-197v-268h50v-20h-250v20h50v520h-50v20h250v-20h-50v-232h197v232h-50v20h250v-20z" />
    <glyph glyph-name="I" unicode="I" horiz-adv-x="330" 
d="M290 0h-250v20h50v520h-50v20h250v-20h-50v-520h50v-20z" />
    <glyph glyph-name="J" unicode="J" horiz-adv-x="500" 
d="M184 0q-79 0 -126.5 36t-47.5 104q0 37 23.5 64.5t56.5 27.5t52.5 -20.5t19.5 -51.5q0 -49 -52 -65q-6 -2 -16.5 -4.5t-15.5 -4.5q-13 -3 -13 -19t26.5 -30t59.5 -14q119 0 119 174v343h-50v20h250v-20h-50v-334q0 -97 -59 -151.5t-177 -54.5z" />
    <glyph glyph-name="K" unicode="K" horiz-adv-x="640" 
d="M630 20v-20h-260v20h45l-133 243l-42 -53v-190h50v-20h-250v20h50v520h-50v20h250v-20h-50v-295l232 295h-92v20h204v-20h-85l-118 -150l206 -370h43z" />
    <glyph glyph-name="L" unicode="L" horiz-adv-x="520" 
d="M490 190h20v-190h-470v20h50v520h-50v20h260v-20h-60v-520h100q34 0 56.5 5t46.5 21q47 31 47 144z" />
    <glyph glyph-name="M" unicode="M" horiz-adv-x="784" 
d="M754 540h-50v-520h50v-20h-250v20h50v483l-198 -513h-23l-222 527v-497h80v-20h-160v20h60v520h-61v20h223l156 -375l145 375h200v-20z" />
    <glyph glyph-name="N" unicode="N" horiz-adv-x="598" 
d="M100 20h80v-20h-160v20h60v476q-32 44 -60 44v20h187l281 -333v313h-80v20h170v-20h-70v-550h-20l-388 481v-451z" />
    <glyph glyph-name="O" unicode="O" horiz-adv-x="622" 
d="M406.5 480.5q-34.5 71.5 -95 71.5t-95.5 -72t-35 -201t33.5 -199t96.5 -70q130 0 130 271q0 128 -34.5 199.5zM521 64q-81 -74 -211 -74t-210 73.5t-80 211t80 217.5t212.5 80t211 -79.5t78.5 -217t-81 -211.5z" />
    <glyph glyph-name="P" unicode="P" horiz-adv-x="563" 
d="M240 540v-326q82 0 112 35.5t30 124.5t-30 127.5t-112 38.5zM290 20v-20h-250v20h50v520h-50v20h199q294 14 294 -189q0 -90 -74 -137t-219 -40v-174h50z" />
    <glyph glyph-name="Q" unicode="Q" horiz-adv-x="684" 
d="M426.5 -90.5q94.5 -22.5 148.5 -22.5t80.5 23t26.5 58h20q0 -115 -31 -172.5t-113 -57.5q-69 0 -136 60l-56 50q-67 60 -133 60q-42 0 -87 -35l-11 18q32 28 63 40.5t44 16.5q18 7 67 19q171 51 171 309q0 134 -42.5 204t-106 70t-101.5 -70.5t-38 -193.5t32.5 -190.5
t96.5 -67.5v-20q-135 0 -213 67t-78 197t83 214t219 84t223 -84t87 -211q0 -74 -30.5 -134t-85.5 -101q-109 -81 -276 -109v-4q82 5 176.5 -17.5z" />
    <glyph glyph-name="R" unicode="R" horiz-adv-x="633" 
d="M230 540v-258q100 0 134 29t34 97t-35 100t-133 32zM623 -10h-44q-125 0 -174 54q-39 42 -53 111q-6 29 -13 53q-16 54 -65 54h-44v-242h50v-20h-250v20h50v520h-50v20h263q255 0 255 -149q0 -59 -43 -96t-110 -37v-7q100 0 139 -132q20 -70 40.5 -99.5t48.5 -29.5v-20z
" />
    <glyph glyph-name="S" unicode="S" horiz-adv-x="558" 
d="M80 0h-20v233h20q0 -94 67.5 -160t164.5 -66q40 0 64.5 23.5t24.5 62.5q0 44 -57 75q-31 16 -107 50.5t-107 58.5q-62 48 -54.5 127t59.5 122.5t117.5 43.5t118 -17.5t59.5 -17.5q20 0 20 35h20v-183h-20q0 72 -53 117.5t-136 45.5q-37 0 -58 -21.5t-21 -47.5t7 -40
t24.5 -25.5t30.5 -18.5t41.5 -19t39.5 -17q55 -25 65 -29.5t29 -14.5t28.5 -18t24.5 -20t22 -24.5t14 -28.5q14 -32 10 -75q-8 -81 -60.5 -123.5t-141.5 -42.5q-80 0 -159 41q-27 14 -40 14q-37 0 -37 -40z" />
    <glyph glyph-name="T" unicode="T" horiz-adv-x="569" 
d="M529 390q0 89 -29.5 119.5t-110.5 30.5h-30v-520h70v-20h-290v20h70v520h-30q-80 0 -109.5 -30.5t-29.5 -119.5h-20v170h529v-170h-20z" />
    <glyph glyph-name="U" unicode="U" horiz-adv-x="605" 
d="M545 244q0 -259 -218 -259q-121 0 -189 62t-68 187v306h-50v20h260v-20h-50v-317q0 -209 140 -209q57 0 103.5 56.5t46.5 153.5v316h-79v20h154v-20h-50v-296z" />
    <glyph glyph-name="V" unicode="V" horiz-adv-x="626" 
d="M616 560v-20h-68l-213 -540h-26l-251 540h-48v20h283v-20h-49l146 -335l132 335h-80v20h174z" />
    <glyph glyph-name="W" unicode="W" horiz-adv-x="919" 
d="M10 540v20h293v-20h-49l137 -309l64 159l-67 150h-38v20h274v-20h-47l134 -305l106 305h-80v20h172v-20h-68l-187 -540h-24l4 11l-5 -11l-161 362l-145 -362h-24l-241 540h-48z" />
    <glyph glyph-name="X" unicode="X" horiz-adv-x="625" 
d="M615 20v-20h-275v20h50l-139 228l-142 -228h81v-20h-180v20h72l156 250l-164 270h-53v20h279v-20h-46l107 -177l119 177h-80v20h180v-20h-73l-134 -198l194 -322h48z" />
    <glyph glyph-name="Y" unicode="Y" horiz-adv-x="616" 
d="M431 0h-230v20h40v211l-179 309h-52v20h280v-20h-49l140 -252l130 252h-80v20h175v-20h-70l-145 -282v-238h40v-20z" />
    <glyph glyph-name="Z" unicode="Z" horiz-adv-x="529" 
d="M469 210h20v-210h-459v20l283 520h-64q-93 0 -131 -33t-38 -137h-20v190h422v-20l-287 -520h105q47 0 76 6.5t52 25.5q41 36 41 158z" />
    <glyph glyph-name="bracketleft" unicode="[" horiz-adv-x="270" 
d="M50 -57v674h210v-20h-86v-634h86v-20h-210z" />
    <glyph glyph-name="backslash" unicode="\" horiz-adv-x="264" 
d="M58 564l166 -563l-19 -6l-165 564z" />
    <glyph glyph-name="bracketright" unicode="]" horiz-adv-x="270" 
d="M220 -57h-210v20h86v634h-86v20h210v-674z" />
    <glyph glyph-name="asciicircum" unicode="^" horiz-adv-x="342" 
d="M171 455l-124 -257l-17 8l135 283h12l135 -283l-18 -8z" />
    <glyph glyph-name="underscore" unicode="_" horiz-adv-x="522" 
d="M30 -64v20h462v-20h-462z" />
    <glyph glyph-name="grave" unicode="`" horiz-adv-x="539" 
d="M344 511l-14 -10q-19 27 -59 38t-55 32t-10 45.5t26 33.5q16 10 37 4.5t35 -25t18.5 -56.5t21.5 -62z" />
    <glyph glyph-name="a" unicode="a" horiz-adv-x="545" 
d="M487 2.5q-28 -7.5 -65 -7.5q-82 0 -103 49q-50 -52 -153 -52q-55 0 -90.5 25.5t-35.5 75.5q0 67 52 103.5t182 51.5l40 5v49q0 87 -13 117t-51.5 30t-49.5 -10.5t-8 -24t10 -35.5t7 -35q0 -31 -21.5 -52.5t-52 -21.5t-52.5 21.5t-22 52.5q0 51 52.5 87.5t157 36.5
t149 -41t44.5 -145v-180q0 -53 13 -66.5t48 -5.5v-10q-10 -10 -38 -17.5zM207 54.5q23 -20.5 53.5 -20.5t53.5 30v170l-36 -5q-46 -6 -74.5 -35t-24.5 -81q5 -38 28 -58.5z" />
    <glyph glyph-name="b" unicode="b" horiz-adv-x="558" 
d="M210 156q0 -76 17 -109.5t54.5 -33.5t66.5 56.5t29 159t-30.5 157.5t-71.5 55t-65 -47v-238zM373 1q-35 -10 -68.5 -10t-61.5 12.5t-44.5 27t-36.5 27t-38 12.5t-31.5 -20t-13.5 -50h-19v650h-50v20h200v-246q16 27 52.5 42.5t76.5 15.5q76 0 132.5 -66.5t56.5 -185.5
q0 -70 -23 -120t-60 -74.5t-72 -34.5z" />
    <glyph glyph-name="c" unicode="c" horiz-adv-x="503" 
d="M30 230q0 118 69 179t175.5 61t158.5 -53.5t37 -110.5q-8 -31 -33.5 -45.5t-55.5 -7.5q-63 15 -63 73q0 15 3.5 45.5t2.5 44.5t-6 22q-10 17 -47 13q-90 -14 -90 -220.5t147 -206.5q34 0 69 18t52 43l14 -10q-23 -38 -69 -61t-103 -23q-261 0 -261 239z" />
    <glyph glyph-name="d" unicode="d" horiz-adv-x="588" 
d="M229 -12q-81 0 -140 64t-59 181t58 183t141 66q41 0 77 -17t52 -51v236h-50v20h200v-650h50v-20h-200v46q-27 -58 -129 -58zM358 219v165q-27 54 -70.5 54t-74.5 -50t-31 -158.5t32 -158.5t77 -43q25 4 38 16q29 28 29 175z" />
    <glyph glyph-name="e" unicode="e" horiz-adv-x="515" 
d="M482 200h-302q10 -176 137 -176q34 0 77.5 16t63.5 45l14 -10q-22 -37 -75 -61t-105.5 -24t-94.5 10.5t-82 35.5t-62.5 75t-22.5 121q0 121 67 179.5t162.5 58.5t159 -64t63.5 -206zM179 220h163q0 92 -19.5 161t-62.5 69t-62 -66.5t-19 -152.5v-11z" />
    <glyph glyph-name="f" unicode="f" horiz-adv-x="432" 
d="M290 0h-250v20h50v420h-60v20h60q0 220 198 220q70 0 107 -29.5t37 -68.5q0 -24 -15.5 -37.5t-36.5 -13.5q-54 0 -54 64.5t-38 64.5q-28 0 -38 -48.5t-10 -151.5h130v-20h-130v-420h50v-20z" />
    <glyph glyph-name="g" unicode="g" horiz-adv-x="553" 
d="M162 93q0 -28 36 -32h172q89 0 124 -38t24.5 -94t-68.5 -103t-160 -47q-187 0 -240 55q-20 22 -17 51.5t22 48t43 25.5q-32 27 -32 67t24.5 71.5t56.5 50.5q-115 42 -115 151q0 81 74.5 125.5t168.5 44.5q45 0 90 -14q-23 31 -23 74t29.5 71.5t74 28.5t67 -23.5
t22.5 -52.5t-17.5 -49t-46 -20t-45.5 19t-17 38.5t7.5 34t7.5 16.5q-3 16 -20 9t-29.5 -28.5t-12.5 -49.5q0 -55 49 -88q86 -48 86 -133t-71 -128.5t-168 -43.5q-47 0 -83 10q-13 -22 -13 -47zM327 418q-20 31 -59.5 31t-57.5 -31.5t-18 -115.5t19 -118t57.5 -34t58.5 33
t20 118.5t-20 116.5zM364 -69h-168q-48 0 -81 17q-14 -72 36.5 -110.5t138.5 -38.5t146 44q27 20 30 40t-23 34t-79 14z" />
    <glyph glyph-name="h" unicode="h" horiz-adv-x="645" 
d="M565 20h50v-20h-250v20h50v280q0 71 -21 101t-63 30q-57 0 -91 -60v-351h50v-20h-250v20h50v630h-50v20h200v-262q19 27 59 45t88 18q178 0 178 -193v-258z" />
    <glyph glyph-name="i" unicode="i" horiz-adv-x="320" 
d="M240 20h50v-20h-250v20h50v420h-40v20h190v-440zM223.5 530.5q-25.5 -25.5 -62 -25.5t-62.5 25.5t-26 62t26 62.5t62.5 26t62 -26t25.5 -62.5t-25.5 -62z" />
    <glyph glyph-name="j" unicode="j" horiz-adv-x="332" 
d="M100 0v440h-50v20h200v-460q0 -220 -198 -220q-76 0 -110 28.5t-34 69.5q0 24 15.5 37.5t36.5 13.5q54 0 54 -64.5t38 -64.5q28 0 38 48.5t10 151.5zM236.5 655q25.5 -26 25.5 -62.5t-25.5 -62t-62 -25.5t-62.5 25.5t-26 62t26 62.5t62.5 26t62 -26z" />
    <glyph glyph-name="k" unicode="k" horiz-adv-x="618" 
d="M608 20v-20q-136 0 -188.5 19.5t-103.5 97.5l-63 97l-13 -12v-182h50v-20h-250v20h50v630h-50v20h200v-438l209 208h-81v20h190v-20h-79l-120 -119l120 -180q81 -121 129 -121z" />
    <glyph glyph-name="l" unicode="l" horiz-adv-x="320" 
d="M240 20h50v-20h-250v20h50v630h-50v20h200v-650z" />
    <glyph glyph-name="m" unicode="m" horiz-adv-x="960" 
d="M880 20h50v-20h-250v20h50v280q0 71 -21 101t-63 30q-24 0 -50 -14t-43 -39q12 -36 12 -100v-258h50v-20h-260v20h60v280q0 71 -21 101t-63 30q-57 0 -91 -60v-351h50v-20h-250v20h50v420h-50v20h200v-52q19 26 59.5 44.5t87.5 18.5q119 0 155 -67q26 32 69 49.5t91 17.5
q178 0 178 -193v-258z" />
    <glyph glyph-name="n" unicode="n" horiz-adv-x="645" 
d="M565 20h50v-20h-250v20h50v280q0 71 -21 101t-63 30q-57 0 -91 -60v-351h50v-20h-250v20h50v420h-50v20h200v-52q19 26 59.5 44.5t87.5 18.5q178 0 178 -193v-258z" />
    <glyph glyph-name="o" unicode="o" horiz-adv-x="564" 
d="M281 10q54 0 77 51t23 168.5t-23 169t-77 51.5t-76 -51.5t-22 -169.5t22 -168.5t76 -50.5zM107 52q-77 62 -77 176q0 61 22.5 109t60 76t80.5 42.5t88 14.5t88.5 -14.5t81 -42.5t60.5 -76t23 -108t-23 -107t-61 -75q-76 -57 -171 -57t-172 62z" />
    <glyph glyph-name="p" unicode="p" horiz-adv-x="578" 
d="M220 241v-165q27 -54 70.5 -54t74.5 50t31 160.5t-24 155t-73 44.5t-64 -40t-15 -151zM220 414q34 58 122 58t147 -64t59 -181t-58 -183t-141 -66q-41 0 -77 17t-52 51v-236h50v-20h-200v650h-50v20h200v-46z" />
    <glyph glyph-name="q" unicode="q" horiz-adv-x="578" 
d="M358 460h200v-20h-50v-630h50v-20h-250v20h50v236q-16 -34 -52 -51t-77 -17q-83 0 -141 66t-58 183t59 181t147 64t122 -58v46zM358 241q0 111 -15 151t-64 40t-73 -44.5t-24 -155t31 -160.5t74.5 -50t70.5 54v165z" />
    <glyph glyph-name="r" unicode="r" horiz-adv-x="483" 
d="M290 0h-250v20h50v420h-50v20h200v-119q9 49 32.5 80t52 41t55 10t51 -9.5t36.5 -38t1 -57t-38.5 -40.5t-50.5 -3t-33 24.5t-14 29.5q-10 37 -27 37q-19 0 -42 -65.5t-23 -138.5v-191h50v-20z" />
    <glyph glyph-name="s" unicode="s" horiz-adv-x="475" 
d="M265 8q104 0 104 57q0 32 -36 52.5t-87 33.5t-100.5 30t-82 54t-26.5 97t61.5 99t137 39t131.5 -26t56 -70q4 -27 -8.5 -50t-41 -24t-47 15t-17.5 37t16 37.5t15 26.5q0 17 -32.5 25.5t-75 8.5t-69.5 -19t-27 -47t33.5 -48t81.5 -32.5t95.5 -28t81 -49.5t33.5 -86
q0 -69 -49 -110.5t-148 -41.5t-160.5 30t-67.5 77q-4 27 9 50t41 24t46.5 -15t17.5 -37t-16 -37.5t-15 -26.5q0 -20 46.5 -32.5t99.5 -12.5z" />
    <glyph glyph-name="t" unicode="t" horiz-adv-x="361" 
d="M224 440v-244q0 -86 7 -104.5t15 -31.5q15 -26 52.5 -26t52.5 10v-20q-48 -34 -105 -34q-84 0 -128 40t-44 143v267h-74v20h74q48 8 85 46.5t51 106.5h14v-153h116v-20h-116z" />
    <glyph glyph-name="u" unicode="u" horiz-adv-x="615" 
d="M385 0v53q-19 -27 -59.5 -45.5t-87.5 -18.5q-178 0 -178 193v258h-50v20h200v-300q0 -71 21 -101t63 -30q56 0 91 60v351h-50v20h200v-440h50v-20h-200z" />
    <glyph glyph-name="v" unicode="v" horiz-adv-x="536" 
d="M526 460v-20h-49l-187 -440h-18l-222 440h-40v20h260v-20h-50l124 -260l111 260h-79v20h150z" />
    <glyph glyph-name="w" unicode="w" horiz-adv-x="830" 
d="M10 440v20h270v-20h-53l108 -242l65 163l-33 79h-37v20h250v-20h-44l108 -242l93 242h-80v20h163v-20h-60l-169 -440h-21l-158 331l-131 -331h-21l-203 440h-47z" />
    <glyph glyph-name="x" unicode="x" horiz-adv-x="576" 
d="M182 0h-169v20h60l141 187l-174 233h-40v20h263v-20h-50l114 -153l122 153h-80v20h168v-20h-60l-138 -170l187 -250h40v-20h-262v20h50l-126 168l-127 -168h81v-20z" />
    <glyph glyph-name="y" unicode="y" horiz-adv-x="562" 
d="M195 -194.5q-30 -25.5 -80 -25.5t-78 21.5t-28 57t20.5 56.5t49.5 21t49 -11t28 -24q22 -35 41.5 -35t34.5 34l42 99l-234 441h-40v20h269v-20h-50l134 -264l115 264h-80v20h164v-20h-60l-240 -551q-27 -58 -57 -83.5z" />
    <glyph glyph-name="z" unicode="z" horiz-adv-x="502" 
d="M10 0v15l283 425h-59q-177 0 -177 -165h-16v185h421v-12l-280 -428h61q54 0 87 6t60 24q52 35 52 149h14v-199h-446z" />
    <glyph glyph-name="braceleft" unicode="{" horiz-adv-x="288" 
d="M216 245q25 -25 25 -56t-13.5 -90t-13.5 -91.5t13.5 -49t50.5 -16.5v-20h-66q-50 0 -86 30t-36 92q0 27 14 79t14 68q0 74 -88 74v15q88 0 88 74q0 16 -14 68t-14 79q0 62 36.5 95t85.5 33h66v-20q-36 0 -50 -19t-14 -52t13.5 -92t13.5 -89t-26 -57.5t-70 -27.5
q46 -2 71 -27z" />
    <glyph glyph-name="bar" unicode="|" horiz-adv-x="140" 
d="M60 -99v684h20v-684h-20z" />
    <glyph glyph-name="braceright" unicode="}" horiz-adv-x="288" 
d="M60.5 99q-13.5 59 -13.5 90t25 56t71 27q-44 0 -70 27.5t-26 57.5t13.5 89t13.5 92t-14 52t-50 19v20h66q49 0 85.5 -33t36.5 -95q0 -27 -14 -79t-14 -68q0 -74 88 -74v-15q-88 0 -88 -74q0 -16 14 -68t14 -79q0 -62 -36 -92t-86 -30h-66v20q37 0 50.5 16.5t13.5 49
t-13.5 91.5z" />
    <glyph glyph-name="asciitilde" unicode="~" horiz-adv-x="484" 
d="M30 193q0 51 39 86.5t89 35.5t119.5 -29t100 -29t42.5 14t12 35l-1 18h16q7 -19 7 -45q0 -50 -39.5 -86t-90 -36t-120 29t-98.5 29t-41.5 -14t-12.5 -35l1 -18h-16q-7 22 -7 45z" />
    <glyph glyph-name="exclamdown" unicode="&#xa1;" horiz-adv-x="252" 
d="M180.5 225.5q36.5 -94.5 36.5 -135.5t-23.5 -69.5t-67.5 -28.5t-67.5 28t-23.5 70t37 135.5t46 158.5h16q10 -64 46.5 -158.5zM72.5 546.5q22.5 22.5 53 22.5t53 -22.5t22.5 -53.5t-22.5 -53t-53 -22t-53 22.5t-22.5 53t22.5 53z" />
    <glyph glyph-name="cent" unicode="&#xa2;" horiz-adv-x="415" 
d="M216 164q27 -22 63.5 -22t57.5 23.5t26 57.5h12q0 -58 -40.5 -96t-109.5 -38q-27 0 -46 4l-35 -66l-18 9l33 62q-56 15 -87.5 59t-31.5 113t51 121t141 52q58 0 94 -28l32 61l17 -8l-35 -67q23 -26 23 -58t-15.5 -49t-36 -17t-32.5 7zM264 297q-7 14 -7 29t10 25.5
t21 13.5q32 8 32 23t-16.5 26t-43.5 11q-42 0 -66 -42.5t-24 -105.5t31 -99z" />
    <glyph glyph-name="sterling" unicode="&#xa3;" horiz-adv-x="503" 
d="M472 141q0 -63 -29.5 -107.5t-90.5 -44.5q-42 0 -80.5 21.5t-72 42.5t-62 21t-47.5 -21t-26 -54h-20q0 49 19.5 85t39 66.5t19.5 62.5t-9 59h-67v20h59q-2 5 -10 18.5t-11 21t-8 20.5q-9 23 -9 60q0 79 58.5 127.5t144 48.5t132.5 -39.5t47 -103.5q0 -39 -22 -64t-56 -25
t-53.5 19t-19.5 46t14.5 43t31.5 20q47 12 47 34q0 17 -23.5 31.5t-65 14.5t-68 -34t-26.5 -77.5t17 -88.5t18 -72h137v-20h-138q-9 -77 -113 -137l3 -6q32 21 65 21t81.5 -13t81.5 -13t61 20t33 60h10q8 -32 8 -63z" />
    <glyph glyph-name="currency" unicode="&#xa4;" horiz-adv-x="448" 
d="M224 132q44 0 75.5 31.5t31.5 75.5t-31.5 75t-75.5 31t-75.5 -31t-31.5 -75t31.5 -75.5t75.5 -31.5zM321 321q30 -37 30 -84t-33 -83l90 -90l-14 -14l-91 90q-35 -28 -79 -28t-80 28l-90 -90l-14 14l90 90q-33 36 -33 83.5t30 82.5l-87 88l14 14l87 -87q35 30 82.5 30
t82.5 -30l88 87l14 -14z" />
    <glyph glyph-name="yen" unicode="&#xa5;" horiz-adv-x="616" 
d="M456 0h-281v20h66v165h-150v20h150v26l-40 69h-110v20h99l-128 220h-52v20h280v-20h-49l140 -252l130 252h-80v20h175v-20h-70l-113 -220h123v-20h-134l-21 -42v-53h155v-20h-155v-165h65v-20z" />
    <glyph glyph-name="brokenbar" unicode="&#xa6;" horiz-adv-x="140" 
d="M60 333v227h20v-227h-20zM60 0v227h20v-227h-20z" />
    <glyph glyph-name="section" unicode="&#xa7;" horiz-adv-x="389" 
d="M195 -10q-34 0 -69 14t-43 14q-18 0 -18 -21h-16v124h20q33 -111 126 -111q37 0 51.5 13t5.5 30.5t-35 30.5l-113 53q-44 21 -64 55.5t-15.5 67.5t29.5 61t64 38q-70 43 -59 116q7 42 42 68.5t94 26.5q28 0 65 -14t45 -14q21 0 21 20h15v-114h-20q-16 52 -50 77t-69 25
t-47.5 -13t-4 -30.5t33.5 -29.5l112 -54q45 -21 64 -56t12.5 -68t-34 -60.5t-68.5 -37.5q72 -41 61 -116q-6 -43 -41 -69t-95 -26zM147 256l99 -43q33 3 44.5 19.5t-1.5 37t-45 33.5l-102 44q-32 -3 -42.5 -20t2.5 -37t45 -34z" />
    <glyph glyph-name="dieresis" unicode="&#xa8;" horiz-adv-x="696" 
d="M478.5 627q17.5 -18 17.5 -44.5t-17.5 -44t-43.5 -17.5t-44 18t-18 43.5t18 44t44 18.5t43.5 -18zM307 626.5q18 -18.5 18 -44t-18 -43.5t-43.5 -18t-44.5 18t-19 43.5t19 44t44.5 18.5t43.5 -18.5z" />
    <glyph glyph-name="copyright" unicode="&#xa9;" horiz-adv-x="602" 
d="M449 240q0 -53 -37 -87t-106.5 -34t-114.5 42.5t-45 113t46 117.5t128 47q54 0 86 -26.5t32 -59.5t-14 -48.5t-35.5 -15.5t-34 12t-12.5 29t9 26.5t19 11.5q29 7 29 21t-14.5 24t-39.5 10q-38 0 -59.5 -38.5t-21.5 -95t27.5 -89.5t66 -33t57.5 21.5t23 51.5h11zM301 533
q-103 0 -177 -74t-74 -177.5t73.5 -177.5t177.5 -74t177.5 74t73.5 177.5t-74 177.5t-177 74zM492.5 473.5q79.5 -79.5 79.5 -192t-79 -192t-192 -79.5t-192 79.5t-79 192t79.5 192t191.5 79.5t191.5 -79.5z" />
    <glyph glyph-name="guillemotleft" unicode="&#xab;" horiz-adv-x="434" 
d="M242 88l-12 -12q-153 123 -164 133q-18 16 0 34l164 133l12 -12q-47 -98 -77 -138q28 -42 77 -138zM412 88l-12 -12q-153 123 -164 133q-18 16 0 34l164 133l12 -12q-47 -98 -77 -138q19 -29 77 -138z" />
    <glyph glyph-name="logicalnot" unicode="&#xac;" horiz-adv-x="505" 
d="M465 245v-246h-20v226h-405v20h425z" />
    <glyph glyph-name="registered" unicode="&#xae;" horiz-adv-x="602" 
d="M279 279v-117h31v-19h-125v19h28v255h-28v19h105q133 0 133 -76q0 -64 -91 -70q38 0 59 -21t26 -47q13 -68 48 -68l1 -7q-20 -11 -54 -11t-52 22.5t-22.5 49t-18.5 49t-40 22.5zM279 418v-120q74 0 74 59q0 33 -17.5 47t-56.5 14zM492.5 473.5q79.5 -79.5 79.5 -192
t-79 -192t-192 -79.5t-192 79.5t-79 192t79.5 192t191.5 79.5t191.5 -79.5zM301 533q-103 0 -177 -74t-74 -177.5t73.5 -177.5t177.5 -74t177.5 74t73.5 177.5t-74 177.5t-177 74z" />
    <glyph glyph-name="macron" unicode="&#xaf;" horiz-adv-x="600" 
d="M400 607v-50h-200v50h200z" />
    <glyph glyph-name="degree" unicode="&#xb0;" horiz-adv-x="415" 
d="M207 610q22 0 30.5 16.5t8.5 66.5t-8.5 66.5t-30.5 16.5t-30 -16t-8 -67t8 -67t30 -16zM289 614q-26 -24 -82.5 -24t-81.5 24t-25 79.5t25 79t81.5 23.5t82.5 -24t26 -79t-26 -79z" />
    <glyph glyph-name="plusminus" unicode="&#xb1;" horiz-adv-x="505" 
d="M465 39v-20h-425v20h425zM262 302h203v-20h-203v-193h-20v193h-202v20h202v192h20v-192z" />
    <glyph glyph-name="twosuperior" unicode="&#xb2;" horiz-adv-x="259" 
d="M216 412q3 -12 3 -31t-12 -37t-34.5 -18t-52.5 15t-43 15q-24 0 -24 -26h-13q3 30 18.5 51.5t40.5 45.5t38 42t13 37t-11 31.5t-28 12.5t-28.5 -5.5t-11.5 -12.5q0 -4 9 -6q25 -6 25 -28q0 -11 -7.5 -18.5t-21 -7.5t-22.5 10t-9 30.5t21 36.5t58.5 16t64 -16.5
t26.5 -45.5t-17 -47.5t-38 -25.5q-61 -18 -76 -40q11 8 24.5 8t33 -5t29.5 -5q38 0 41 24h4z" />
    <glyph glyph-name="threesuperior" unicode="&#xb3;" horiz-adv-x="258" 
d="M113 567q91 0 91 -55q0 -22 -17.5 -37.5t-49.5 -16.5q36 -1 58.5 -17t22.5 -46.5t-27 -49.5t-69.5 -19t-62 15.5t-19.5 36.5q0 40 32 40q13 0 21 -7.5t8 -18.5q0 -16 -19 -21t-19 -12q0 -9 11.5 -14t30.5 -5t33 14.5t14 43t-12.5 40.5t-45.5 12h-6v14h6q26 0 37 14.5
t11 33.5t-11 31t-28 12t-26 -6t-9 -14q0 -6 16 -11t16 -16.5t-7 -18.5t-18 -7q-29 0 -29 32q0 23 18 38t49 15z" />
    <glyph glyph-name="acute" unicode="&#xb4;" horiz-adv-x="538" 
d="M200 511q17 25 21.5 62t18.5 56.5t35 25t37 -4.5q21 -9 26 -33.5t-10 -45.5t-55 -32t-59 -38z" />
    <glyph glyph-name="uni00B5" unicode="&#xb5;" horiz-adv-x="595" 
d="M535 20h50v-20h-200v53q-19 -27 -59.5 -45.5t-73.5 -18.5t-42 1v-200h-150v650h-50v20h200v-300q0 -71 21 -101t63 -30q56 0 91 60v351h-50v20h200v-440z" />
    <glyph glyph-name="paragraph" unicode="&#xb6;" horiz-adv-x="467" 
d="M447 540h-60v-520h60v-20h-80v540h-160v-540h-80v20h60v214q-167 3 -167 168q0 84 41 120.5t126 37.5h260v-20z" />
    <glyph glyph-name="periodcentered" unicode="&#xb7;" horiz-adv-x="225" 
d="M183.5 174.5q-29.5 -29.5 -70 -29.5t-70 29.5t-29.5 70t29.5 70t70 29.5t70 -29.5t29.5 -70t-29.5 -70z" />
    <glyph glyph-name="cedilla" unicode="&#xb8;" horiz-adv-x="588" 
d="M322 4l-45 -81q50 -1 82.5 -23.5t28.5 -59.5q-8 -82 -101 -78q-29 1 -51 12.5t-29 22.5l-7 11l16 15q23 -40 59.5 -37.5t44.5 43.5q6 36 -19 57.5t-59 21.5l52 96h28z" />
    <glyph glyph-name="onesuperior" unicode="&#xb9;" horiz-adv-x="213" 
d="M145 335h28v-18h-130v18h32v185l-33 -12l-2 15l80 37h25v-225z" />
    <glyph glyph-name="guillemotright" unicode="&#xbb;" horiz-adv-x="423" 
d="M52 76l-12 12q50 98 77 138q-29 40 -77 138l12 12q153 -122 164 -133q18 -18 0 -34zM212 76l-12 12q50 98 77 138q-29 40 -77 138l12 12q153 -122 164 -133q18 -18 0 -34z" />
    <glyph glyph-name="onequarter" unicode="&#xbc;" horiz-adv-x="539" 
d="M487 115h12v-77h-12v34h-37v-62h33v-10h-140v10h32v62h-117v10l142 209h50v-209h37v33zM375 82v154l-104 -154h104zM400 561h21l-300 -561h-21zM194 269h-150v10h40v241l-41 -16l-3 10l101 46h18v-281h35v-10z" />
    <glyph glyph-name="onehalf" unicode="&#xbd;" horiz-adv-x="559" 
d="M515 103q4 -13 4 -38t-14.5 -47.5t-43 -22.5t-66 19t-53.5 19q-29 0 -37 -33h-10q3 37 23 64.5t51 57t47.5 52.5t16.5 49t-13.5 42.5t-35.5 16.5t-36 -6.5t-14 -16.5q0 -8 21.5 -17.5t21.5 -27.5q0 -36 -36 -36q-18 0 -29 12.5t-11 37.5t26 45.5t73.5 20.5t80.5 -20.5
t33 -56.5t-21.5 -59.5t-48.5 -31.5q-80 -26 -96 -50q13 10 31.5 10t43 -6.5t38.5 -6.5t23 1.5t17 8.5t9 20h5zM400 561h21l-300 -561h-21zM194 269h-150v10h40v241l-41 -16l-3 10l101 46h18v-281h35v-10z" />
    <glyph glyph-name="threequarters" unicode="&#xbe;" horiz-adv-x="599" 
d="M547 115h12v-77h-12v34h-37v-62h33v-10h-140v10h32v62h-117v10l142 209h50v-209h37v33zM435 82v154l-104 -154h104zM450 561h21l-300 -561h-21zM100 428h8q32 0 46 19.5t14 44t-14 40.5t-35.5 16t-32.5 -7t-11 -15.5t10 -11.5t20 -9.5t10 -20.5t-8.5 -22.5t-24 -8.5
t-25.5 11t-10 34.5t22.5 42.5t61.5 19q114 0 114 -69q0 -28 -22 -47t-62 -21q46 0 74 -20t28 -58.5t-34 -62.5t-87 -24t-77.5 19.5t-24.5 45.5q0 51 41 51q16 0 25.5 -10t9.5 -25.5t-12 -23t-23.5 -11t-11.5 -12.5t14.5 -15.5t38 -6.5t41.5 21t18 57t-16 53t-57 17h-8v10z
" />
    <glyph glyph-name="questiondown" unicode="&#xbf;" horiz-adv-x="451" 
d="M394.5 34.5q-53.5 -42.5 -146 -42.5t-155 39.5t-56.5 125.5q2 37 22 64.5t43 39.5t54.5 27t50.5 30q44 35 44 85h17q36 -53 36 -99q0 -35 -56 -77q-22 -16 -39.5 -42t-17.5 -56q0 -56 29.5 -84.5t68 -28.5t62.5 15t24 30.5t-11.5 23.5t-25.5 12.5t-25.5 20.5t-11.5 41.5
t20.5 44.5t52 19t53 -24.5t21.5 -61.5q0 -60 -53.5 -102.5zM202 565.5q23 22.5 53.5 22.5t53 -22.5t22.5 -53t-22.5 -53t-53.5 -22.5t-53.5 22.5t-22.5 53t23 53z" />
    <glyph glyph-name="Agrave" unicode="&#xc0;" horiz-adv-x="643" 
d="M633 20v-20h-263v20h59l-67 139h-202l-58 -139h79v-20h-171v20h67l229 550h25l254 -550h48zM169 180h183l-98 204zM332 611l-14 -10q-19 27 -59 38t-55 32t-10 45.5t26 33.5q16 10 37 4.5t35 -25t18.5 -56.5t21.5 -62z" />
    <glyph glyph-name="Aacute" unicode="&#xc1;" horiz-adv-x="643" 
d="M633 20v-20h-263v20h59l-67 139h-202l-58 -139h79v-20h-171v20h67l229 550h25l254 -550h48zM169 180h183l-98 204zM321 601l-14 10q17 25 21.5 62t18.5 56.5t35 25t37 -4.5q21 -9 26 -33.5t-10 -45.5t-55 -32t-59 -38z" />
    <glyph glyph-name="Acircumflex" unicode="&#xc2;" horiz-adv-x="643" 
d="M633 20v-20h-263v20h59l-67 139h-202l-58 -139h79v-20h-171v20h67l229 550h25l254 -550h48zM169 180h183l-98 204zM321 654l-88 -40l-9 9l87 128h19l88 -128l-9 -9z" />
    <glyph glyph-name="Atilde" unicode="&#xc3;" horiz-adv-x="643" 
d="M633 20v-20h-263v20h59l-67 139h-202l-58 -139h79v-20h-171v20h67l229 550h25l254 -550h48zM169 180h183l-98 204zM400 721h20q0 -96 -68 -96q-20 0 -46 16t-40 16q-24 0 -24 -27h-20q0 96 67 96q19 0 45 -15.5t40 -15.5q26 0 26 26z" />
    <glyph glyph-name="Adieresis" unicode="&#xc4;" horiz-adv-x="643" 
d="M633 20v-20h-263v20h59l-67 139h-202l-58 -139h79v-20h-171v20h67l229 550h25l254 -550h48zM169 180h183l-98 204zM278 639q-18 -18 -43.5 -18t-44.5 18t-19 43.5t19 44t44.5 18.5t43.5 -18.5t18 -44t-18 -43.5zM449.5 638.5q-17.5 -17.5 -43.5 -17.5t-44 18t-18 43.5
t18 44t44 18.5t43.5 -18t17.5 -44.5t-17.5 -44z" />
    <glyph glyph-name="Aring" unicode="&#xc5;" horiz-adv-x="643" 
d="M633 20v-20h-263v20h59l-67 139h-202l-58 -139h79v-20h-171v20h67l229 550h25l254 -550h48zM169 180h183l-98 204zM375 623q-25 -25 -59.5 -25t-59 24.5t-24.5 59.5t24.5 60t59 25t59.5 -25.5t25 -59.5t-25 -59zM315 727q-19 0 -31 -13t-12 -31.5t12.5 -33t30.5 -14.5
t31 14.5t13 33t-12.5 31.5t-31.5 13z" />
    <glyph glyph-name="AE" unicode="&#xc6;" horiz-adv-x="820" 
d="M780 190h20v-190h-460v20h60v169h-200l-102 -169h73v-20h-171v20h71l312 519h-63v21h470v-170h-20q0 89 -35.5 119.5t-114.5 30.5h-70v-240h20q72 0 91 18t19 72h20v-200h-20q0 56 -19 73t-91 17h-20v-260h80q150 0 150 170zM400 210v312l-188 -312h188z" />
    <glyph glyph-name="Ccedilla" unicode="&#xc7;" horiz-adv-x="560" 
d="M333 -15q-149 0 -228.5 71.5t-79.5 224t77.5 222.5t205.5 70q69 0 134 -37q21 -13 34.5 -13t21.5 12.5t8 24.5h19v-223h-20q0 80 -51 148t-146 68q-53 0 -87.5 -62t-34.5 -212t34.5 -212t108 -62t124 46t62.5 130h20q-12 -89 -58.5 -137t-113.5 -57l-36 -64
q50 -1 82.5 -23.5t28.5 -59.5q-8 -82 -101 -78q-29 1 -51 12.5t-29 22.5l-7 11l16 15q23 -40 59.5 -37.5t44.5 43.5q6 36 -19 57.5t-59 21.5l42 77h-1z" />
    <glyph glyph-name="Egrave" unicode="&#xc8;" horiz-adv-x="545" 
d="M329 611l-14 -10q-19 27 -59 38t-55 32t-10 45.5t26 33.5q16 10 37 4.5t35 -25t18.5 -56.5t21.5 -62zM340 20q150 0 150 170h20v-190h-470v20h50v520h-50v20h460v-170h-20q0 89 -35.5 119.5t-114.5 30.5h-90v-240h40q72 0 91 18t19 72h20v-200h-20q0 56 -19 73t-91 17
h-40v-260h100z" />
    <glyph glyph-name="Eacute" unicode="&#xc9;" horiz-adv-x="545" 
d="M258 611q17 25 21.5 62t18.5 56.5t35 25t37 -4.5q21 -9 26 -33.5t-10 -45.5t-55 -32t-59 -38zM340 20q150 0 150 170h20v-190h-470v20h50v520h-50v20h460v-170h-20q0 89 -35.5 119.5t-114.5 30.5h-90v-240h40q72 0 91 18t19 72h20v-200h-20q0 56 -19 73t-91 17h-40v-260
h100z" />
    <glyph glyph-name="Ecircumflex" unicode="&#xca;" horiz-adv-x="545" 
d="M207 614l-9 9l87 128h19l88 -128l-9 -9l-88 40zM340 20q150 0 150 170h20v-190h-470v20h50v520h-50v20h460v-170h-20q0 89 -35.5 119.5t-114.5 30.5h-90v-240h40q72 0 91 18t19 72h20v-200h-20q0 56 -19 73t-91 17h-40v-260h100z" />
    <glyph glyph-name="Edieresis" unicode="&#xcb;" horiz-adv-x="545" 
d="M247 726.5q18 -18.5 18 -44t-18 -43.5t-43.5 -18t-44.5 18t-19 43.5t19 44t44.5 18.5t43.5 -18.5zM418.5 727q17.5 -18 17.5 -44.5t-17.5 -44t-43.5 -17.5t-44 18t-18 43.5t18 44t44 18.5t43.5 -18zM340 20q150 0 150 170h20v-190h-470v20h50v520h-50v20h460v-170h-20
q0 89 -35.5 119.5t-114.5 30.5h-90v-240h40q72 0 91 18t19 72h20v-200h-20q0 56 -19 73t-91 17h-40v-260h100z" />
    <glyph glyph-name="Igrave" unicode="&#xcc;" horiz-adv-x="310" 
d="M189 611l-14 -10q-19 27 -59 38t-55 32t-10 45.5t26 33.5q16 10 37 4.5t35 -25t18.5 -56.5t21.5 -62zM290 0h-250v20h50v520h-50v20h250v-20h-50v-520h50v-20z" />
    <glyph glyph-name="Iacute" unicode="&#xcd;" horiz-adv-x="310" 
d="M122 611q17 25 21.5 62t18.5 56.5t35 25t37 -4.5q21 -9 26 -33.5t-10 -45.5t-55 -32t-59 -38zM290 0h-250v20h50v520h-50v20h250v-20h-50v-520h50v-20z" />
    <glyph glyph-name="Icircumflex" unicode="&#xce;" horiz-adv-x="310" 
d="M67 614l-9 9l87 128h19l88 -128l-9 -9l-88 40zM290 0h-250v20h50v520h-50v20h250v-20h-50v-520h50v-20z" />
    <glyph glyph-name="Idieresis" unicode="&#xcf;" horiz-adv-x="310" 
d="M114 725.5q18 -18.5 18 -44t-18 -43.5t-43.5 -18t-44.5 18t-19 43.5t19 44t44.5 18.5t43.5 -18.5zM285.5 726q17.5 -18 17.5 -44.5t-17.5 -44t-43.5 -17.5t-44 18t-18 43.5t18 44t44 18.5t43.5 -18zM290 0h-250v20h50v520h-50v20h250v-20h-50v-520h50v-20z" />
    <glyph glyph-name="Eth" unicode="&#xd0;" horiz-adv-x="625" 
d="M40 560h250q74 0 133.5 -24.5t96.5 -64.5q75 -83 75 -188q0 -142 -75 -212.5t-230 -70.5h-250v20h50v258h-50v20h50v242h-50v20zM240 278v-258q108 0 156 58.5t48 191t-52 201.5t-152 69v-242h117v-20h-117z" />
    <glyph glyph-name="Ntilde" unicode="&#xd1;" horiz-adv-x="598" 
d="M100 20h80v-20h-160v20h60v476q-32 44 -60 44v20h187l281 -333v313h-80v20h170v-20h-70v-550h-20l-388 481v-451zM237 630h-20q0 96 67 96q19 0 45 -15.5t40 -15.5q26 0 26 26h20q0 -96 -68 -96q-20 0 -46 16t-40 16q-24 0 -24 -27z" />
    <glyph glyph-name="Ograve" unicode="&#xd2;" horiz-adv-x="622" 
d="M326 611l-14 -10q-19 27 -59 38t-55 32t-10 45.5t26 33.5q16 10 37 4.5t35 -25t18.5 -56.5t21.5 -62zM406.5 480.5q-34.5 71.5 -95 71.5t-95.5 -72t-35 -201t33.5 -199t96.5 -70q130 0 130 271q0 128 -34.5 199.5zM521 64q-81 -74 -211 -74t-210 73.5t-80 211t80 217.5
t212.5 80t211 -79.5t78.5 -217t-81 -211.5z" />
    <glyph glyph-name="Oacute" unicode="&#xd3;" horiz-adv-x="622" 
d="M298 611q17 25 21.5 62t18.5 56.5t35 25t37 -4.5q21 -9 26 -33.5t-10 -45.5t-55 -32t-59 -38zM406.5 480.5q-34.5 71.5 -95 71.5t-95.5 -72t-35 -201t33.5 -199t96.5 -70q130 0 130 271q0 128 -34.5 199.5zM521 64q-81 -74 -211 -74t-210 73.5t-80 211t80 217.5t212.5 80
t211 -79.5t78.5 -217t-81 -211.5z" />
    <glyph glyph-name="Ocircumflex" unicode="&#xd4;" horiz-adv-x="622" 
d="M223 614l-9 9l87 128h19l88 -128l-9 -9l-88 40zM406.5 480.5q-34.5 71.5 -95 71.5t-95.5 -72t-35 -201t33.5 -199t96.5 -70q130 0 130 271q0 128 -34.5 199.5zM521 64q-81 -74 -211 -74t-210 73.5t-80 211t80 217.5t212.5 80t211 -79.5t78.5 -217t-81 -211.5z" />
    <glyph glyph-name="Otilde" unicode="&#xd5;" horiz-adv-x="622" 
d="M232 630h-20q0 96 67 96q19 0 45 -15.5t40 -15.5q26 0 26 26h20q0 -96 -68 -96q-20 0 -46 16t-40 16q-24 0 -24 -27zM406.5 480.5q-34.5 71.5 -95 71.5t-95.5 -72t-35 -201t33.5 -199t96.5 -70q130 0 130 271q0 128 -34.5 199.5zM521 64q-81 -74 -211 -74t-210 73.5
t-80 211t80 217.5t212.5 80t211 -79.5t78.5 -217t-81 -211.5z" />
    <glyph glyph-name="Odieresis" unicode="&#xd6;" horiz-adv-x="622" 
d="M266 726.5q18 -18.5 18 -44t-18 -43.5t-43.5 -18t-44.5 18t-19 43.5t19 44t44.5 18.5t43.5 -18.5zM437.5 727q17.5 -18 17.5 -44.5t-17.5 -44t-43.5 -17.5t-44 18t-18 43.5t18 44t44 18.5t43.5 -18zM406.5 480.5q-34.5 71.5 -95 71.5t-95.5 -72t-35 -201t33.5 -199
t96.5 -70q130 0 130 271q0 128 -34.5 199.5zM521 64q-81 -74 -211 -74t-210 73.5t-80 211t80 217.5t212.5 80t211 -79.5t78.5 -217t-81 -211.5z" />
    <glyph glyph-name="multiply" unicode="&#xd7;" horiz-adv-x="395" 
d="M212 230l143 -143l-14 -14l-143 143l-144 -143l-14 14l143 143l-142 143l14 14l143 -143l142 143l15 -14z" />
    <glyph glyph-name="Oslash" unicode="&#xd8;" horiz-adv-x="702" 
d="M570 486q72 -80 72 -214t-81 -208t-210.5 -74t-206.5 70l-70 -70l-14 15l69 69q-69 77 -69 207.5t80 210.5t209 80t206 -72l72 72l15 -14zM351 552q-60 0 -95 -72t-35 -199q0 -63 7 -108l241 241q-31 138 -118 138zM351 10q130 0 130 271q0 57 -8 108l-240 -240
q27 -139 118 -139z" />
    <glyph glyph-name="Ugrave" unicode="&#xd9;" horiz-adv-x="605" 
d="M396 611l-14 -10q-19 27 -59 38t-55 32t-10 45.5t26 33.5q16 10 37 4.5t35 -25t18.5 -56.5t21.5 -62zM545 244q0 -259 -218 -259q-121 0 -189 62t-68 187v306h-50v20h260v-20h-50v-317q0 -209 140 -209q57 0 103.5 56.5t46.5 153.5v316h-79v20h154v-20h-50v-296z" />
    <glyph glyph-name="Uacute" unicode="&#xda;" horiz-adv-x="605" 
d="M338 611q17 25 21.5 62t18.5 56.5t35 25t37 -4.5q21 -9 26 -33.5t-10 -45.5t-55 -32t-59 -38zM545 244q0 -259 -218 -259q-121 0 -189 62t-68 187v306h-50v20h260v-20h-50v-317q0 -209 140 -209q57 0 103.5 56.5t46.5 153.5v316h-79v20h154v-20h-50v-296z" />
    <glyph glyph-name="Ucircumflex" unicode="&#xdb;" horiz-adv-x="605" 
d="M269 614l-9 9l87 128h19l88 -128l-9 -9l-88 40zM545 244q0 -259 -218 -259q-121 0 -189 62t-68 187v306h-50v20h260v-20h-50v-317q0 -209 140 -209q57 0 103.5 56.5t46.5 153.5v316h-79v20h154v-20h-50v-296z" />
    <glyph glyph-name="Udieresis" unicode="&#xdc;" horiz-adv-x="605" 
d="M322 726.5q18 -18.5 18 -44t-18 -43.5t-43.5 -18t-44.5 18t-19 43.5t19 44t44.5 18.5t43.5 -18.5zM493.5 727q17.5 -18 17.5 -44.5t-17.5 -44t-43.5 -17.5t-44 18t-18 43.5t18 44t44 18.5t43.5 -18zM545 244q0 -259 -218 -259q-121 0 -189 62t-68 187v306h-50v20h260v-20
h-50v-317q0 -209 140 -209q57 0 103.5 56.5t46.5 153.5v316h-79v20h154v-20h-50v-296z" />
    <glyph glyph-name="Yacute" unicode="&#xdd;" horiz-adv-x="616" 
d="M319 611q17 25 21.5 62t18.5 56.5t35 25t37 -4.5q21 -9 26 -33.5t-10 -45.5t-55 -32t-59 -38zM431 0h-230v20h40v211l-179 309h-52v20h280v-20h-49l140 -252l130 252h-80v20h175v-20h-70l-145 -282v-238h40v-20z" />
    <glyph glyph-name="Thorn" unicode="&#xde;" horiz-adv-x="543" 
d="M240 117q82 0 112 35.5t30 124.5t-30 127.5t-112 38.5v-326zM533 274q0 -90 -74 -137t-219 -40v-77h50v-20h-250v20h50v520h-50v20h250v-20h-50v-77q293 14 293 -189z" />
    <glyph glyph-name="germandbls" unicode="&#xdf;" horiz-adv-x="694" 
d="M359 659q-119 0 -119 -199v-440h50v-20h-250v20h50v420h-50v20h50q0 77 41.5 128.5t99 71.5t135 20t146 -21.5t82.5 -67.5q13 -41 -19.5 -70t-111.5 -71q-79 -39 -53 -81q19 -33 116 -64q38 -12 74.5 -28.5t60 -48.5t23.5 -78q0 -69 -61.5 -115t-139 -46t-130 32
t-52.5 84q0 29 18 49.5t48.5 20.5t48.5 -16.5t18 -40.5t-21.5 -41t-21.5 -27q0 -20 27.5 -30.5t60 -10.5t56 16.5t23.5 53t-23.5 61.5t-59 37.5t-72 23.5t-65.5 33q-42 30 -42 82q0 40 28.5 68.5t58 45.5t54 30.5t38 44t6 70t-38.5 62t-83 22.5z" />
    <glyph glyph-name="agrave" unicode="&#xe0;" horiz-adv-x="525" 
d="M307 511l-14 -10q-19 27 -59 38t-55 32t-10 45.5t26 33.5q16 10 37 4.5t35 -25t18.5 -56.5t21.5 -62zM487 2.5q-28 -7.5 -65 -7.5q-82 0 -103 49q-50 -52 -153 -52q-55 0 -90.5 25.5t-35.5 75.5q0 67 52 103.5t182 51.5l40 5v49q0 87 -13 117t-51.5 30t-49.5 -10.5
t-8 -24t10 -35.5t7 -35q0 -31 -21.5 -52.5t-52 -21.5t-52.5 21.5t-22 52.5q0 51 52.5 87.5t157 36.5t149 -41t44.5 -145v-180q0 -53 13 -66.5t48 -5.5v-10q-10 -10 -38 -17.5zM207 54.5q23 -20.5 53.5 -20.5t53.5 30v170l-36 -5q-46 -6 -74.5 -35t-24.5 -81q5 -38 28 -58.5z
" />
    <glyph glyph-name="aacute" unicode="&#xe1;" horiz-adv-x="525" 
d="M220 511q17 25 21.5 62t18.5 56.5t35 25t37 -4.5q21 -9 26 -33.5t-10 -45.5t-55 -32t-59 -38zM487 2.5q-28 -7.5 -65 -7.5q-82 0 -103 49q-50 -52 -153 -52q-55 0 -90.5 25.5t-35.5 75.5q0 67 52 103.5t182 51.5l40 5v49q0 87 -13 117t-51.5 30t-49.5 -10.5t-8 -24
t10 -35.5t7 -35q0 -31 -21.5 -52.5t-52 -21.5t-52.5 21.5t-22 52.5q0 51 52.5 87.5t157 36.5t149 -41t44.5 -145v-180q0 -53 13 -66.5t48 -5.5v-10q-10 -10 -38 -17.5zM207 54.5q23 -20.5 53.5 -20.5t53.5 30v170l-36 -5q-46 -6 -74.5 -35t-24.5 -81q5 -38 28 -58.5z" />
    <glyph glyph-name="acircumflex" unicode="&#xe2;" horiz-adv-x="525" 
d="M184 514l-9 9l87 128h19l88 -128l-9 -9l-88 40zM487 2.5q-28 -7.5 -65 -7.5q-82 0 -103 49q-50 -52 -153 -52q-55 0 -90.5 25.5t-35.5 75.5q0 67 52 103.5t182 51.5l40 5v49q0 87 -13 117t-51.5 30t-49.5 -10.5t-8 -24t10 -35.5t7 -35q0 -31 -21.5 -52.5t-52 -21.5
t-52.5 21.5t-22 52.5q0 51 52.5 87.5t157 36.5t149 -41t44.5 -145v-180q0 -53 13 -66.5t48 -5.5v-10q-10 -10 -38 -17.5zM207 54.5q23 -20.5 53.5 -20.5t53.5 30v170l-36 -5q-46 -6 -74.5 -35t-24.5 -81q5 -38 28 -58.5z" />
    <glyph glyph-name="atilde" unicode="&#xe3;" horiz-adv-x="525" 
d="M183 537h-20q0 96 67 96q19 0 45 -15.5t40 -15.5q26 0 26 26h20q0 -96 -68 -96q-20 0 -46 16t-40 16q-24 0 -24 -27zM487 2.5q-28 -7.5 -65 -7.5q-82 0 -103 49q-50 -52 -153 -52q-55 0 -90.5 25.5t-35.5 75.5q0 67 52 103.5t182 51.5l40 5v49q0 87 -13 117t-51.5 30
t-49.5 -10.5t-8 -24t10 -35.5t7 -35q0 -31 -21.5 -52.5t-52 -21.5t-52.5 21.5t-22 52.5q0 51 52.5 87.5t157 36.5t149 -41t44.5 -145v-180q0 -53 13 -66.5t48 -5.5v-10q-10 -10 -38 -17.5zM207 54.5q23 -20.5 53.5 -20.5t53.5 30v170l-36 -5q-46 -6 -74.5 -35t-24.5 -81
q5 -38 28 -58.5z" />
    <glyph glyph-name="adieresis" unicode="&#xe4;" horiz-adv-x="525" 
d="M390.5 627q17.5 -18 17.5 -44.5t-17.5 -44t-43.5 -17.5t-44 18t-18 43.5t18 44t44 18.5t43.5 -18zM219 626.5q18 -18.5 18 -44t-18 -43.5t-43.5 -18t-44.5 18t-19 43.5t19 44t44.5 18.5t43.5 -18.5zM487 2.5q-28 -7.5 -65 -7.5q-82 0 -103 49q-50 -52 -153 -52
q-55 0 -90.5 25.5t-35.5 75.5q0 67 52 103.5t182 51.5l40 5v49q0 87 -13 117t-51.5 30t-49.5 -10.5t-8 -24t10 -35.5t7 -35q0 -31 -21.5 -52.5t-52 -21.5t-52.5 21.5t-22 52.5q0 51 52.5 87.5t157 36.5t149 -41t44.5 -145v-180q0 -53 13 -66.5t48 -5.5v-10
q-10 -10 -38 -17.5zM207 54.5q23 -20.5 53.5 -20.5t53.5 30v170l-36 -5q-46 -6 -74.5 -35t-24.5 -81q5 -38 28 -58.5z" />
    <glyph glyph-name="aring" unicode="&#xe5;" horiz-adv-x="525" 
d="M324 523q-25 -25 -59.5 -25t-59 24.5t-24.5 59.5t24.5 60t58.5 25t59.5 -25.5t25.5 -59.5t-25 -59zM264 535q18 0 31 14.5t13 33t-12.5 31.5t-31.5 13t-31 -13t-12 -31.5t12.5 -33t30.5 -14.5zM487 2.5q-28 -7.5 -65 -7.5q-82 0 -103 49q-50 -52 -153 -52
q-55 0 -90.5 25.5t-35.5 75.5q0 67 52 103.5t182 51.5l40 5v49q0 87 -13 117t-51.5 30t-49.5 -10.5t-8 -24t10 -35.5t7 -35q0 -31 -21.5 -52.5t-52 -21.5t-52.5 21.5t-22 52.5q0 51 52.5 87.5t157 36.5t149 -41t44.5 -145v-180q0 -53 13 -66.5t48 -5.5v-10
q-10 -10 -38 -17.5zM207 54.5q23 -20.5 53.5 -20.5t53.5 30v170l-36 -5q-46 -6 -74.5 -35t-24.5 -81q5 -38 28 -58.5z" />
    <glyph glyph-name="ae" unicode="&#xe6;" horiz-adv-x="792" 
d="M463 220h162q0 92 -19.5 161t-62.5 69q-38 0 -57 -52.5t-23 -127.5v-50zM253 34q52 0 91 22q1 1 4 2.5t4 2.5q-39 60 -39 173l-36 -5q-46 -6 -74.5 -35t-24.5 -81q5 -38 28 -58.5t47 -20.5zM573 -10q-158 0 -209 56q-53 -54 -169 -54q-143 0 -156 101q-8 65 46.5 102
t187.5 53l40 5v49q0 87 -13 117t-58 30q-24 0 -40 -8q-28 -15 -13 -38q19 -21 19 -55.5t-21.5 -56t-52.5 -21.5t-52.5 20.5t-21.5 55t28 64.5q56 58 180 58q94 0 141 -47q23 23 63 36t79 13q91 0 154 -64.5t63 -205.5h-305v-12q4 -93 35 -128.5t102 -35.5q34 0 77.5 16
t63.5 45l14 -10q-22 -37 -75 -61t-107 -24z" />
    <glyph glyph-name="ccedilla" unicode="&#xe7;" horiz-adv-x="502" 
d="M30 230q0 118 69 179t175.5 61t158.5 -53.5t37 -110.5q-8 -31 -33.5 -45.5t-55.5 -7.5q-63 15 -63 73q0 15 3.5 45.5t2.5 44.5t-6 22q-10 17 -47 13q-90 -14 -90 -220.5t147 -206.5q34 0 69 18t52 43l14 -10q-21 -34 -59.5 -56.5t-88.5 -26.5l-38 -69q50 -1 82.5 -23.5
t28.5 -59.5q-8 -82 -101 -78q-29 1 -51 12.5t-29 22.5l-7 11l16 15q23 -40 59.5 -37.5t44.5 43.5q6 36 -19 57.5t-59 21.5l45 83q-257 2 -257 239z" />
    <glyph glyph-name="egrave" unicode="&#xe8;" horiz-adv-x="515" 
d="M482 200h-302q10 -176 137 -176q34 0 77.5 16t63.5 45l14 -10q-22 -37 -75 -61t-105.5 -24t-94.5 10.5t-82 35.5t-62.5 75t-22.5 121q0 121 67 179.5t162.5 58.5t159 -64t63.5 -206zM179 220h163q0 92 -19.5 161t-62.5 69t-62 -66.5t-19 -152.5v-11zM299 511l-14 -10
q-19 27 -59 38t-55 32t-10 45.5t26 33.5q16 10 37 4.5t35 -25t18.5 -56.5t21.5 -62z" />
    <glyph glyph-name="eacute" unicode="&#xe9;" horiz-adv-x="515" 
d="M482 200h-302q10 -176 137 -176q34 0 77.5 16t63.5 45l14 -10q-22 -37 -75 -61t-105.5 -24t-94.5 10.5t-82 35.5t-62.5 75t-22.5 121q0 121 67 179.5t162.5 58.5t159 -64t63.5 -206zM179 220h163q0 92 -19.5 161t-62.5 69t-62 -66.5t-19 -152.5v-11zM247 501l-14 10
q17 25 21.5 62t18.5 56.5t35 25t37 -4.5q21 -9 26 -33.5t-10 -45.5t-55 -32t-59 -38z" />
    <glyph glyph-name="ecircumflex" unicode="&#xea;" horiz-adv-x="515" 
d="M482 200h-302q10 -176 137 -176q34 0 77.5 16t63.5 45l14 -10q-22 -37 -75 -61t-105.5 -24t-94.5 10.5t-82 35.5t-62.5 75t-22.5 121q0 121 67 179.5t162.5 58.5t159 -64t63.5 -206zM179 220h163q0 92 -19.5 161t-62.5 69t-62 -66.5t-19 -152.5v-11zM268 554l-88 -40
l-9 9l87 128h19l88 -128l-9 -9z" />
    <glyph glyph-name="edieresis" unicode="&#xeb;" horiz-adv-x="515" 
d="M482 200h-302q10 -176 137 -176q34 0 77.5 16t63.5 45l14 -10q-22 -37 -75 -61t-105.5 -24t-94.5 10.5t-82 35.5t-62.5 75t-22.5 121q0 121 67 179.5t162.5 58.5t159 -64t63.5 -206zM179 220h163q0 92 -19.5 161t-62.5 69t-62 -66.5t-19 -152.5v-11zM216 539
q-18 -18 -43.5 -18t-44.5 18t-19 43.5t19 44t44.5 18.5t43.5 -18.5t18 -44t-18 -43.5zM387.5 538.5q-17.5 -17.5 -43.5 -17.5t-44 18t-18 43.5t18 44t44 18.5t43.5 -18t17.5 -44.5t-17.5 -44z" />
    <glyph glyph-name="igrave" unicode="&#xec;" horiz-adv-x="320" 
d="M240 20h50v-20h-250v20h50v420h-40v20h190v-440zM200 511l-14 -10q-19 27 -59 38t-55 32t-10 45.5t26 33.5q16 10 37 4.5t35 -25t18.5 -56.5t21.5 -62z" />
    <glyph glyph-name="iacute" unicode="&#xed;" horiz-adv-x="320" 
d="M240 20h50v-20h-250v20h50v420h-40v20h190v-440zM124 501l-14 10q17 25 21.5 62t18.5 56.5t35 25t37 -4.5q21 -9 26 -33.5t-10 -45.5t-55 -32t-59 -38z" />
    <glyph glyph-name="icircumflex" unicode="&#xee;" horiz-adv-x="320" 
d="M240 20h50v-20h-250v20h50v420h-40v20h190v-440zM165 554l-88 -40l-9 9l87 128h19l88 -128l-9 -9z" />
    <glyph glyph-name="idieresis" unicode="&#xef;" horiz-adv-x="320" 
d="M240 460v-440h50v-20h-250v20h50v420h-40v20h190zM114 626.5q18 -18.5 18 -44t-18 -43.5t-43.5 -18t-44.5 18t-19 43.5t19 44t44.5 18.5t43.5 -18.5zM285.5 538.5q-17.5 -17.5 -43.5 -17.5t-44 18t-18 43.5t18 44t44 18.5t43.5 -18t17.5 -44.5t-17.5 -44z" />
    <glyph glyph-name="eth" unicode="&#xf0;" horiz-adv-x="572" 
d="M551 278q0 -159 -69 -223.5t-202 -64.5q-71 0 -120 21t-76 45.5t-45 67t-18 96.5q0 114 74.5 172t235.5 58v-20q-48 0 -80 -19.5t-46 -54.5q-24 -59 -24 -126t8.5 -111.5t31.5 -76.5t59 -32q109 0 109 268q0 189 -88 290l-167 -62l-9 20l161 59q-70 67 -166 67v20
q133 0 239 -60l160 58l8 -19l-145 -54q80 -53 124.5 -136.5t44.5 -182.5z" />
    <glyph glyph-name="ntilde" unicode="&#xf1;" horiz-adv-x="645" 
d="M565 20h50v-20h-250v20h50v280q0 71 -21 101t-63 30q-57 0 -91 -60v-351h50v-20h-250v20h50v420h-50v20h200v-52q19 26 59.5 44.5t87.5 18.5q178 0 178 -193v-258zM428 628h20q0 -96 -68 -96q-20 0 -46 16t-40 16q-24 0 -24 -27h-20q0 96 67 96q19 0 45 -15.5t40 -15.5
q26 0 26 26z" />
    <glyph glyph-name="ograve" unicode="&#xf2;" horiz-adv-x="564" 
d="M309 511l-14 -10q-19 27 -59 38t-55 32t-10 45.5t26 33.5q16 10 37 4.5t35 -25t18.5 -56.5t21.5 -62zM281 10q54 0 77 51t23 168.5t-23 169t-77 51.5t-76 -51.5t-22 -169.5t22 -168.5t76 -50.5zM107 52q-77 62 -77 176q0 61 22.5 109t60 76t80.5 42.5t88 14.5t88.5 -14.5
t81 -42.5t60.5 -76t23 -108t-23 -107t-61 -75q-76 -57 -171 -57t-172 62z" />
    <glyph glyph-name="oacute" unicode="&#xf3;" horiz-adv-x="564" 
d="M247 511q17 25 21.5 62t18.5 56.5t35 25t37 -4.5q21 -9 26 -33.5t-10 -45.5t-55 -32t-59 -38zM281 10q54 0 77 51t23 168.5t-23 169t-77 51.5t-76 -51.5t-22 -169.5t22 -168.5t76 -50.5zM107 52q-77 62 -77 176q0 61 22.5 109t60 76t80.5 42.5t88 14.5t88.5 -14.5
t81 -42.5t60.5 -76t23 -108t-23 -107t-61 -75q-76 -57 -171 -57t-172 62z" />
    <glyph glyph-name="ocircumflex" unicode="&#xf4;" horiz-adv-x="564" 
d="M192 514l-9 9l87 128h19l88 -128l-9 -9l-88 40zM281 10q54 0 77 51t23 168.5t-23 169t-77 51.5t-76 -51.5t-22 -169.5t22 -168.5t76 -50.5zM107 52q-77 62 -77 176q0 61 22.5 109t60 76t80.5 42.5t88 14.5t88.5 -14.5t81 -42.5t60.5 -76t23 -108t-23 -107t-61 -75
q-76 -57 -171 -57t-172 62z" />
    <glyph glyph-name="otilde" unicode="&#xf5;" horiz-adv-x="564" 
d="M202 537h-20q0 96 67 96q19 0 45 -15.5t40 -15.5q26 0 26 26h20q0 -96 -68 -96q-20 0 -46 16t-40 16q-24 0 -24 -27zM281 10q54 0 77 51t23 168.5t-23 169t-77 51.5t-76 -51.5t-22 -169.5t22 -168.5t76 -50.5zM107 52q-77 62 -77 176q0 61 22.5 109t60 76t80.5 42.5
t88 14.5t88.5 -14.5t81 -42.5t60.5 -76t23 -108t-23 -107t-61 -75q-76 -57 -171 -57t-172 62z" />
    <glyph glyph-name="odieresis" unicode="&#xf6;" horiz-adv-x="564" 
d="M422.5 627q17.5 -18 17.5 -44.5t-17.5 -44t-43.5 -17.5t-44 18t-18 43.5t18 44t44 18.5t43.5 -18zM251 626.5q18 -18.5 18 -44t-18 -43.5t-43.5 -18t-44.5 18t-19 43.5t19 44t44.5 18.5t43.5 -18.5zM281 10q54 0 77 51t23 168.5t-23 169t-77 51.5t-76 -51.5t-22 -169.5
t22 -168.5t76 -50.5zM107 52q-77 62 -77 176q0 61 22.5 109t60 76t80.5 42.5t88 14.5t88.5 -14.5t81 -42.5t60.5 -76t23 -108t-23 -107t-61 -75q-76 -57 -171 -57t-172 62z" />
    <glyph glyph-name="divide" unicode="&#xf7;" horiz-adv-x="485" 
d="M200.5 61.5q-16.5 16.5 -16.5 40t16.5 40.5t40 17t40.5 -17t17 -40.5t-17 -40t-40.5 -16.5t-40 16.5zM184 362q0 23 16.5 40t40 17t40.5 -17t17 -40t-17 -40t-40.5 -17t-40 17t-16.5 40zM445 242v-20h-405v20h405z" />
    <glyph glyph-name="oslash" unicode="&#xf8;" horiz-adv-x="564" 
d="M534 228q0 -59 -23 -106t-61 -75q-76 -57 -172.5 -57t-169.5 61l-64 -61l-14 14l64 60q-64 64 -64 164q0 61 22.5 109t59.5 76q77 57 174 57t170 -61l64 61l14 -14l-64 -61q64 -66 64 -167zM281 450q-54 0 -76 -51.5t-22 -170.5q0 -43 3 -76l189 180q-8 61 -30.5 89.5
t-63.5 28.5zM281 10q54 0 77 51t23 167q0 44 -3 80l-190 -181q8 -61 30.5 -89t62.5 -28z" />
    <glyph glyph-name="ugrave" unicode="&#xf9;" horiz-adv-x="620" 
d="M299 511l-14 -10q-19 27 -59 38t-55 32t-10 45.5t26 33.5q16 10 37 4.5t35 -25t18.5 -56.5t21.5 -62zM385 0v53q-19 -27 -59.5 -45.5t-87.5 -18.5q-178 0 -178 193v258h-50v20h200v-300q0 -71 21 -101t63 -30q56 0 91 60v351h-50v20h200v-440h50v-20h-200z" />
    <glyph glyph-name="uacute" unicode="&#xfa;" horiz-adv-x="620" 
d="M250 511q17 25 21.5 62t18.5 56.5t35 25t37 -4.5q21 -9 26 -33.5t-10 -45.5t-55 -32t-59 -38zM385 0v53q-19 -27 -59.5 -45.5t-87.5 -18.5q-178 0 -178 193v258h-50v20h200v-300q0 -71 21 -101t63 -30q56 0 91 60v351h-50v20h200v-440h50v-20h-200z" />
    <glyph glyph-name="ucircumflex" unicode="&#xfb;" horiz-adv-x="620" 
d="M196 514l-9 9l87 128h19l88 -128l-9 -9l-88 40zM385 0v53q-19 -27 -59.5 -45.5t-87.5 -18.5q-178 0 -178 193v258h-50v20h200v-300q0 -71 21 -101t63 -30q56 0 91 60v351h-50v20h200v-440h50v-20h-200z" />
    <glyph glyph-name="udieresis" unicode="&#xfc;" horiz-adv-x="620" 
d="M469.5 627q17.5 -18 17.5 -44.5t-17.5 -44t-43.5 -17.5t-44 18t-18 43.5t18 44t44 18.5t43.5 -18zM298 626.5q18 -18.5 18 -44t-18 -43.5t-43.5 -18t-44.5 18t-19 43.5t19 44t44.5 18.5t43.5 -18.5zM385 0v53q-19 -27 -59.5 -45.5t-87.5 -18.5q-178 0 -178 193v258h-50
v20h200v-300q0 -71 21 -101t63 -30q56 0 91 60v351h-50v20h200v-440h50v-20h-200z" />
    <glyph glyph-name="yacute" unicode="&#xfd;" horiz-adv-x="542" 
d="M195 -194.5q-30 -25.5 -80 -25.5t-78 21.5t-28 57t20.5 56.5t49.5 21t49 -11t28 -24q22 -35 41.5 -35t34.5 34l42 99l-234 441h-40v20h269v-20h-50l134 -264l115 264h-80v20h164v-20h-60l-240 -551q-27 -58 -57 -83.5zM294 501l-14 10q17 25 21.5 62t18.5 56.5t35 25
t37 -4.5q21 -9 26 -33.5t-10 -45.5t-55 -32t-59 -38z" />
    <glyph glyph-name="thorn" unicode="&#xfe;" horiz-adv-x="598" 
d="M240 670v-256q16 34 52 51t77 17q83 0 141 -66t58 -183t-59 -181t-140 -64q-102 0 -129 58v-236h50v-20h-250v20h50v840h-50v20h200zM240 68q25 -50 69 -50t75.5 51.5t31.5 160t-31 162t-74 53.5t-71 -58v-319z" />
    <glyph glyph-name="ydieresis" unicode="&#xff;" horiz-adv-x="542" 
d="M195 -194.5q-30 -25.5 -80 -25.5t-78 21.5t-28 57t20.5 56.5t49.5 21t49 -11t28 -24q22 -35 41.5 -35t34.5 34l42 99l-234 441h-40v20h269v-20h-50l134 -264l115 264h-80v20h164v-20h-60l-240 -551q-27 -58 -57 -83.5zM247 626.5q18 -18.5 18 -44t-18 -43.5t-43.5 -18
t-44.5 18t-19 43.5t19 44t44.5 18.5t43.5 -18.5zM418.5 627q17.5 -18 17.5 -44.5t-17.5 -44t-43.5 -17.5t-44 18t-18 43.5t18 44t44 18.5t43.5 -18z" />
    <glyph glyph-name="Amacron" unicode="&#x100;" horiz-adv-x="643" 
d="M633 20v-20h-263v20h59l-67 139h-202l-58 -139h79v-20h-171v20h67l229 550h25l254 -550h48zM169 180h183l-98 204zM420 707v-50h-200v50h200z" />
    <glyph glyph-name="amacron" unicode="&#x101;" horiz-adv-x="525" 
d="M364 607v-50h-200v50h200zM487 2.5q-28 -7.5 -65 -7.5q-82 0 -103 49q-50 -52 -153 -52q-55 0 -90.5 25.5t-35.5 75.5q0 67 52 103.5t182 51.5l40 5v49q0 87 -13 117t-51.5 30t-49.5 -10.5t-8 -24t10 -35.5t7 -35q0 -31 -21.5 -52.5t-52 -21.5t-52.5 21.5t-22 52.5
q0 51 52.5 87.5t157 36.5t149 -41t44.5 -145v-180q0 -53 13 -66.5t48 -5.5v-10q-10 -10 -38 -17.5zM207 54.5q23 -20.5 53.5 -20.5t53.5 30v170l-36 -5q-46 -6 -74.5 -35t-24.5 -81q5 -38 28 -58.5z" />
    <glyph glyph-name="Abreve" unicode="&#x102;" horiz-adv-x="643" 
d="M633 20v-20h-263v20h59l-67 139h-202l-58 -139h79v-20h-171v20h67l229 550h25l254 -550h48zM169 180h183l-98 204zM384 745h20q0 -60 -20.5 -92.5t-70.5 -32.5q-93 0 -93 125h20q0 -49 72 -49t72 49z" />
    <glyph glyph-name="abreve" unicode="&#x103;" horiz-adv-x="525" 
d="M190 645q0 -49 72 -49t72 49h20q0 -60 -20.5 -92.5t-70.5 -32.5q-93 0 -93 125h20zM487 2.5q-28 -7.5 -65 -7.5q-82 0 -103 49q-50 -52 -153 -52q-55 0 -90.5 25.5t-35.5 75.5q0 67 52 103.5t182 51.5l40 5v49q0 87 -13 117t-51.5 30t-49.5 -10.5t-8 -24t10 -35.5t7 -35
q0 -31 -21.5 -52.5t-52 -21.5t-52.5 21.5t-22 52.5q0 51 52.5 87.5t157 36.5t149 -41t44.5 -145v-180q0 -53 13 -66.5t48 -5.5v-10q-10 -10 -38 -17.5zM207 54.5q23 -20.5 53.5 -20.5t53.5 30v170l-36 -5q-46 -6 -74.5 -35t-24.5 -81q5 -38 28 -58.5z" />
    <glyph glyph-name="Aogonek" unicode="&#x104;" horiz-adv-x="643" 
d="M633 0h-81q-64 -88 -20 -121q31 -21 56 2l10 -12q-36 -46 -82 -46q-43 0 -59 29q-18 32 15 84q18 30 54 64h-156v20h59l-67 139h-202l-58 -139h79v-20h-171v20h67l229 550h25l254 -550h48v-20zM169 180h183l-98 204z" />
    <glyph glyph-name="aogonek" unicode="&#x105;" horiz-adv-x="525" 
d="M487 2.5q-28 -7.5 -49.5 -7.5t-47.5 2q-62 -86 -18 -118q31 -21 56 2l10 -12q-36 -46 -82 -46q-42 0 -58 29q-31 54 70 150q-35 11 -49 42q-50 -52 -153 -52q-55 0 -90.5 25.5t-35.5 75.5q0 67 52 103.5t182 51.5l40 5v49q0 87 -13 117t-51.5 30t-49.5 -10.5t-8 -24
t10 -35.5t7 -35q0 -31 -21.5 -52.5t-52 -21.5t-52.5 21.5t-22 52.5q0 51 52.5 87.5t157 36.5t149 -41t44.5 -145v-180q0 -53 13 -66.5t48 -5.5v-10q-10 -10 -38 -17.5zM207 54.5q23 -20.5 53.5 -20.5t53.5 30v170l-36 -5q-46 -6 -74.5 -35t-24.5 -81q5 -38 28 -58.5z" />
    <glyph glyph-name="Cacute" unicode="&#x106;" horiz-adv-x="560" 
d="M525 337h-20q0 80 -51 148t-146 68q-53 0 -87.5 -62t-34.5 -212t34.5 -212t108 -62t124 46t62.5 130h20q-14 -99 -69.5 -147.5t-132.5 -48.5q-149 0 -228.5 71.5t-79.5 224t77.5 222.5t205.5 70q69 0 134 -37q21 -13 34.5 -13t21.5 12.5t8 24.5h19v-223zM292 601l-14 10
q17 25 21.5 62t18.5 56.5t35 25t37 -4.5q21 -9 26 -33.5t-10 -45.5t-55 -32t-59 -38z" />
    <glyph glyph-name="cacute" unicode="&#x107;" horiz-adv-x="502" 
d="M240 511q17 25 21.5 62t18.5 56.5t35 25t37 -4.5q21 -9 26 -33.5t-10 -45.5t-55 -32t-59 -38zM30 230q0 118 69 179t175.5 61t158.5 -53.5t37 -110.5q-8 -31 -33.5 -45.5t-55.5 -7.5q-63 15 -63 73q0 15 3.5 45.5t2.5 44.5t-6 22q-10 17 -47 13q-90 -14 -90 -220.5
t147 -206.5q34 0 69 18t52 43l14 -10q-23 -38 -69 -61t-103 -23q-261 0 -261 239z" />
    <glyph glyph-name="Cdotaccent" unicode="&#x10a;" horiz-adv-x="560" 
d="M525 337h-20q0 80 -51 148t-146 68q-53 0 -87.5 -62t-34.5 -212t34.5 -212t108 -62t124 46t62.5 130h20q-14 -99 -69.5 -147.5t-132.5 -48.5q-149 0 -228.5 71.5t-79.5 224t77.5 222.5t205.5 70q69 0 134 -37q21 -13 34.5 -13t21.5 12.5t8 24.5h19v-223zM333 726.5
q18 -18.5 18 -44t-18 -43.5t-43.5 -18t-44.5 18t-19 43.5t19 44t44.5 18.5t43.5 -18.5z" />
    <glyph glyph-name="cdotaccent" unicode="&#x10b;" horiz-adv-x="502" 
d="M323 626.5q18 -18.5 18 -44t-18 -43.5t-43.5 -18t-44.5 18t-19 43.5t19 44t44.5 18.5t43.5 -18.5zM30 230q0 118 69 179t175.5 61t158.5 -53.5t37 -110.5q-8 -31 -33.5 -45.5t-55.5 -7.5q-63 15 -63 73q0 15 3.5 45.5t2.5 44.5t-6 22q-10 17 -47 13q-90 -14 -90 -220.5
t147 -206.5q34 0 69 18t52 43l14 -10q-23 -38 -69 -61t-103 -23q-261 0 -261 239z" />
    <glyph glyph-name="Ccaron" unicode="&#x10c;" horiz-adv-x="560" 
d="M525 337h-20q0 80 -51 148t-146 68q-53 0 -87.5 -62t-34.5 -212t34.5 -212t108 -62t124 46t62.5 130h20q-14 -99 -69.5 -147.5t-132.5 -48.5q-149 0 -228.5 71.5t-79.5 224t77.5 222.5t205.5 70q69 0 134 -37q21 -13 34.5 -13t21.5 12.5t8 24.5h19v-223zM229 751l88 -40
l88 40l9 -9l-88 -128h-19l-87 128z" />
    <glyph glyph-name="ccaron" unicode="&#x10d;" horiz-adv-x="502" 
d="M189 651l88 -40l88 40l9 -9l-88 -128h-19l-87 128zM30 230q0 118 69 179t175.5 61t158.5 -53.5t37 -110.5q-8 -31 -33.5 -45.5t-55.5 -7.5q-63 15 -63 73q0 15 3.5 45.5t2.5 44.5t-6 22q-10 17 -47 13q-90 -14 -90 -220.5t147 -206.5q34 0 69 18t52 43l14 -10
q-23 -38 -69 -61t-103 -23q-261 0 -261 239z" />
    <glyph glyph-name="Dcaron" unicode="&#x10e;" horiz-adv-x="605" 
d="M189 751l88 -40l88 40l9 -9l-88 -128h-19l-87 128zM290 0h-250v20h50v520h-50v20h250q74 0 133.5 -24.5t96.5 -64.5q75 -83 75 -188q0 -142 -75 -212.5t-230 -70.5zM240 20q108 0 156 58.5t48 191t-52 201.5t-152 69v-520z" />
    <glyph glyph-name="dcaron" unicode="&#x10f;" horiz-adv-x="698" 
d="M229 -12q-81 0 -140 64t-59 181t58 183t141 66q41 0 77 -17t52 -51v236h-50v20h200v-650h50v-20h-200v46q-27 -58 -129 -58zM358 219v165q-27 54 -70.5 54t-74.5 -50t-31 -158.5t32 -158.5t77 -43q25 4 38 16q29 28 29 175zM617 592l-27 -5q-19 0 -34.5 13.5t-15.5 38
t16.5 41.5t45.5 17t48 -22.5t19 -50.5q0 -87 -104 -134l-5 12q69 40 69 78q0 12 -12 12z" />
    <glyph glyph-name="Dcroat" unicode="&#x110;" horiz-adv-x="625" 
d="M40 560h250q74 0 133.5 -24.5t96.5 -64.5q75 -83 75 -188q0 -142 -75 -212.5t-230 -70.5h-250v20h50v258h-50v20h50v242h-50v20zM240 278v-258q108 0 156 58.5t48 191t-52 201.5t-152 69v-242h117v-20h-117z" />
    <glyph glyph-name="dcroat" unicode="&#x111;" horiz-adv-x="598" 
d="M558 562h-50v-542h50v-20h-200v46q-27 -58 -129 -58q-81 0 -140 64t-59 181t58 183t141 66q41 0 77 -17t52 -51v148h-160v20h160v68h-50v20h200v-88h50v-20zM213.5 69.5q31.5 -51.5 74 -51.5t71.5 52t29 156.5t-30 161.5t-67 57q-47 0 -78 -53.5t-31 -162t31.5 -160z" />
    <glyph glyph-name="Emacron" unicode="&#x112;" horiz-adv-x="545" 
d="M390 707v-50h-200v50h200zM340 20q150 0 150 170h20v-190h-470v20h50v520h-50v20h460v-170h-20q0 89 -35.5 119.5t-114.5 30.5h-90v-240h40q72 0 91 18t19 72h20v-200h-20q0 56 -19 73t-91 17h-40v-260h100z" />
    <glyph glyph-name="emacron" unicode="&#x113;" horiz-adv-x="515" 
d="M482 200h-302q10 -176 137 -176q34 0 77.5 16t63.5 45l14 -10q-22 -37 -75 -61t-105.5 -24t-94.5 10.5t-82 35.5t-62.5 75t-22.5 121q0 121 67 179.5t162.5 58.5t159 -64t63.5 -206zM179 220h163q0 92 -19.5 161t-62.5 69t-62 -66.5t-19 -152.5v-11zM370 607v-50h-200v50
h200z" />
    <glyph glyph-name="Ebreve" unicode="&#x114;" horiz-adv-x="545" 
d="M220 745q0 -49 72 -49t72 49h20q0 -60 -20.5 -92.5t-70.5 -32.5q-93 0 -93 125h20zM340 20q150 0 150 170h20v-190h-470v20h50v520h-50v20h460v-170h-20q0 89 -35.5 119.5t-114.5 30.5h-90v-240h40q72 0 91 18t19 72h20v-200h-20q0 56 -19 73t-91 17h-40v-260h100z" />
    <glyph glyph-name="ebreve" unicode="&#x115;" horiz-adv-x="515" 
d="M482 200h-302q10 -176 137 -176q34 0 77.5 16t63.5 45l14 -10q-22 -37 -75 -61t-105.5 -24t-94.5 10.5t-82 35.5t-62.5 75t-22.5 121q0 121 67 179.5t162.5 58.5t159 -64t63.5 -206zM179 220h163q0 92 -19.5 161t-62.5 69t-62 -66.5t-19 -152.5v-11zM334 645h20
q0 -60 -20.5 -92.5t-70.5 -32.5q-93 0 -93 125h20q0 -49 72 -49t72 49z" />
    <glyph glyph-name="Edotaccent" unicode="&#x116;" horiz-adv-x="545" 
d="M346 726.5q18 -18.5 18 -44t-18 -43.5t-43.5 -18t-44.5 18t-19 43.5t19 44t44.5 18.5t43.5 -18.5zM340 20q150 0 150 170h20v-190h-470v20h50v520h-50v20h460v-170h-20q0 89 -35.5 119.5t-114.5 30.5h-90v-240h40q72 0 91 18t19 72h20v-200h-20q0 56 -19 73t-91 17h-40
v-260h100z" />
    <glyph glyph-name="edotaccent" unicode="&#x117;" horiz-adv-x="515" 
d="M482 200h-302q10 -176 137 -176q34 0 77.5 16t63.5 45l14 -10q-22 -37 -75 -61t-105.5 -24t-94.5 10.5t-82 35.5t-62.5 75t-22.5 121q0 121 67 179.5t162.5 58.5t159 -64t63.5 -206zM179 220h163q0 92 -19.5 161t-62.5 69t-62 -66.5t-19 -152.5v-11zM307 539
q-18 -18 -43.5 -18t-44.5 18t-19 43.5t19 44t44.5 18.5t43.5 -18.5t18 -44t-18 -43.5z" />
    <glyph glyph-name="Eogonek" unicode="&#x118;" horiz-adv-x="545" 
d="M510 0h-108q-64 -88 -20 -121q31 -21 56 2l10 -12q-36 -46 -82 -46q-43 0 -59 29q-18 32 15 84q18 30 54 64h-336v20h50v520h-50v20h460v-170h-20q0 89 -35.5 119.5t-114.5 30.5h-90v-240h40q72 0 91 18t19 72h20v-200h-20q0 56 -19 73t-91 17h-40v-260h100
q150 0 150 170h20v-190z" />
    <glyph glyph-name="eogonek" unicode="&#x119;" horiz-adv-x="515" 
d="M482 200h-302q10 -176 137 -176q34 0 77.5 16t63.5 45l14 -10q-21 -34 -68 -57.5t-98 -26.5q-55 -82 -14 -112q31 -21 56 2l10 -12q-36 -46 -82 -46q-41 0 -58 27q-31 51 58 140q-97 2 -166 50q-80 55 -80 184t67 187.5t162.5 58.5t159 -64t63.5 -206zM179 220h163
q0 92 -19.5 161t-62.5 69t-62 -66.5t-19 -152.5v-11z" />
    <glyph glyph-name="Ecaron" unicode="&#x11a;" horiz-adv-x="545" 
d="M209 751l88 -40l88 40l9 -9l-88 -128h-19l-87 128zM340 20q150 0 150 170h20v-190h-470v20h50v520h-50v20h460v-170h-20q0 89 -35.5 119.5t-114.5 30.5h-90v-240h40q72 0 91 18t19 72h20v-200h-20q0 56 -19 73t-91 17h-40v-260h100z" />
    <glyph glyph-name="ecaron" unicode="&#x11b;" horiz-adv-x="515" 
d="M482 200h-302q10 -176 137 -176q34 0 77.5 16t63.5 45l14 -10q-22 -37 -75 -61t-105.5 -24t-94.5 10.5t-82 35.5t-62.5 75t-22.5 121q0 121 67 179.5t162.5 58.5t159 -64t63.5 -206zM179 220h163q0 92 -19.5 161t-62.5 69t-62 -66.5t-19 -152.5v-11zM281 514h-19l-87 128
l9 9l88 -40l88 40l9 -9z" />
    <glyph glyph-name="Gcircumflex" unicode="&#x11c;" horiz-adv-x="608" 
d="M221 614l-9 9l87 128h19l88 -128l-9 -9l-88 40zM509 38.5q-13 15.5 -33.5 15.5t-42 -17t-50 -34.5t-68.5 -17.5q-136 0 -210.5 70t-74.5 215q0 303 283 303q51 0 104.5 -25t65.5 -25t20 12.5t8 24.5h19v-203h-20q0 76 -59.5 136t-137.5 60q-60 0 -91 -64.5t-31 -213
t31.5 -209.5t92.5 -61q96 0 96 171v74h-63v20h240v-20h-47v-250h-19q0 23 -13 38.5z" />
    <glyph glyph-name="gcircumflex" unicode="&#x11d;" horiz-adv-x="538" 
d="M162 93q0 -28 36 -32h172q89 0 124 -38t24.5 -94t-68.5 -103t-160 -47q-187 0 -240 55q-20 22 -17 51.5t22 48t43 25.5q-32 27 -32 67t24.5 71.5t56.5 50.5q-115 42 -115 151q0 81 74.5 125.5t164.5 44.5t158 -45t68 -126t-71 -124.5t-168 -43.5q-47 0 -83 10
q-13 -22 -13 -47zM327 418q-20 31 -59.5 31t-57.5 -31.5t-18 -115.5t19 -118t57.5 -34t58.5 33t20 118.5t-20 116.5zM364 -69h-168q-48 0 -81 17q-14 -72 36.5 -110.5t138.5 -38.5t146 44q27 20 30 40t-23 34t-79 14zM275 554l-88 -40l-9 9l87 128h19l88 -128l-9 -9z" />
    <glyph glyph-name="Gbreve" unicode="&#x11e;" horiz-adv-x="608" 
d="M237 745q0 -49 72 -49t72 49h20q0 -60 -20.5 -92.5t-70.5 -32.5q-93 0 -93 125h20zM509 38.5q-13 15.5 -33.5 15.5t-42 -17t-50 -34.5t-68.5 -17.5q-136 0 -210.5 70t-74.5 215q0 303 283 303q51 0 104.5 -25t65.5 -25t20 12.5t8 24.5h19v-203h-20q0 76 -59.5 136
t-137.5 60q-60 0 -91 -64.5t-31 -213t31.5 -209.5t92.5 -61q96 0 96 171v74h-63v20h240v-20h-47v-250h-19q0 23 -13 38.5z" />
    <glyph glyph-name="gbreve" unicode="&#x11f;" horiz-adv-x="538" 
d="M162 93q0 -28 36 -32h172q89 0 124 -38t24.5 -94t-68.5 -103t-160 -47q-187 0 -240 55q-20 22 -17 51.5t22 48t43 25.5q-32 27 -32 67t24.5 71.5t56.5 50.5q-115 42 -115 151q0 81 74.5 125.5t164.5 44.5t158 -45t68 -126t-71 -124.5t-168 -43.5q-47 0 -83 10
q-13 -22 -13 -47zM327 418q-20 31 -59.5 31t-57.5 -31.5t-18 -115.5t19 -118t57.5 -34t58.5 33t20 118.5t-20 116.5zM364 -69h-168q-48 0 -81 17q-14 -72 36.5 -110.5t138.5 -38.5t146 44q27 20 30 40t-23 34t-79 14zM341 644h20q0 -60 -20.5 -92.5t-70.5 -32.5
q-93 0 -93 125h20q0 -49 72 -49t72 49z" />
    <glyph glyph-name="Gdotaccent" unicode="&#x120;" horiz-adv-x="608" 
d="M353 726.5q18 -18.5 18 -44t-18 -43.5t-43.5 -18t-44.5 18t-19 43.5t19 44t44.5 18.5t43.5 -18.5zM509 38.5q-13 15.5 -33.5 15.5t-42 -17t-50 -34.5t-68.5 -17.5q-136 0 -210.5 70t-74.5 215q0 303 283 303q51 0 104.5 -25t65.5 -25t20 12.5t8 24.5h19v-203h-20
q0 76 -59.5 136t-137.5 60q-60 0 -91 -64.5t-31 -213t31.5 -209.5t92.5 -61q96 0 96 171v74h-63v20h240v-20h-47v-250h-19q0 23 -13 38.5z" />
    <glyph glyph-name="gdotaccent" unicode="&#x121;" horiz-adv-x="538" 
d="M162 93q0 -28 36 -32h172q89 0 124 -38t24.5 -94t-68.5 -103t-160 -47q-187 0 -240 55q-20 22 -17 51.5t22 48t43 25.5q-32 27 -32 67t24.5 71.5t56.5 50.5q-115 42 -115 151q0 81 74.5 125.5t164.5 44.5t158 -45t68 -126t-71 -124.5t-168 -43.5q-47 0 -83 10
q-13 -22 -13 -47zM327 418q-20 31 -59.5 31t-57.5 -31.5t-18 -115.5t19 -118t57.5 -34t58.5 33t20 118.5t-20 116.5zM364 -69h-168q-48 0 -81 17q-14 -72 36.5 -110.5t138.5 -38.5t146 44q27 20 30 40t-23 34t-79 14zM323 538q-18 -18 -43.5 -18t-44.5 18t-19 43.5t19 44
t44.5 18.5t43.5 -18.5t18 -44t-18 -43.5z" />
    <glyph glyph-name="uni0122" unicode="&#x122;" horiz-adv-x="608" 
d="M285 -144l-24 -4q-18 0 -31.5 12.5t-13.5 34.5t15 37t41 15t42.5 -20t16.5 -46q0 -83 -89 -125l-8 16q62 34 62 70q0 10 -11 10zM509 38.5q-13 15.5 -33.5 15.5t-42 -17t-50 -34.5t-68.5 -17.5q-136 0 -210.5 70t-74.5 215q0 303 283 303q51 0 104.5 -25t65.5 -25
t20 12.5t8 24.5h19v-203h-20q0 76 -59.5 136t-137.5 60q-60 0 -91 -64.5t-31 -213t31.5 -209.5t92.5 -61q96 0 96 171v74h-63v20h240v-20h-47v-250h-19q0 23 -13 38.5z" />
    <glyph glyph-name="uni0123" unicode="&#x123;" horiz-adv-x="538" 
d="M162 93q0 -28 36 -32h172q89 0 124 -38t24.5 -94t-68.5 -103t-160 -47q-187 0 -240 55q-20 22 -17 51.5t22 48t43 25.5q-32 27 -32 67t24.5 71.5t56.5 50.5q-115 42 -115 151q0 81 74.5 125.5t164.5 44.5t158 -45t68 -126t-71 -124.5t-168 -43.5q-47 0 -83 10
q-13 -22 -13 -47zM327 418q-20 31 -59.5 31t-57.5 -31.5t-18 -115.5t19 -118t57.5 -34t58.5 33t20 118.5t-20 116.5zM364 -69h-168q-48 0 -81 17q-14 -72 36.5 -110.5t138.5 -38.5t146 44q27 20 30 40t-23 34t-79 14zM252 617l30 5q21 0 38 -15t17 -42t-18 -45.5
t-50.5 -18.5t-53 24.5t-20.5 56.5q0 94 115 147l5 -13q-76 -45 -76 -86q0 -13 13 -13z" />
    <glyph glyph-name="hcircumflex" unicode="&#x125;" horiz-adv-x="645" 
d="M565 20h50v-20h-250v20h50v280q0 71 -21 101t-63 30q-57 0 -91 -60v-351h50v-20h-250v20h50v630h-50v20h200v-262q19 27 59 45t88 18q178 0 178 -193v-258zM160 751l-88 -40l-9 9l87 128h19l88 -128l-9 -9z" />
    <glyph glyph-name="Hbar" unicode="&#x126;" horiz-adv-x="677" 
d="M637 540h-50v-102h50v-20h-50v-398h50v-20h-250v20h50v268h-197v-268h50v-20h-250v20h50v398h-50v20h50v102h-50v20h250v-20h-50v-102h197v102h-50v20h250v-20zM437 308v110h-197v-110h197z" />
    <glyph glyph-name="hbar" unicode="&#x127;" horiz-adv-x="645" 
d="M565 20h50v-20h-250v20h50v280q0 71 -21 101t-63 30q-57 0 -91 -60v-351h50v-20h-250v20h50v542h-50v20h50v68h-50v20h200v-88h160v-20h-160v-154q19 27 59 45t88 18q178 0 178 -193v-258z" />
    <glyph glyph-name="Itilde" unicode="&#x128;" horiz-adv-x="310" 
d="M84 630h-20q0 96 67 96q19 0 45 -15.5t40 -15.5q26 0 26 26h20q0 -96 -68 -96q-20 0 -46 16t-40 16q-24 0 -24 -27zM290 0h-250v20h50v520h-50v20h250v-20h-50v-520h50v-20z" />
    <glyph glyph-name="itilde" unicode="&#x129;" horiz-adv-x="320" 
d="M240 20h50v-20h-250v20h50v420h-40v20h190v-440zM244 628h20q0 -96 -68 -96q-20 0 -46 16t-40 16q-24 0 -24 -27h-20q0 96 67 96q19 0 45 -15.5t40 -15.5q26 0 26 26z" />
    <glyph glyph-name="Imacron" unicode="&#x12a;" horiz-adv-x="310" 
d="M255 707v-50h-200v50h200zM290 0h-250v20h50v520h-50v20h250v-20h-50v-520h50v-20z" />
    <glyph glyph-name="imacron" unicode="&#x12b;" horiz-adv-x="320" 
d="M240 20h50v-20h-250v20h50v420h-40v20h190v-440zM264 607v-50h-200v50h200z" />
    <glyph glyph-name="Ibreve" unicode="&#x12c;" horiz-adv-x="310" 
d="M88 745q0 -49 72 -49t72 49h20q0 -60 -20.5 -92.5t-70.5 -32.5q-93 0 -93 125h20zM290 0h-250v20h50v520h-50v20h250v-20h-50v-520h50v-20z" />
    <glyph glyph-name="ibreve" unicode="&#x12d;" horiz-adv-x="320" 
d="M240 20h50v-20h-250v20h50v420h-40v20h190v-440zM236 645h20q0 -60 -20.5 -92.5t-70.5 -32.5q-93 0 -93 125h20q0 -49 72 -49t72 49z" />
    <glyph glyph-name="Iogonek" unicode="&#x12e;" horiz-adv-x="310" 
d="M290 540h-50v-520h50v-20h-108q-64 -88 -20 -121q31 -21 56 2l10 -12q-36 -46 -82 -46q-43 0 -59 29q-18 32 15 84q18 30 54 64h-116v20h50v520h-50v20h250v-20z" />
    <glyph glyph-name="iogonek" unicode="&#x12f;" horiz-adv-x="320" 
d="M290 0h-98q-64 -88 -20 -121q31 -21 56 2l10 -12q-36 -46 -82 -46q-43 0 -59 29q-18 32 15 84q18 30 54 64h-126v20h50v420h-40v20h190v-440h50v-20zM223.5 530.5q-25.5 -25.5 -62 -25.5t-62.5 25.5t-26 62t26 62.5t62.5 26t62 -26t25.5 -62.5t-25.5 -62z" />
    <glyph glyph-name="Idotaccent" unicode="&#x130;" horiz-adv-x="310" 
d="M199 726.5q18 -18.5 18 -44t-18 -43.5t-43.5 -18t-44.5 18t-19 43.5t19 44t44.5 18.5t43.5 -18.5zM290 0h-250v20h50v520h-50v20h250v-20h-50v-520h50v-20z" />
    <glyph glyph-name="dotlessi" unicode="&#x131;" horiz-adv-x="330" 
d="M240 20h50v-20h-250v20h50v420h-40v20h190v-440z" />
    <glyph glyph-name="IJ" unicode="&#x132;" horiz-adv-x="842" 
d="M802 560v-20h-50v-334q0 -97 -59 -151.5t-177 -54.5q-79 0 -126.5 36t-47.5 104q0 37 23.5 64.5t56.5 27.5t52.5 -20.5t19.5 -51.5q0 -49 -52 -65q-6 -2 -16.5 -4.5t-15.5 -4.5q-13 -3 -13 -19t26.5 -30t59.5 -14q119 0 119 174v343h-50v20h250zM290 560v-20h-50v-520h50
v-20h-250v20h50v520h-50v20h250z" />
    <glyph glyph-name="ij" unicode="&#x133;" horiz-adv-x="661" 
d="M590 460v-504q0 -206 -196 -206q-78 0 -116 39.5t-38 91.5t25 77t56 25t51.5 -17.5t20.5 -48t-16 -46.5t-36.5 -19t-27.5 -4.5t-15 -8.5t-8 -19q0 -23 28 -36t54.5 -13t40.5 11q27 20 27 143v515h-50v20h200zM290 20v-20h-250v20h50v420h-40v20h190v-440h50zM223.5 530.5
q-25.5 -25.5 -62 -25.5t-62.5 25.5t-26 62t26 62.5t62.5 26t62 -26t25.5 -62.5t-25.5 -62zM575.5 530.5q-25.5 -25.5 -62 -25.5t-62.5 25.5t-26 62t26 62.5t62.5 26t62 -26t25.5 -62.5t-25.5 -62z" />
    <glyph glyph-name="Jcircumflex" unicode="&#x134;" horiz-adv-x="500" 
d="M259 614l-9 9l87 128h19l88 -128l-9 -9l-88 40zM184 0q-79 0 -126.5 36t-47.5 104q0 37 23.5 64.5t56.5 27.5t52.5 -20.5t19.5 -51.5q0 -49 -52 -65q-6 -2 -16.5 -4.5t-15.5 -4.5q-13 -3 -13 -19t26.5 -30t59.5 -14q119 0 119 174v343h-50v20h250v-20h-50v-334
q0 -97 -59 -151.5t-177 -54.5z" />
    <glyph glyph-name="jcircumflex" unicode="&#x135;" horiz-adv-x="313" 
d="M90 0v440h-50v20h200v-460q0 -220 -198 -220q-76 0 -110 28.5t-34 69.5q0 24 15.5 37.5t36.5 13.5q54 0 54 -64.5t38 -64.5q28 0 38 48.5t10 151.5zM68 514l-9 9l87 128h19l88 -128l-9 -9l-88 40z" />
    <glyph glyph-name="uni0136" unicode="&#x136;" horiz-adv-x="640" 
d="M630 20v-20h-260v20h45l-133 243l-42 -53v-190h50v-20h-250v20h50v520h-50v20h250v-20h-50v-295l232 295h-92v20h204v-20h-85l-118 -150l206 -370h43zM358 -144l-24 -4q-18 0 -31.5 12.5t-13.5 34.5t15 37t41 15t42.5 -20t16.5 -46q0 -83 -89 -125l-8 16q62 34 62 70
q0 10 -11 10z" />
    <glyph glyph-name="uni0137" unicode="&#x137;" horiz-adv-x="618" 
d="M608 20v-20q-136 0 -188.5 19.5t-103.5 97.5l-63 97l-13 -12v-182h50v-20h-250v20h50v630h-50v20h200v-438l209 208h-81v20h190v-20h-79l-120 -119l120 -180q81 -121 129 -121zM368 -144l-24 -4q-18 0 -31.5 12.5t-13.5 34.5t15 37t41 15t42.5 -20t16.5 -46
q0 -83 -89 -125l-8 16q62 34 62 70q0 10 -11 10z" />
    <glyph glyph-name="Lacute" unicode="&#x139;" horiz-adv-x="520" 
d="M490 190h20v-190h-470v20h50v520h-50v20h260v-20h-60v-520h100q34 0 56.5 5t46.5 21q47 31 47 144zM132 601l-14 10q17 25 21.5 62t18.5 56.5t35 25t37 -4.5q21 -9 26 -33.5t-10 -45.5t-55 -32t-59 -38z" />
    <glyph glyph-name="lacute" unicode="&#x13a;" horiz-adv-x="320" 
d="M240 20h50v-20h-250v20h50v630h-50v20h200v-650zM126 715l-14 10q17 25 21.5 62t18.5 56.5t35 25t37 -4.5q21 -9 26 -33.5t-10 -45.5t-55 -32t-59 -38z" />
    <glyph glyph-name="uni013B" unicode="&#x13b;" horiz-adv-x="520" 
d="M490 190h20v-190h-470v20h50v520h-50v20h260v-20h-60v-520h100q34 0 56.5 5t46.5 21q47 31 47 144zM288 -144l-24 -4q-18 0 -31.5 12.5t-13.5 34.5t15 37t41 15t42.5 -20t16.5 -46q0 -83 -89 -125l-8 16q62 34 62 70q0 10 -11 10z" />
    <glyph glyph-name="uni013C" unicode="&#x13c;" horiz-adv-x="320" 
d="M240 20h50v-20h-250v20h50v630h-50v20h200v-650zM178 -144l-24 -4q-18 0 -31.5 12.5t-13.5 34.5t15 37t41 15t42.5 -20t16.5 -46q0 -83 -89 -125l-8 16q62 34 62 70q0 10 -11 10z" />
    <glyph glyph-name="Lcaron" unicode="&#x13d;" horiz-adv-x="521" 
d="M490 190h20v-190h-470v20h50v520h-50v20h260v-20h-60v-520h100q34 0 56.5 5t46.5 21q47 31 47 144zM447 475l-24 -4q-18 0 -31.5 12.5t-13.5 34.5t15 37t41 15t42.5 -20t16.5 -46q0 -83 -89 -125l-8 16q62 34 62 70q0 10 -11 10z" />
    <glyph glyph-name="lcaron" unicode="&#x13e;" horiz-adv-x="408" 
d="M357 592l-27 -5q-19 0 -34.5 13.5t-15.5 38t16.5 41.5t45.5 17t48 -22.5t19 -50.5q0 -87 -104 -134l-5 12q69 40 69 78q0 12 -12 12zM240 670v-650h50v-20h-250v20h50v630h-50v20h200z" />
    <glyph glyph-name="Ldot" unicode="&#x13f;" horiz-adv-x="530" 
d="M490 190h20v-190h-470v20h50v520h-50v20h260v-20h-60v-520h100q34 0 56.5 5t46.5 21q47 31 47 144zM427 261.5q-21 -21.5 -50.5 -21.5t-51 21.5t-21.5 50.5t21.5 50.5t51 21.5t50.5 -21.5t21 -50.5t-21 -50.5z" />
    <glyph glyph-name="ldot" unicode="&#x140;" horiz-adv-x="422" 
d="M325.5 362.5q21.5 21.5 51 21.5t50.5 -21.5t21 -50.5t-21 -50.5t-50.5 -21.5t-51 21.5t-21.5 50.5t21.5 50.5zM240 670v-650h50v-20h-250v20h50v630h-50v20h200z" />
    <glyph glyph-name="Lslash" unicode="&#x141;" horiz-adv-x="530" 
d="M490 190h20v-190h-470v20h50v272l-70 -37v25l70 37v223h-50v20h260v-20h-60v-144l140 74v-25l-140 -74v-351h100q34 0 56.5 5t46.5 21q47 31 47 144z" />
    <glyph glyph-name="lslash" unicode="&#x142;" horiz-adv-x="360" 
d="M260 20h50v-20h-250v20h50v281l-70 -46v25l70 46v324h-50v20h200v-246l70 46v-25l-70 -46v-379z" />
    <glyph glyph-name="Nacute" unicode="&#x143;" horiz-adv-x="598" 
d="M288 611q17 25 21.5 62t18.5 56.5t35 25t37 -4.5q21 -9 26 -33.5t-10 -45.5t-55 -32t-59 -38zM100 20h80v-20h-160v20h60v476q-32 44 -60 44v20h187l281 -333v313h-80v20h170v-20h-70v-550h-20l-388 481v-451z" />
    <glyph glyph-name="nacute" unicode="&#x144;" horiz-adv-x="645" 
d="M565 20h50v-20h-250v20h50v280q0 71 -21 101t-63 30q-57 0 -91 -60v-351h50v-20h-250v20h50v420h-50v20h200v-52q19 26 59.5 44.5t87.5 18.5q178 0 178 -193v-258zM274 501l-14 10q17 25 21.5 62t18.5 56.5t35 25t37 -4.5q21 -9 26 -33.5t-10 -45.5t-55 -32t-59 -38z" />
    <glyph glyph-name="uni0145" unicode="&#x145;" horiz-adv-x="598" 
d="M338 -144l-24 -4q-18 0 -31.5 12.5t-13.5 34.5t15 37t41 15t42.5 -20t16.5 -46q0 -83 -89 -125l-8 16q62 34 62 70q0 10 -11 10zM100 20h80v-20h-160v20h60v476q-32 44 -60 44v20h187l281 -333v313h-80v20h170v-20h-70v-550h-20l-388 481v-451z" />
    <glyph glyph-name="uni0146" unicode="&#x146;" horiz-adv-x="645" 
d="M565 20h50v-20h-250v20h50v280q0 71 -21 101t-63 30q-57 0 -91 -60v-351h50v-20h-250v20h50v420h-50v20h200v-52q19 26 59.5 44.5t87.5 18.5q178 0 178 -193v-258zM355 -144l-24 -4q-18 0 -31.5 12.5t-13.5 34.5t15 37t41 15t42.5 -20t16.5 -46q0 -83 -89 -125l-8 16
q62 34 62 70q0 10 -11 10z" />
    <glyph glyph-name="Ncaron" unicode="&#x147;" horiz-adv-x="598" 
d="M229 751l88 -40l88 40l9 -9l-88 -128h-19l-87 128zM100 20h80v-20h-160v20h60v476q-32 44 -60 44v20h187l281 -333v313h-80v20h170v-20h-70v-550h-20l-388 481v-451z" />
    <glyph glyph-name="ncaron" unicode="&#x148;" horiz-adv-x="645" 
d="M565 20h50v-20h-250v20h50v280q0 71 -21 101t-63 30q-57 0 -91 -60v-351h50v-20h-250v20h50v420h-50v20h200v-52q19 26 59.5 44.5t87.5 18.5q178 0 178 -193v-258zM316 514h-19l-87 128l9 9l88 -40l88 40l9 -9z" />
    <glyph glyph-name="Eng" unicode="&#x14a;" horiz-adv-x="638" 
d="M410 -252q-33 0 -56.5 22t-23.5 57t19 55t48 20t45.5 -12t27 -23.5t17.5 -11.5q21 0 21 75v28q0 32 -18 54l-370 459v-451h80v-20h-160v20h60v476q-32 44 -60 44v20h187l281 -333v313h-80v20h170v-20h-70v-611q0 -181 -118 -181z" />
    <glyph glyph-name="eng" unicode="&#x14b;" horiz-adv-x="625" 
d="M240 460v-52q19 26 59.5 44.5t87.5 18.5q178 0 178 -193v-278q0 -131 -68.5 -185.5t-200.5 -54.5v20q65 0 92 54t27 166v300q0 71 -21 101t-63 30q-57 0 -91 -60v-351h50v-20h-250v20h50v420h-50v20h200z" />
    <glyph glyph-name="Omacron" unicode="&#x14c;" horiz-adv-x="622" 
d="M410 707v-50h-200v50h200zM406.5 480.5q-34.5 71.5 -95 71.5t-95.5 -72t-35 -201t33.5 -199t96.5 -70q130 0 130 271q0 128 -34.5 199.5zM521 64q-81 -74 -211 -74t-210 73.5t-80 211t80 217.5t212.5 80t211 -79.5t78.5 -217t-81 -211.5z" />
    <glyph glyph-name="omacron" unicode="&#x14d;" horiz-adv-x="564" 
d="M381 607v-50h-200v50h200zM281 10q54 0 77 51t23 168.5t-23 169t-77 51.5t-76 -51.5t-22 -169.5t22 -168.5t76 -50.5zM107 52q-77 62 -77 176q0 61 22.5 109t60 76t80.5 42.5t88 14.5t88.5 -14.5t81 -42.5t60.5 -76t23 -108t-23 -107t-61 -75q-76 -57 -171 -57t-172 62z
" />
    <glyph glyph-name="Obreve" unicode="&#x14e;" horiz-adv-x="622" 
d="M239 745q0 -49 72 -49t72 49h20q0 -60 -20.5 -92.5t-70.5 -32.5q-93 0 -93 125h20zM406.5 480.5q-34.5 71.5 -95 71.5t-95.5 -72t-35 -201t33.5 -199t96.5 -70q130 0 130 271q0 128 -34.5 199.5zM521 64q-81 -74 -211 -74t-210 73.5t-80 211t80 217.5t212.5 80t211 -79.5
t78.5 -217t-81 -211.5z" />
    <glyph glyph-name="obreve" unicode="&#x14f;" horiz-adv-x="564" 
d="M209 645q0 -49 72 -49t72 49h20q0 -60 -20.5 -92.5t-70.5 -32.5q-93 0 -93 125h20zM281 10q54 0 77 51t23 168.5t-23 169t-77 51.5t-76 -51.5t-22 -169.5t22 -168.5t76 -50.5zM107 52q-77 62 -77 176q0 61 22.5 109t60 76t80.5 42.5t88 14.5t88.5 -14.5t81 -42.5
t60.5 -76t23 -108t-23 -107t-61 -75q-76 -57 -171 -57t-172 62z" />
    <glyph glyph-name="Ohungarumlaut" unicode="&#x150;" horiz-adv-x="622" 
d="M230 610q10 28 4.5 65.5t3.5 59.5t27.5 33t36.5 6q23 -4 34 -26.5t2 -46.5t-45 -45t-47 -52zM380 610q10 28 4.5 65.5t3.5 59.5t27.5 33t36.5 6q23 -4 34 -26.5t2 -46.5t-45 -45t-47 -52zM406.5 480.5q-34.5 71.5 -95 71.5t-95.5 -72t-35 -201t33.5 -199t96.5 -70
q130 0 130 271q0 128 -34.5 199.5zM521 64q-81 -74 -211 -74t-210 73.5t-80 211t80 217.5t212.5 80t211 -79.5t78.5 -217t-81 -211.5z" />
    <glyph glyph-name="ohungarumlaut" unicode="&#x151;" horiz-adv-x="564" 
d="M180 500q10 28 4.5 65.5t3.5 59.5t27.5 33t36.5 6q23 -4 34 -26.5t2 -46.5t-45 -45t-47 -52zM330 500q10 28 4.5 65.5t3.5 59.5t27.5 33t36.5 6q23 -4 34 -26.5t2 -46.5t-45 -45t-47 -52zM281 10q54 0 77 51t23 168.5t-23 169t-77 51.5t-76 -51.5t-22 -169.5t22 -168.5
t76 -50.5zM107 52q-77 62 -77 176q0 61 22.5 109t60 76t80.5 42.5t88 14.5t88.5 -14.5t81 -42.5t60.5 -76t23 -108t-23 -107t-61 -75q-76 -57 -171 -57t-172 62z" />
    <glyph glyph-name="OE" unicode="&#x152;" horiz-adv-x="820" 
d="M750 190h20v-190h-449q-132 0 -211.5 67.5t-80 203t79 212.5t212.5 77h439v-170h-20q0 89 -35.5 119.5t-114.5 30.5h-70v-240h20q72 0 91 18t19 72h20v-200h-20q0 56 -19 73t-91 17h-20v-260h80q150 0 150 170zM370 20v520h-49q-61 0 -96 -69t-34.5 -196t34 -191
t96.5 -64h49z" />
    <glyph glyph-name="oe" unicode="&#x153;" horiz-adv-x="874" 
d="M841 200h-305q10 -176 137 -176q34 0 77.5 16t63.5 45l14 -10q-22 -37 -75 -61t-107 -24q-127 0 -192 60q-73 -60 -171.5 -60t-175.5 62t-77 176q0 61 22.5 109t59.5 76q77 57 173.5 57t168.5 -60q66 60 163.5 60t160.5 -64.5t63 -205.5zM535 220h163q0 92 -19.5 161
t-62.5 69t-62 -66.5t-19 -152.5v-11zM281 10q54 0 77 51t23 168.5t-23 169t-77 51.5t-76 -51.5t-22 -169.5t22 -168.5t76 -50.5z" />
    <glyph glyph-name="Racute" unicode="&#x154;" horiz-adv-x="633" 
d="M268 609q17 25 21.5 62t18.5 56.5t35 25t37 -4.5q21 -9 26 -33.5t-10 -45.5t-55 -32t-59 -38zM230 540v-258q100 0 134 29t34 97t-35 100t-133 32zM623 -10h-44q-125 0 -174 54q-39 42 -53 111q-6 29 -13 53q-16 54 -65 54h-44v-242h50v-20h-250v20h50v520h-50v20h263
q255 0 255 -149q0 -59 -43 -96t-110 -37v-7q100 0 139 -132q20 -70 40.5 -99.5t48.5 -29.5v-20z" />
    <glyph glyph-name="racute" unicode="&#x155;" horiz-adv-x="483" 
d="M210 511q17 25 21.5 62t18.5 56.5t35 25t37 -4.5q21 -9 26 -33.5t-10 -45.5t-55 -32t-59 -38zM290 0h-250v20h50v420h-50v20h200v-119q9 49 32.5 80t52 41t55 10t51 -9.5t36.5 -38t1 -57t-38.5 -40.5t-50.5 -3t-33 24.5t-14 29.5q-10 37 -27 37q-19 0 -42 -65.5
t-23 -138.5v-191h50v-20z" />
    <glyph glyph-name="uni0156" unicode="&#x156;" horiz-adv-x="633" 
d="M378 -144l-24 -4q-18 0 -31.5 12.5t-13.5 34.5t15 37t41 15t42.5 -20t16.5 -46q0 -83 -89 -125l-8 16q62 34 62 70q0 10 -11 10zM230 540v-258q100 0 134 29t34 97t-35 100t-133 32zM623 -10h-44q-125 0 -174 54q-39 42 -53 111q-6 29 -13 53q-16 54 -65 54h-44v-242h50
v-20h-250v20h50v520h-50v20h263q255 0 255 -149q0 -59 -43 -96t-110 -37v-7q100 0 139 -132q20 -70 40.5 -99.5t48.5 -29.5v-20z" />
    <glyph glyph-name="uni0157" unicode="&#x157;" horiz-adv-x="483" 
d="M180 -144l-24 -4q-18 0 -31.5 12.5t-13.5 34.5t15 37t41 15t42.5 -20t16.5 -46q0 -83 -89 -125l-8 16q62 34 62 70q0 10 -11 10zM290 0h-250v20h50v420h-50v20h200v-119q9 49 32.5 80t52 41t55 10t51 -9.5t36.5 -38t1 -57t-38.5 -40.5t-50.5 -3t-33 24.5t-14 29.5
q-10 37 -27 37q-19 0 -42 -65.5t-23 -138.5v-191h50v-20z" />
    <glyph glyph-name="Rcaron" unicode="&#x158;" horiz-adv-x="633" 
d="M199 751l88 -40l88 40l9 -9l-88 -128h-19l-87 128zM230 540v-258q100 0 134 29t34 97t-35 100t-133 32zM623 -10h-44q-125 0 -174 54q-39 42 -53 111q-6 29 -13 53q-16 54 -65 54h-44v-242h50v-20h-250v20h50v520h-50v20h263q255 0 255 -149q0 -59 -43 -96t-110 -37v-7
q100 0 139 -132q20 -70 40.5 -99.5t48.5 -29.5v-20z" />
    <glyph glyph-name="rcaron" unicode="&#x159;" horiz-adv-x="483" 
d="M169 651l88 -40l88 40l9 -9l-88 -128h-19l-87 128zM290 0h-250v20h50v420h-50v20h200v-119q9 49 32.5 80t52 41t55 10t51 -9.5t36.5 -38t1 -57t-38.5 -40.5t-50.5 -3t-33 24.5t-14 29.5q-10 37 -27 37q-19 0 -42 -65.5t-23 -138.5v-191h50v-20z" />
    <glyph glyph-name="Sacute" unicode="&#x15a;" horiz-adv-x="513" 
d="M242 601l-14 10q17 25 21.5 62t18.5 56.5t35 25t37 -4.5q21 -9 26 -33.5t-10 -45.5t-55 -32t-59 -38zM80 0h-20v233h20q0 -94 67.5 -160t164.5 -66q40 0 64.5 23.5t24.5 62.5q0 44 -57 75q-31 16 -107 50.5t-107 58.5q-62 48 -54.5 127t59.5 122.5t117.5 43.5t118 -17.5
t59.5 -17.5q20 0 20 35h20v-183h-20q0 72 -53 117.5t-136 45.5q-37 0 -58 -21.5t-21 -47.5t7 -40t24.5 -25.5t30.5 -18.5t41.5 -19t39.5 -17q55 -25 65 -29.5t29 -14.5t28.5 -18t24.5 -20t22 -24.5t14 -28.5q14 -32 10 -75q-8 -81 -60.5 -123.5t-141.5 -42.5q-80 0 -159 41
q-27 14 -40 14q-37 0 -37 -40z" />
    <glyph glyph-name="sacute" unicode="&#x15b;" horiz-adv-x="476" 
d="M215 511q17 25 21.5 62t18.5 56.5t35 25t37 -4.5q21 -9 26 -33.5t-10 -45.5t-55 -32t-59 -38zM265 8q104 0 104 57q0 32 -36 52.5t-87 33.5t-100.5 30t-82 54t-26.5 97t61.5 99t137 39t131.5 -26t56 -70q4 -27 -8.5 -50t-41 -24t-47 15t-17.5 37t16 37.5t15 26.5
q0 17 -32.5 25.5t-75 8.5t-69.5 -19t-27 -47t33.5 -48t81.5 -32.5t95.5 -28t81 -49.5t33.5 -86q0 -69 -49 -110.5t-148 -41.5t-160.5 30t-67.5 77q-4 27 9 50t41 24t46.5 -15t17.5 -37t-16 -37.5t-15 -26.5q0 -20 46.5 -32.5t99.5 -12.5z" />
    <glyph glyph-name="Scircumflex" unicode="&#x15c;" horiz-adv-x="513" 
d="M80 0h-20v233h20q0 -94 67.5 -160t164.5 -66q40 0 64.5 23.5t24.5 62.5q0 44 -57 75q-31 16 -107 50.5t-107 58.5q-62 48 -54.5 127t59.5 122.5t117.5 43.5t118 -17.5t59.5 -17.5q20 0 20 35h20v-183h-20q0 72 -53 117.5t-136 45.5q-37 0 -58 -21.5t-21 -47.5t7 -40
t24.5 -25.5t30.5 -18.5t41.5 -19t39.5 -17q55 -25 65 -29.5t29 -14.5t28.5 -18t24.5 -20t22 -24.5t14 -28.5q14 -32 10 -75q-8 -81 -60.5 -123.5t-141.5 -42.5q-80 0 -159 41q-27 14 -40 14q-37 0 -37 -40zM191 614l-9 9l87 128h19l88 -128l-9 -9l-88 40z" />
    <glyph glyph-name="scircumflex" unicode="&#x15d;" horiz-adv-x="476" 
d="M154 514l-9 9l87 128h19l88 -128l-9 -9l-88 40zM265 8q104 0 104 57q0 32 -36 52.5t-87 33.5t-100.5 30t-82 54t-26.5 97t61.5 99t137 39t131.5 -26t56 -70q4 -27 -8.5 -50t-41 -24t-47 15t-17.5 37t16 37.5t15 26.5q0 17 -32.5 25.5t-75 8.5t-69.5 -19t-27 -47t33.5 -48
t81.5 -32.5t95.5 -28t81 -49.5t33.5 -86q0 -69 -49 -110.5t-148 -41.5t-160.5 30t-67.5 77q-4 27 9 50t41 24t46.5 -15t17.5 -37t-16 -37.5t-15 -26.5q0 -20 46.5 -32.5t99.5 -12.5z" />
    <glyph glyph-name="uni015E" unicode="&#x15e;" horiz-adv-x="513" 
d="M470 387h-20q0 72 -53 117.5t-136 45.5q-37 0 -58 -21.5t-21 -47.5t7 -40t24.5 -25.5t30.5 -18.5t41.5 -19t39.5 -17q55 -25 65 -29.5t29 -14.5t28.5 -18t24.5 -20t22 -24.5t14 -28.5q14 -32 10 -75q-8 -81 -60.5 -123.5t-141.5 -42.5q-16 0 -24 1l-35 -63
q50 -1 82.5 -23.5t28.5 -59.5q-8 -82 -101 -78q-29 1 -51 12.5t-29 22.5l-7 11l16 15q23 -40 59.5 -37.5t44.5 43.5q6 36 -19 57.5t-59 21.5l44 81q-43 7 -90 29t-59 22q-37 0 -37 -40h-20v233h20q0 -94 67.5 -160t164.5 -66q40 0 64.5 23.5t24.5 62.5q0 44 -57 75
q-31 16 -107 50.5t-107 58.5q-62 48 -54.5 127t59.5 122.5t117.5 43.5t118 -17.5t59.5 -17.5q20 0 20 35h20v-183z" />
    <glyph glyph-name="uni015F" unicode="&#x15f;" horiz-adv-x="476" 
d="M119 53q0 -20 46.5 -32.5t99.5 -12.5q104 0 104 57q0 32 -36 52.5t-87 33.5t-100.5 30t-82 54t-26.5 97t61.5 99t137 39t131.5 -26t56 -70q4 -27 -8.5 -50t-41 -24t-47 15t-17.5 37t16 37.5t15 26.5q0 17 -32.5 25.5t-75 8.5t-69.5 -19t-27 -47t33.5 -48t81.5 -32.5
t95.5 -28t81 -49.5t33.5 -93t-46 -100.5t-137 -44.5l-36 -65q50 -1 82.5 -23.5t28.5 -59.5q-8 -82 -101 -78q-29 1 -51 12.5t-29 22.5l-7 11l16 15q23 -40 59.5 -37.5t44.5 43.5q6 36 -19 57.5t-59 21.5l43 80q-93 2 -150.5 32t-63.5 75q-4 27 9 50t41 24t46.5 -15t17.5 -37
t-16 -37.5t-15 -26.5z" />
    <glyph glyph-name="Scaron" unicode="&#x160;" horiz-adv-x="513" 
d="M80 0h-20v233h20q0 -94 67.5 -160t164.5 -66q40 0 64.5 23.5t24.5 62.5q0 44 -57 75q-31 16 -107 50.5t-107 58.5q-62 48 -54.5 127t59.5 122.5t117.5 43.5t118 -17.5t59.5 -17.5q20 0 20 35h20v-183h-20q0 72 -53 117.5t-136 45.5q-37 0 -58 -21.5t-21 -47.5t7 -40
t24.5 -25.5t30.5 -18.5t41.5 -19t39.5 -17q55 -25 65 -29.5t29 -14.5t28.5 -18t24.5 -20t22 -24.5t14 -28.5q14 -32 10 -75q-8 -81 -60.5 -123.5t-141.5 -42.5q-80 0 -159 41q-27 14 -40 14q-37 0 -37 -40zM181 751l88 -40l88 40l9 -9l-88 -128h-19l-87 128z" />
    <glyph glyph-name="scaron" unicode="&#x161;" horiz-adv-x="476" 
d="M154 651l88 -40l88 40l9 -9l-88 -128h-19l-87 128zM265 8q104 0 104 57q0 32 -36 52.5t-87 33.5t-100.5 30t-82 54t-26.5 97t61.5 99t137 39t131.5 -26t56 -70q4 -27 -8.5 -50t-41 -24t-47 15t-17.5 37t16 37.5t15 26.5q0 17 -32.5 25.5t-75 8.5t-69.5 -19t-27 -47
t33.5 -48t81.5 -32.5t95.5 -28t81 -49.5t33.5 -86q0 -69 -49 -110.5t-148 -41.5t-160.5 30t-67.5 77q-4 27 9 50t41 24t46.5 -15t17.5 -37t-16 -37.5t-15 -26.5q0 -20 46.5 -32.5t99.5 -12.5z" />
    <glyph glyph-name="uni0162" unicode="&#x162;" horiz-adv-x="569" 
d="M308 -144l-24 -4q-18 0 -31.5 12.5t-13.5 34.5t15 37t41 15t42.5 -20t16.5 -46q0 -83 -89 -125l-8 16q62 34 62 70q0 10 -11 10zM529 390q0 89 -29.5 119.5t-110.5 30.5h-30v-520h70v-20h-290v20h70v520h-30q-80 0 -109.5 -30.5t-29.5 -119.5h-20v170h529v-170h-20z" />
    <glyph glyph-name="uni0163" unicode="&#x163;" horiz-adv-x="361" 
d="M224 440v-244q0 -86 7 -104.5t15 -31.5q15 -26 52.5 -26t52.5 10v-20q-48 -34 -105 -34q-84 0 -128 40t-44 143v267h-74v20h74q48 8 85 46.5t51 106.5h14v-153h116v-20h-116zM228 -144l-24 -4q-18 0 -31.5 12.5t-13.5 34.5t15 37t41 15t42.5 -20t16.5 -46q0 -83 -89 -125
l-8 16q62 34 62 70q0 10 -11 10z" />
    <glyph glyph-name="Tcaron" unicode="&#x164;" horiz-adv-x="569" 
d="M203 751l88 -40l88 40l9 -9l-88 -128h-19l-87 128zM529 390q0 89 -29.5 119.5t-110.5 30.5h-30v-520h70v-20h-290v20h70v520h-30q-80 0 -109.5 -30.5t-29.5 -119.5h-20v170h529v-170h-20z" />
    <glyph glyph-name="tcaron" unicode="&#x165;" horiz-adv-x="388" 
d="M224 440v-244q0 -86 7 -104.5t15 -31.5q15 -26 52.5 -26t52.5 10v-20q-48 -34 -105 -34q-84 0 -128 40t-44 143v267h-74v20h74q48 8 85 46.5t51 106.5h14v-153h116v-20h-116zM327 592l-27 -5q-19 0 -34.5 13.5t-15.5 38t16.5 41.5t45.5 17t48 -22.5t19 -50.5
q0 -87 -104 -134l-5 12q69 40 69 78q0 12 -12 12z" />
    <glyph glyph-name="Tbar" unicode="&#x166;" horiz-adv-x="549" 
d="M419 20v-20h-290v20h70v250h-120v20h120v250q-93 0 -131 -30t-38 -120h-20v170h529v-170h-20q0 90 -38.5 120t-131.5 30v-250h120v-20h-120v-250h70z" />
    <glyph glyph-name="tbar" unicode="&#x167;" horiz-adv-x="381" 
d="M234 270v-74q0 -86 7 -104.5t15 -31.5q15 -26 52.5 -26t52.5 10v-20q-48 -34 -105 -34q-84 0 -128 40t-44 143v97h-74v20h74v150h-74v20h74q47 8 84.5 45t51.5 98h14v-143h116v-20h-116v-150h116v-20h-116z" />
    <glyph glyph-name="Utilde" unicode="&#x168;" horiz-adv-x="605" 
d="M287 630h-20q0 96 67 96q19 0 45 -15.5t40 -15.5q26 0 26 26h20q0 -96 -68 -96q-20 0 -46 16t-40 16q-24 0 -24 -27zM545 244q0 -259 -218 -259q-121 0 -189 62t-68 187v306h-50v20h260v-20h-50v-317q0 -209 140 -209q57 0 103.5 56.5t46.5 153.5v316h-79v20h154v-20h-50
v-296z" />
    <glyph glyph-name="utilde" unicode="&#x169;" horiz-adv-x="620" 
d="M210 537h-20q0 96 67 96q19 0 45 -15.5t40 -15.5q26 0 26 26h20q0 -96 -68 -96q-20 0 -46 16t-40 16q-24 0 -24 -27zM385 0v53q-19 -27 -59.5 -45.5t-87.5 -18.5q-178 0 -178 193v258h-50v20h200v-300q0 -71 21 -101t63 -30q56 0 91 60v351h-50v20h200v-440h50v-20h-200z
" />
    <glyph glyph-name="Umacron" unicode="&#x16a;" horiz-adv-x="605" 
d="M459 707v-50h-200v50h200zM545 244q0 -259 -218 -259q-121 0 -189 62t-68 187v306h-50v20h260v-20h-50v-317q0 -209 140 -209q57 0 103.5 56.5t46.5 153.5v316h-79v20h154v-20h-50v-296z" />
    <glyph glyph-name="umacron" unicode="&#x16b;" horiz-adv-x="620" 
d="M395 607v-50h-200v50h200zM385 0v53q-19 -27 -59.5 -45.5t-87.5 -18.5q-178 0 -178 193v258h-50v20h200v-300q0 -71 21 -101t63 -30q56 0 91 60v351h-50v20h200v-440h50v-20h-200z" />
    <glyph glyph-name="Ubreve" unicode="&#x16c;" horiz-adv-x="605" 
d="M286 745q0 -49 72 -49t72 49h20q0 -60 -20.5 -92.5t-70.5 -32.5q-93 0 -93 125h20zM545 244q0 -259 -218 -259q-121 0 -189 62t-68 187v306h-50v20h260v-20h-50v-317q0 -209 140 -209q57 0 103.5 56.5t46.5 153.5v316h-79v20h154v-20h-50v-296z" />
    <glyph glyph-name="ubreve" unicode="&#x16d;" horiz-adv-x="620" 
d="M215 645q0 -49 72 -49t72 49h20q0 -60 -20.5 -92.5t-70.5 -32.5q-93 0 -93 125h20zM385 0v53q-19 -27 -59.5 -45.5t-87.5 -18.5q-178 0 -178 193v258h-50v20h200v-300q0 -71 21 -101t63 -30q56 0 91 60v351h-50v20h200v-440h50v-20h-200z" />
    <glyph glyph-name="Uring" unicode="&#x16e;" horiz-adv-x="605" 
d="M420 623q-25 -25 -59.5 -25t-59 24.5t-24.5 59.5t24.5 60t58.5 25t59.5 -25.5t25.5 -59.5t-25 -59zM360 635q18 0 31 14.5t13 33t-12.5 31.5t-31.5 13t-31 -13t-12 -31.5t12.5 -33t30.5 -14.5zM545 244q0 -259 -218 -259q-121 0 -189 62t-68 187v306h-50v20h260v-20h-50
v-317q0 -209 140 -209q57 0 103.5 56.5t46.5 153.5v316h-79v20h154v-20h-50v-296z" />
    <glyph glyph-name="uring" unicode="&#x16f;" horiz-adv-x="620" 
d="M346 523q-25 -25 -59.5 -25t-59 24.5t-24.5 59.5t24.5 60t58.5 25t59.5 -25.5t25.5 -59.5t-25 -59zM286 535q18 0 31 14.5t13 33t-12.5 31.5t-31.5 13t-31 -13t-12 -31.5t12.5 -33t30.5 -14.5zM385 0v53q-19 -27 -59.5 -45.5t-87.5 -18.5q-178 0 -178 193v258h-50v20h200
v-300q0 -71 21 -101t63 -30q56 0 91 60v351h-50v20h200v-440h50v-20h-200z" />
    <glyph glyph-name="Uhungarumlaut" unicode="&#x170;" horiz-adv-x="605" 
d="M270 600q10 28 4.5 65.5t3.5 59.5t27.5 33t36.5 6q23 -4 34 -26.5t2 -46.5t-45 -45t-47 -52zM420 600q10 28 4.5 65.5t3.5 59.5t27.5 33t36.5 6q23 -4 34 -26.5t2 -46.5t-45 -45t-47 -52zM545 244q0 -259 -218 -259q-121 0 -189 62t-68 187v306h-50v20h260v-20h-50v-317
q0 -209 140 -209q57 0 103.5 56.5t46.5 153.5v316h-79v20h154v-20h-50v-296z" />
    <glyph glyph-name="uhungarumlaut" unicode="&#x171;" horiz-adv-x="620" 
d="M200 500q10 28 4.5 65.5t3.5 59.5t27.5 33t36.5 6q23 -4 34 -26.5t2 -46.5t-45 -45t-47 -52zM350 500q10 28 4.5 65.5t3.5 59.5t27.5 33t36.5 6q23 -4 34 -26.5t2 -46.5t-45 -45t-47 -52zM385 0v53q-19 -27 -59.5 -45.5t-87.5 -18.5q-178 0 -178 193v258h-50v20h200v-300
q0 -71 21 -101t63 -30q56 0 91 60v351h-50v20h200v-440h50v-20h-200z" />
    <glyph glyph-name="Uogonek" unicode="&#x172;" horiz-adv-x="605" 
d="M441 560h154v-20h-50v-296q0 -236 -182 -257q-51 -78 -11 -108q31 -21 56 2l10 -12q-36 -46 -82 -46q-39 0 -57 27q-32 48 52 135h-4q-121 0 -189 62t-68 187v306h-50v20h260v-20h-50v-317q0 -209 140 -209q57 0 103.5 56.5t46.5 153.5v316h-79v20z" />
    <glyph glyph-name="uogonek" unicode="&#x173;" horiz-adv-x="620" 
d="M585 0h-173q-64 -88 -20 -121q31 -21 56 2l10 -12q-36 -46 -82 -46q-43 0 -59 29q-18 32 15 84q18 30 54 64h-1v53q-19 -27 -59.5 -45.5t-87.5 -18.5q-178 0 -178 193v258h-50v20h200v-300q0 -71 21 -101t63 -30q56 0 91 60v351h-50v20h200v-440h50v-20z" />
    <glyph glyph-name="Wcircumflex" unicode="&#x174;" horiz-adv-x="919" 
d="M397 614l-9 9l87 128h19l88 -128l-9 -9l-88 40zM10 540v20h293v-20h-49l137 -309l64 159l-67 150h-38v20h274v-20h-47l134 -305l106 305h-80v20h172v-20h-68l-187 -540h-24l4 11l-5 -11l-161 362l-145 -362h-24l-241 540h-48z" />
    <glyph glyph-name="wcircumflex" unicode="&#x175;" horiz-adv-x="830" 
d="M10 440v20h270v-20h-53l108 -242l65 163l-33 79h-37v20h250v-20h-44l108 -242l93 242h-80v20h163v-20h-60l-169 -440h-21l-158 331l-131 -331h-21l-203 440h-47zM359 514l-9 9l87 128h19l88 -128l-9 -9l-88 40z" />
    <glyph glyph-name="Ycircumflex" unicode="&#x176;" horiz-adv-x="616" 
d="M241 614l-9 9l87 128h19l88 -128l-9 -9l-88 40zM431 0h-230v20h40v211l-179 309h-52v20h280v-20h-49l140 -252l130 252h-80v20h175v-20h-70l-145 -282v-238h40v-20z" />
    <glyph glyph-name="ycircumflex" unicode="&#x177;" horiz-adv-x="542" 
d="M195 -194.5q-30 -25.5 -80 -25.5t-78 21.5t-28 57t20.5 56.5t49.5 21t49 -11t28 -24q22 -35 41.5 -35t34.5 34l42 99l-234 441h-40v20h269v-20h-50l134 -264l115 264h-80v20h164v-20h-60l-240 -551q-27 -58 -57 -83.5zM239 514l-9 9l87 128h19l88 -128l-9 -9l-88 40z" />
    <glyph glyph-name="Ydieresis" unicode="&#x178;" horiz-adv-x="616" 
d="M319 726.5q18 -18.5 18 -44t-18 -43.5t-43.5 -18t-44.5 18t-19 43.5t19 44t44.5 18.5t43.5 -18.5zM490.5 727q17.5 -18 17.5 -44.5t-17.5 -44t-43.5 -17.5t-44 18t-18 43.5t18 44t44 18.5t43.5 -18zM431 0h-230v20h40v211l-179 309h-52v20h280v-20h-49l140 -252l130 252
h-80v20h175v-20h-70l-145 -282v-238h40v-20z" />
    <glyph glyph-name="Zacute" unicode="&#x179;" horiz-adv-x="529" 
d="M469 210h20v-210h-459v20l283 520h-64q-93 0 -131 -33t-38 -137h-20v190h422v-20l-287 -520h105q47 0 76 6.5t52 25.5q41 36 41 158zM262 601l-14 10q17 25 21.5 62t18.5 56.5t35 25t37 -4.5q21 -9 26 -33.5t-10 -45.5t-55 -32t-59 -38z" />
    <glyph glyph-name="zacute" unicode="&#x17a;" horiz-adv-x="492" 
d="M239 501l-14 10q17 25 21.5 62t18.5 56.5t35 25t37 -4.5q21 -9 26 -33.5t-10 -45.5t-55 -32t-59 -38zM10 0v15l283 425h-59q-177 0 -177 -165h-16v185h421v-12l-280 -428h61q54 0 87 6t60 24q52 35 52 149h14v-199h-446z" />
    <glyph glyph-name="Zdotaccent" unicode="&#x17b;" horiz-adv-x="529" 
d="M469 210h20v-210h-459v20l283 520h-64q-93 0 -131 -33t-38 -137h-20v190h422v-20l-287 -520h105q47 0 76 6.5t52 25.5q41 36 41 158zM315 639q-18 -18 -43.5 -18t-44.5 18t-19 43.5t19 44t44.5 18.5t43.5 -18.5t18 -44t-18 -43.5z" />
    <glyph glyph-name="zdotaccent" unicode="&#x17c;" horiz-adv-x="492" 
d="M10 0v15l283 425h-59q-177 0 -177 -165h-16v185h421v-12l-280 -428h61q54 0 87 6t60 24q52 35 52 149h14v-199h-446zM307 626.5q18 -18.5 18 -44t-18 -43.5t-43.5 -18t-44.5 18t-19 43.5t19 44t44.5 18.5t43.5 -18.5z" />
    <glyph glyph-name="Zcaron" unicode="&#x17d;" horiz-adv-x="529" 
d="M469 210h20v-210h-459v20l283 520h-64q-93 0 -131 -33t-38 -137h-20v190h422v-20l-287 -520h105q47 0 76 6.5t52 25.5q41 36 41 158zM281 614h-19l-87 128l9 9l88 -40l88 40l9 -9z" />
    <glyph glyph-name="zcaron" unicode="&#x17e;" horiz-adv-x="492" 
d="M10 0v15l283 425h-59q-177 0 -177 -165h-16v185h421v-12l-280 -428h61q54 0 87 6t60 24q52 35 52 149h14v-199h-446zM179 651l88 -40l88 40l9 -9l-88 -128h-19l-87 128z" />
    <glyph glyph-name="florin" unicode="&#x192;" horiz-adv-x="580" 
d="M495 680q63 0 105 -28t49.5 -69.5t-12 -62t-50.5 -20.5t-54 18.5t-23 58.5v15q0 9 0.5 14.5t0 13.5t-1 12.5t-1 10.5t-2.5 8.5t-4.5 6t-6 3t-8.5 -0.5q-56 -15 -89 -200l-26 -150h133v-20h-137l-51 -290q-39 -220 -247 -220q-63 0 -103 27.5t-47 68t16 62.5t54 22
q65 0 65 -77v-15q0 -9 -0.5 -14.5t0 -13.5t1 -12.5t1 -10.5t2.5 -8.5t4.5 -6t6 -3t8.5 0.5q56 15 89 200l51 290h-123v20h127l26 150q39 220 247 220z" />
    <glyph glyph-name="AEacute" unicode="&#x1fc;" horiz-adv-x="820" 
d="M780 190h20v-190h-460v20h60v169h-200l-102 -169h73v-20h-171v20h71l312 519h-63v21h470v-170h-20q0 89 -35.5 119.5t-114.5 30.5h-70v-240h20q72 0 91 18t19 72h20v-200h-20q0 56 -19 73t-91 17h-20v-260h80q150 0 150 170zM400 210v312l-188 -312h188zM483 601l-14 10
q17 25 21.5 62t18.5 56.5t35 25t37 -4.5q21 -9 26 -33.5t-10 -45.5t-55 -32t-59 -38z" />
    <glyph glyph-name="aeacute" unicode="&#x1fd;" horiz-adv-x="792" 
d="M463 220h162q0 92 -19.5 161t-62.5 69q-38 0 -57 -52.5t-23 -127.5v-50zM253 34q52 0 91 22q1 1 4 2.5t4 2.5q-39 60 -39 173l-36 -5q-46 -6 -74.5 -35t-24.5 -81q5 -38 28 -58.5t47 -20.5zM573 -10q-158 0 -209 56q-53 -54 -169 -54q-143 0 -156 101q-8 65 46.5 102
t187.5 53l40 5v49q0 87 -13 117t-58 30q-24 0 -40 -8q-28 -15 -13 -38q19 -21 19 -55.5t-21.5 -56t-52.5 -21.5t-52.5 20.5t-21.5 55t28 64.5q56 58 180 58q94 0 141 -47q23 23 63 36t79 13q91 0 154 -64.5t63 -205.5h-305v-12q4 -93 35 -128.5t102 -35.5q34 0 77.5 16
t63.5 45l14 -10q-22 -37 -75 -61t-107 -24zM402 501l-14 10q17 25 21.5 62t18.5 56.5t35 25t37 -4.5q21 -9 26 -33.5t-10 -45.5t-55 -32t-59 -38z" />
    <glyph glyph-name="Oslashacute" unicode="&#x1fe;" horiz-adv-x="702" 
d="M570 486q72 -80 72 -214t-81 -208t-210.5 -74t-206.5 70l-70 -70l-14 15l69 69q-69 77 -69 207.5t80 210.5t209 80t206 -72l72 72l15 -14zM351 552q-60 0 -95 -72t-35 -199q0 -63 7 -108l241 241q-31 138 -118 138zM351 10q130 0 130 271q0 57 -8 108l-240 -240
q27 -139 118 -139zM355 601l-14 10q17 25 21.5 62t18.5 56.5t35 25t37 -4.5q21 -9 26 -33.5t-10 -45.5t-55 -32t-59 -38z" />
    <glyph glyph-name="oslashacute" unicode="&#x1ff;" horiz-adv-x="564" 
d="M534 228q0 -59 -23 -106t-61 -75q-76 -57 -172.5 -57t-169.5 61l-64 -61l-14 14l64 60q-64 64 -64 164q0 61 22.5 109t59.5 76q77 57 174 57t170 -61l64 61l14 -14l-64 -61q64 -66 64 -167zM281 450q-54 0 -76 -51.5t-22 -170.5q0 -43 3 -76l189 180q-8 61 -30.5 89.5
t-63.5 28.5zM281 10q54 0 77 51t23 167q0 44 -3 80l-190 -181q8 -61 30.5 -89t62.5 -28zM284 501l-14 10q17 25 21.5 62t18.5 56.5t35 25t37 -4.5q21 -9 26 -33.5t-10 -45.5t-55 -32t-59 -38z" />
    <glyph glyph-name="uni0218" unicode="&#x218;" horiz-adv-x="513" 
d="M80 0h-20v233h20q0 -94 67.5 -160t164.5 -66q40 0 64.5 23.5t24.5 62.5q0 44 -57 75q-31 16 -107 50.5t-107 58.5q-62 48 -54.5 127t59.5 122.5t117.5 43.5t118 -17.5t59.5 -17.5q20 0 20 35h20v-183h-20q0 72 -53 117.5t-136 45.5q-37 0 -58 -21.5t-21 -47.5t7 -40
t24.5 -25.5t30.5 -18.5t41.5 -19t39.5 -17q55 -25 65 -29.5t29 -14.5t28.5 -18t24.5 -20t22 -24.5t14 -28.5q14 -32 10 -75q-8 -81 -60.5 -123.5t-141.5 -42.5q-80 0 -159 41q-27 14 -40 14q-37 0 -37 -40zM288 -144l-24 -4q-18 0 -31.5 12.5t-13.5 34.5t15 37t41 15
t42.5 -20t16.5 -46q0 -83 -89 -125l-8 16q62 34 62 70q0 10 -11 10z" />
    <glyph glyph-name="uni0219" unicode="&#x219;" horiz-adv-x="476" 
d="M244 -144l-24 -4q-18 0 -31.5 12.5t-13.5 34.5t15 37t41 15t42.5 -20t16.5 -46q0 -83 -89 -125l-8 16q62 34 62 70q0 10 -11 10zM265 8q104 0 104 57q0 32 -36 52.5t-87 33.5t-100.5 30t-82 54t-26.5 97t61.5 99t137 39t131.5 -26t56 -70q4 -27 -8.5 -50t-41 -24t-47 15
t-17.5 37t16 37.5t15 26.5q0 17 -32.5 25.5t-75 8.5t-69.5 -19t-27 -47t33.5 -48t81.5 -32.5t95.5 -28t81 -49.5t33.5 -86q0 -69 -49 -110.5t-148 -41.5t-160.5 30t-67.5 77q-4 27 9 50t41 24t46.5 -15t17.5 -37t-16 -37.5t-15 -26.5q0 -20 46.5 -32.5t99.5 -12.5z" />
    <glyph glyph-name="circumflex" unicode="&#x2c6;" horiz-adv-x="594" 
d="M209 514l-9 9l87 128h19l88 -128l-9 -9l-88 40z" />
    <glyph glyph-name="caron" unicode="&#x2c7;" horiz-adv-x="594" 
d="M209 651l88 -40l88 40l9 -9l-88 -128h-19l-87 128z" />
    <glyph glyph-name="breve" unicode="&#x2d8;" horiz-adv-x="584" 
d="M220 645q0 -49 72 -49t72 49h20q0 -60 -20.5 -92.5t-70.5 -32.5q-93 0 -93 125h20z" />
    <glyph glyph-name="dotaccent" unicode="&#x2d9;" horiz-adv-x="525" 
d="M307 626.5q18 -18.5 18 -44t-18 -43.5t-43.5 -18t-44.5 18t-19 43.5t19 44t44.5 18.5t43.5 -18.5z" />
    <glyph glyph-name="ring" unicode="&#x2da;" horiz-adv-x="568" 
d="M343 523q-25 -25 -59.5 -25t-59 24.5t-24.5 59.5t24.5 60t59 25t59.5 -25.5t25 -59.5t-25 -59zM283 535q18 0 31 14.5t13 33t-12.5 31.5t-31.5 13t-31 -13t-12 -31.5t12.5 -33t30.5 -14.5z" />
    <glyph glyph-name="ogonek" unicode="&#x2db;" horiz-adv-x="548" 
d="M364 -131q-36 -46 -76.5 -46t-60 20t-3.5 65t80 103l15 -10q-65 -89 -21 -122q31 -21 56 2z" />
    <glyph glyph-name="tilde" unicode="&#x2dc;" horiz-adv-x="598" 
d="M220 537h-20q0 96 67 96q19 0 45 -15.5t40 -15.5q26 0 26 26h20q0 -96 -68 -96q-20 0 -46 16t-40 16q-24 0 -24 -27z" />
    <glyph glyph-name="hungarumlaut" unicode="&#x2dd;" horiz-adv-x="661" 
d="M201 500q10 28 4.5 65.5t3.5 59.5t27.5 33t36.5 6q23 -4 34 -26.5t2 -46.5t-45 -45t-47 -52zM351 500q10 28 4.5 65.5t3.5 59.5t27.5 33t36.5 6q23 -4 34 -26.5t2 -46.5t-45 -45t-47 -52z" />
    <glyph glyph-name="uni0901" unicode="&#x901;" horiz-adv-x="0" 
d="M-80 853q0 -29 -20 -49t-48 -20t-48.5 20t-20.5 48.5t20 48.5t48.5 20t48.5 -19.5t20 -48.5zM-148 631q-78 0 -125 44.5t-45 122.5l2 2l10 2l2 -1q8 -35 49.5 -56t107 -21t107 21t49.5 56l2 1l10 -2l2 -2q2 -78 -45.5 -122.5t-125.5 -44.5z" />
    <glyph glyph-name="uni0902" unicode="&#x902;" horiz-adv-x="0" 
d="M-82 691q0 -29 -20 -48.5t-48 -19.5t-48 19.5t-20 48.5t20 49t48 20t48 -20t20 -49z" />
    <glyph glyph-name="uni0903" unicode="&#x903;" horiz-adv-x="217" 
d="M177 446q0 -28 -20 -48t-48.5 -20t-48.5 20t-20 48.5t20 48.5t48 20t48.5 -20.5t20.5 -48.5zM177 146q0 -28 -20 -48t-48.5 -20t-48.5 20t-20 48.5t20 48.5t48 20t48.5 -20.5t20.5 -48.5z" />
    <glyph glyph-name="uni0905" unicode="&#x905;" horiz-adv-x="709" 
d="M729 560v-20h-100v-540h-140v217h-74v-4q0 -82 -63 -124t-166 -42q-177 0 -177 142q0 39 22 64t56 25t53.5 -19t19.5 -46t-15 -43t-33 -20q-47 -13 -47 -34t25.5 -33t56.5 -12q123 0 123 142q0 61 -29 94t-101 33h-15v20h15q105 0 105 103q0 77 -73 77q-36 0 -65 -23
l-8 14q54 41 131.5 41t114 -29t36.5 -72q0 -89 -118 -114v-4q63 -4 103 -33.5t47 -82.5h76v303h-57v20h297z" />
    <glyph glyph-name="uni0906" unicode="&#x906;" horiz-adv-x="1009" 
d="M1029 560v-20h-100v-540h-140v540h-160v-540h-140v217h-74v-4q0 -82 -63 -124t-166 -42q-177 0 -177 142q0 39 22 64t56 25t53.5 -19t19.5 -46t-15 -43t-33 -20q-47 -13 -47 -34t25.5 -33t56.5 -12q123 0 123 142q0 61 -29 94t-101 33h-15v20h15q105 0 105 103
q0 77 -73 77q-36 0 -65 -23l-8 14q54 41 131.5 41t114 -29t36.5 -72q0 -89 -118 -114v-4q63 -4 103 -33.5t47 -82.5h76v303h-57v20h597z" />
    <glyph glyph-name="uni0907" unicode="&#x907;" horiz-adv-x="462" 
d="M362 540v-136q-66 29 -123.5 29t-79.5 -13.5t-22 -32t21.5 -32.5t53.5 -23t69 -23t69 -30t53.5 -46.5t21.5 -70.5q0 -73 -60.5 -114t-147.5 -41q-31 0 -51 4q-29 -60 -75 -104l-16 13q17 14 38 42t33 52q-50 12 -76 38.5t-26 60t20 51.5t52 18t53 -22t21 -57.5t-16 -73.5
q24 -2 39 -2q45 0 74.5 22.5t29.5 57t-28 56t-68.5 34.5t-80.5 27t-68 42t-28 74.5t47 78.5t131 34v87h-242v20h502v-20h-120z" />
    <glyph glyph-name="uni0908" unicode="&#x908;" horiz-adv-x="467" 
d="M362 540v-136q-66 29 -123.5 29t-79.5 -13.5t-22 -32t21.5 -32.5t53.5 -23t69 -23t69 -30t53.5 -46.5t21.5 -70.5q0 -73 -60.5 -114t-147.5 -41q-31 0 -51 4q-29 -60 -75 -104l-16 13q17 14 38 42t33 52q-50 12 -76 38.5t-26 60t20 51.5t52 18t53 -22t21 -57.5t-16 -73.5
q24 -2 39 -2q45 0 74.5 22.5t29.5 57t-28 56t-68.5 34.5t-80.5 27t-68 42t-28 74.5t47 78.5t131 34v87h-242v20h279v4q-44 13 -73 46t-29 79.5t35.5 79t90.5 32.5t92 -31.5t37 -83.5l-2 -18h-20q1 5 1 11q0 35 -18.5 53.5t-48 18.5t-49 -20.5t-19.5 -56.5q0 -51 38 -82.5
t101 -31.5h87v-20h-120z" />
    <glyph glyph-name="uni0909" unicode="&#x909;" horiz-adv-x="466" 
d="M487 560v-20h-170q79 -23 79 -98q0 -90 -127 -108v-4q69 -7 113.5 -45t44.5 -98q0 -87 -65.5 -133.5t-163 -46.5t-144 37t-46.5 105q0 39 22 64t56 25t53.5 -19t19.5 -46t-15 -43t-32 -20q-48 -13 -48 -34t27 -33t63 -12q62 0 95.5 40.5t34 110t-38.5 103.5t-106 34h-16
v20h16q56 0 88 29t32 75t-30 71.5t-90 25.5h-159v20h507z" />
    <glyph glyph-name="uni090A" unicode="&#x90a;" horiz-adv-x="673" 
d="M693 560v-20h-376q79 -23 79 -98q0 -90 -127 -108v-4q82 -8 127 -59q37 66 116 66q65 0 107.5 -44t42.5 -118t-42 -116t-108.5 -42t-90.5 30l8 11q8 -6 26 -6q71 0 71 124q0 50 -17 82t-51 32t-50 -35q19 -30 19 -68q0 -87 -65.5 -133.5t-163 -46.5t-144 37t-46.5 105
q0 39 22 64t56 25t53.5 -19t19.5 -46t-15 -43t-32 -20q-48 -13 -48 -34t27 -33t63 -12q62 0 95.5 40.5t34 110t-38.5 103.5t-106 34h-16v20h16q56 0 88 29t32 75t-30 71.5t-90 25.5h-159v20h713z" />
    <glyph glyph-name="uni090B" unicode="&#x90b;" horiz-adv-x="874" 
d="M499 540v-236h77q-9 21 -9 47q0 51 36 83.5t87 32.5t81 -22t30 -61q0 -58 -47 -87q43 -38 61.5 -67.5t18.5 -66.5q0 -56 -43 -91.5t-112 -35.5q-103 0 -140 88l18 10q12 -32 40 -53t56.5 -21t44.5 14t16 40.5t-20.5 53.5t-56.5 60.5t-50 55.5h-88v-284h-140v260
l-271 -208l-13 16l158 122q-8 14 -29 53t-31.5 55.5t-28.5 41.5q-31 44 -66 44t-55 -29l-15 11q44 86 144 86q68 0 110 -55q36 -47 76 -127l21 16v254h-379v20h917v-20h-398zM764.5 423q-14.5 15 -38 15t-37.5 -11t-14 -29.5t14 -36.5t49 -49q41 22 41 72q0 24 -14.5 39z
" />
    <glyph glyph-name="uni090C" unicode="&#x90c;" horiz-adv-x="751" 
d="M769 540h-203v-102q60 -17 97.5 -64.5t37.5 -104.5t-21.5 -97.5t-52.5 -67t-63 -50.5q-74 -57 -74 -118q0 -31 24.5 -53t55 -22t30.5 16q0 7 -15 30t-15 49.5t20.5 46t50 19.5t50 -21t20.5 -50q0 -50 -37.5 -78.5t-93 -28.5t-92 34t-36.5 93.5t48 125.5q31 42 43.5 84.5
t12.5 107t-16.5 101t-42.5 36.5q-58 0 -58 -189v-64h-130v64q0 189 -58 189q-63 0 -63 -199q0 -91 18.5 -127t57.5 -36q20 0 35 11l10 -14q-32 -30 -89 -30q-92 0 -134 59t-42 151.5t54 148.5t146 56t130 -70q20 33 52 51v113h-446v20h789v-20z" />
    <glyph glyph-name="uni090D" unicode="&#x90d;" horiz-adv-x="564" 
d="M585 560v-20h-76v-59q0 -50 -4 -80t-17 -57q-26 -49 -113 -49q-69 0 -108 27l9 14q13 -6 30 -6q38 0 48 30.5t10 106.5v73h-144v-290q0 -100 27 -141q12 -18 37.5 -32t59.5 -14t50.5 10t16.5 21t-7.5 19.5t-17 14t-17 19t-7.5 36.5t20.5 43t52.5 20t52.5 -21t20.5 -51
q0 -62 -56 -98t-132 -36q-206 0 -237 151q-8 40 -8 131v218h-94v20h604zM299 631q-79 0 -126 45t-44 124l13 3q8 -37 49.5 -60t108.5 -23t107.5 23.5t48.5 59.5l13 -3q3 -79 -44 -124t-126 -45z" />
    <glyph glyph-name="uni090E" unicode="&#x90e;" horiz-adv-x="564" 
d="M163 733l157 14q68 0 106 -31.5t38 -96.5q0 -36 -17 -59h138v-20h-76v-59q0 -50 -4 -80t-17 -57q-26 -49 -113 -49q-69 0 -108 27l9 14q13 -6 30 -6q38 0 48 30.5t10 106.5v73h-144v-290q0 -100 27 -141q12 -18 37.5 -32t59.5 -14t50.5 10t16.5 21t-7.5 19.5t-17 14
t-17 19t-7.5 36.5t20.5 43t52.5 20t52.5 -21t20.5 -51q0 -62 -56 -98t-132 -36q-206 0 -237 151q-8 40 -8 131v218h-94v20h442q16 20 16 40q0 52 -88 52q-21 0 -83 -7.5t-78 -7.5q-143 0 -143 108q0 42 21 70t61 28t61 -24l-13 -15q-21 19 -44.5 19t-36.5 -11t-13 -31
q0 -48 80 -48z" />
    <glyph glyph-name="uni090F" unicode="&#x90f;" horiz-adv-x="565" 
d="M585 560v-20h-76v-59q0 -50 -4 -80t-17 -57q-26 -49 -113 -49q-69 0 -108 27l9 14q13 -6 30 -6q38 0 48 30.5t10 106.5v73h-144v-290q0 -100 27 -141q12 -18 37.5 -32t59.5 -14t50.5 10t16.5 21t-7.5 19.5t-17 14t-17 19t-7.5 36.5t20.5 43t52.5 20t52.5 -21t20.5 -51
q0 -62 -56 -98t-132 -36q-206 0 -237 151q-8 40 -8 131v218h-94v20h604z" />
    <glyph glyph-name="uni0910" unicode="&#x910;" horiz-adv-x="564" 
d="M585 560v-20h-76v-59q0 -50 -4 -80t-17 -57q-26 -49 -113 -49q-69 0 -108 27l9 14q13 -6 30 -6q38 0 48 30.5t10 106.5v73h-144v-290q0 -100 27 -141q12 -18 37.5 -32t59.5 -14t50.5 10t16.5 21t-7.5 19.5t-17 14t-17 19t-7.5 36.5t20.5 43t52.5 20t52.5 -21t20.5 -51
q0 -62 -56 -98t-132 -36q-206 0 -237 151q-8 40 -8 131v218h-94v20h604zM200 691q-29 20 -29 45.5t15 39.5t35.5 14t38 -12.5t39.5 -34.5t60.5 -63t75.5 -77l-9 -14q-47 22 -98.5 43t-80.5 33.5t-47 25.5z" />
    <glyph glyph-name="uni0911" unicode="&#x911;" horiz-adv-x="1013" 
d="M1029 560v-20h-100v-540h-140v540h-160v-540h-140v217h-74v-4q0 -82 -63 -124t-166 -42q-177 0 -177 142q0 39 22 64t56 25t53.5 -19t19.5 -46t-15 -43t-33 -20q-47 -13 -47 -34t25.5 -33t56.5 -12q123 0 123 142q0 61 -29 94t-101 33h-15v20h15q105 0 105 103
q0 77 -73 77q-36 0 -65 -23l-8 14q54 41 131.5 41t114 -29t36.5 -72q0 -89 -118 -114v-4q63 -4 103 -33.5t47 -82.5h76v303h-57v20h597zM718 631q-78 0 -125 44.5t-45 122.5l2 2l10 2l2 -1q8 -35 49.5 -56t107 -21t107 21t49.5 56l2 1l10 -2l2 -2q2 -78 -45.5 -122.5
t-125.5 -44.5z" />
    <glyph glyph-name="uni0912" unicode="&#x912;" horiz-adv-x="1013" 
d="M575 733l157 14q68 0 106 -31.5t38 -96.5q0 -36 -17 -59h170v-20h-100v-540h-140v540h-160v-540h-140v217h-74v-4q0 -82 -63 -124t-166 -42q-177 0 -177 142q0 39 22 64t56 25t53.5 -19t19.5 -46t-15 -43t-33 -20q-47 -13 -47 -34t25.5 -33t56.5 -12q123 0 123 142
q0 61 -29 94t-101 33h-15v20h15q105 0 105 103q0 77 -73 77q-36 0 -65 -23l-8 14q54 41 131.5 41t114 -29t36.5 -72q0 -89 -118 -114v-4q63 -4 103 -33.5t47 -82.5h76v303h-57v20h403q16 20 16 40q0 52 -88 52q-21 0 -83 -7.5t-78 -7.5q-143 0 -143 108q0 42 21 70t61 28
t61 -24l-13 -15q-21 19 -44.5 19t-36.5 -11t-13 -31q0 -48 80 -48z" />
    <glyph glyph-name="uni0913" unicode="&#x913;" horiz-adv-x="1013" 
d="M1029 560v-20h-100v-540h-140v540h-160v-540h-140v217h-74v-4q0 -82 -63 -124t-166 -42q-177 0 -177 142q0 39 22 64t56 25t53.5 -19t19.5 -46t-15 -43t-33 -20q-47 -13 -47 -34t25.5 -33t56.5 -12q123 0 123 142q0 61 -29 94t-101 33h-15v20h15q105 0 105 103
q0 77 -73 77q-36 0 -65 -23l-8 14q54 41 131.5 41t114 -29t36.5 -72q0 -89 -118 -114v-4q63 -4 103 -33.5t47 -82.5h76v303h-57v20h597zM626 691q-29 20 -29 45.5t15 39.5t35.5 14t38 -12.5t39.5 -34.5t60.5 -63t75.5 -77l-9 -14q-47 22 -98.5 43t-80.5 33.5t-47 25.5z" />
    <glyph glyph-name="uni0914" unicode="&#x914;" horiz-adv-x="1013" 
d="M1029 560v-20h-100v-540h-140v540h-160v-540h-140v217h-74v-4q0 -82 -63 -124t-166 -42q-177 0 -177 142q0 39 22 64t56 25t53.5 -19t19.5 -46t-15 -43t-33 -20q-47 -13 -47 -34t25.5 -33t56.5 -12q123 0 123 142q0 61 -29 94t-101 33h-15v20h15q105 0 105 103
q0 77 -73 77q-36 0 -65 -23l-8 14q54 41 131.5 41t114 -29t36.5 -72q0 -89 -118 -114v-4q63 -4 103 -33.5t47 -82.5h76v303h-57v20h597zM522 701q0 22 15.5 36t31 14t22.5 -1t16.5 -5t17.5 -7.5t22.5 -12t26 -15.5t33.5 -21.5t39 -25.5q66 -44 103 -68l-9 -20
q-72 21 -160.5 43t-112.5 31q-45 17 -45 52zM690 778q0 21 14.5 35.5t36.5 14.5q34 0 63.5 -38.5t115.5 -184.5l-16 -15q-38 29 -83 60q-82 58 -106.5 82.5t-24.5 45.5z" />
    <glyph glyph-name="uni0915" unicode="&#x915;" horiz-adv-x="813" 
d="M266 124q60 2 71 79v337h-357v20h853v-20h-356v-153q34 73 130 73q79 0 125 -56.5t46 -140.5t-44 -136t-116.5 -52t-104.5 29l5 15q8 -4 24 -4q48 1 69.5 44t21.5 105t-22.5 101.5t-56.5 38.5q-66 0 -77 -78v-326h-140v144q-34 -75 -131 -75q-82 0 -126.5 55t-44.5 139
t47 137.5t128 53.5q58 0 90 -29l-5 -15q-8 4 -22 4q-47 -1 -70 -41t-23 -105.5t23 -104.5t63 -39z" />
    <glyph glyph-name="uni0916" unicode="&#x916;" horiz-adv-x="771" 
d="M791 560v-20h-100v-540h-136v119q-76 -94 -236 -94q-66 0 -114.5 23t-74 57t-43.5 68.5t-35.5 62.5t-37.5 34v20q159 0 159 140q0 46 -26.5 78t-72.5 32h-94v20h811zM555 540h-324q75 -29 75 -116q0 -61 -49.5 -98t-119.5 -43v-4q57 -15 101 -88q17 -29 36.5 -56.5
t52.5 -46t78 -18.5q79 0 130.5 60t51.5 157q0 117 -69 117q-33 0 -51.5 -27t-18.5 -68.5t19 -70t51 -28.5q10 0 20 3l5 -11q-12 -14 -39 -23t-53 -9q-55 0 -92.5 35.5t-37.5 96t40.5 100t99.5 39.5t94 -23v122z" />
    <glyph glyph-name="uni0917" unicode="&#x917;" horiz-adv-x="664" 
d="M684 560v-20h-100v-540h-140v540h-193q62 -18 96.5 -71.5t34.5 -118.5q0 -93 -59 -155.5t-153 -62.5q-60 0 -100 35.5t-40 97.5q0 38 22.5 63.5t56.5 25.5t52 -17.5t20 -43.5q0 -29 -13.5 -43t-29.5 -16q-42 -5 -42 -39q0 -16 12 -26t33 -10q49 0 72.5 55t23.5 137
t-33.5 135.5t-98.5 53.5h-125v20h704z" />
    <glyph glyph-name="uni0918" unicode="&#x918;" horiz-adv-x="623" 
d="M643 560v-20h-100v-540h-140v118q-21 -37 -67 -58t-114 -21t-122 39t-54 109q0 52 31 89.5t91 48.5v4q-51 7 -80 34.5t-29 67.5t18 68.5t52 40.5h-149v20h663zM403 540h-89q-57 0 -86 -28.5t-29 -75t25 -74t69 -27.5h27v-20h-26q-51 0 -77 -33t-26 -84t31 -81t74 -30
t72 21.5t35 60.5v371z" />
    <glyph glyph-name="uni0919" unicode="&#x919;" horiz-adv-x="547" 
d="M567 560v-20h-199v-137q-62 30 -148 30q-43 0 -64 -13.5t-21 -33.5t29.5 -36t71.5 -28.5t84.5 -29.5t72 -51t29.5 -83q0 -71 -59.5 -116t-143 -45t-136 32t-52.5 84q0 29 18 49.5t48.5 20.5t48.5 -16.5t18 -40.5t-21.5 -41t-21.5 -27q0 -20 27.5 -30t69 -10t70 24
t28.5 62t-28 61.5t-68.5 36t-81 25.5t-68.5 39.5t-28 74t49 80t137 32.5v87h-248v20h587zM466 399q28 0 48.5 -20.5t20.5 -48.5t-20.5 -48.5t-48.5 -20.5t-48.5 20.5t-20.5 48.5t20.5 48.5t48.5 20.5z" />
    <glyph glyph-name="uni091A" unicode="&#x91a;" horiz-adv-x="588" 
d="M608 560v-20h-100v-540h-140v146q-35 -77 -138 -77q-84 0 -134.5 50t-50.5 134q0 65 33 111t92 62v4h-138v20h288v-20h-20q-55 0 -82.5 -48t-27.5 -117.5t26 -106t65.5 -36.5t60.5 23.5t26 57.5v337h-388v20h628z" />
    <glyph glyph-name="uni091B" unicode="&#x91b;" horiz-adv-x="670" 
d="M690 540h-164v-91q101 -43 101 -163.5t-75 -184t-213 -63.5q-84 0 -146 14.5t-103.5 53.5t-41.5 93q0 108 106 126v4q-46 8 -72 35t-26 67.5t21.5 68.5t60.5 40h-158v20h710v-20zM386 540h-67q-57 0 -87.5 -29t-30.5 -79q0 -84 73 -97v-20q-41 -4 -61 -34t-20 -75
q0 -71 41.5 -108.5t95.5 -37.5t84.5 18t45.5 51q27 59 27 139t-23.5 122.5t-72.5 42.5t-70 -58l-19 8q22 68 84 83v74z" />
    <glyph glyph-name="uni091C" unicode="&#x91c;" horiz-adv-x="695" 
d="M715 560v-20h-100v-540h-140v430h-216v-6q69 -9 110 -58t41 -121q0 -91 -58 -148.5t-168 -57.5q-78 0 -123.5 35.5t-45.5 104.5q0 37 23.5 64.5t56.5 27.5t52.5 -20.5t19.5 -47.5t-10 -41t-24.5 -19.5t-28.5 -8.5q-34 -9 -34 -25q0 -19 24 -33t57 -14q114 0 114 183
q0 93 -30.5 138.5t-105.5 46.5v20h346v90h-495v20h735z" />
    <glyph glyph-name="uni091D" unicode="&#x91d;" horiz-adv-x="735" 
d="M755 560v-20h-100v-540h-140v199h-95q5 -18 5 -37q0 -73 -60.5 -114t-147.5 -41q-31 0 -51 4q-29 -60 -75 -104l-16 13q17 14 38 42t33 52q-50 12 -76 38.5t-26 60t20 51.5t52 18t53 -22t21 -57.5t-16 -73.5q24 -2 39 -2q45 0 74.5 22.5t29.5 57t-28 56t-68.5 34.5
t-80.5 27t-68 42t-28 74.5t47 78.5t131 34v87h-242v20h775zM515 219v321h-153v-126q-61 16 -120 16q-105 0 -105 -42t116 -70q45 -11 92.5 -36.5t66.5 -62.5h103z" />
    <glyph glyph-name="uni091E" unicode="&#x91e;" horiz-adv-x="647" 
d="M667 560v-20h-100v-540h-140v262h-87q-1 -86 -50 -139t-135 -53q-56 0 -93.5 26t-46.5 60l17 7q24 -51 72 -51q91 0 91 152q0 50 -11 85q-21 68 -71 68q-42 0 -69 -42l-16 10q41 72 135 72q77 0 124 -48t52 -127h88v258h-447v20h687z" />
    <glyph glyph-name="uni091F" unicode="&#x91f;" horiz-adv-x="469" 
d="M389 540v-140q-29 9 -60 9q-73 0 -106.5 -49.5t-33.5 -135t37.5 -126.5t90.5 -41q33 0 63.5 17.5t47.5 43.5l14 -10q-50 -84 -160.5 -84t-174 52.5t-63.5 155.5q0 85 57.5 137.5t147.5 52.5v118h-269v20h509v-20h-100z" />
    <glyph glyph-name="uni0920" unicode="&#x920;" horiz-adv-x="532" 
d="M552 540h-215v-108q66 -19 108.5 -68.5t42.5 -123.5q0 -93 -68.5 -147t-154.5 -54t-153.5 54t-67.5 139.5t46.5 136t115.5 66.5v105h-226v20h572v-20zM265 59q45 0 59.5 41.5t14.5 140t-14.5 140t-59.5 41.5t-59.5 -41.5t-14.5 -140t14.5 -140t59.5 -41.5z" />
    <glyph glyph-name="uni0921" unicode="&#x921;" horiz-adv-x="457" 
d="M-20 540v20h497v-20h-109v-137q-62 30 -148 30q-43 0 -64 -13.5t-21 -33.5t29.5 -36t71.5 -28.5t84.5 -29.5t72 -51t29.5 -83q0 -71 -59.5 -116t-143 -45t-136 32t-52.5 84q0 29 18 49.5t48.5 20.5t48.5 -16.5t18 -40.5t-21.5 -41t-21.5 -27q0 -20 27.5 -30t69 -10t70 24
t28.5 62t-28 61.5t-68.5 36t-81 25.5t-68.5 39.5t-28 74t49 80t137 32.5v87h-248z" />
    <glyph glyph-name="uni0922" unicode="&#x922;" horiz-adv-x="522" 
d="M389 540v-143q-24 12 -66 12q-68 0 -101 -50t-33 -130t22.5 -132.5t67.5 -52.5q76 0 76 124q0 34 -12 57.5t-37.5 23.5t-37.5 -30l-15 7q22 66 109 66q57 0 90 -35t33 -88q0 -75 -58.5 -110t-156.5 -35t-162 55.5t-64 146.5t57.5 143.5t147.5 52.5v118h-269v20h562v-20
h-153z" />
    <glyph glyph-name="uni0923" unicode="&#x923;" horiz-adv-x="823" 
d="M841 560v-20h-98v-540h-140v540h-122v-198q0 -108 -51 -156.5t-162.5 -48.5t-163 48.5t-51.5 156.5v198h-73v20h861zM336 328v212h-138v-212q0 -134 30 -158q15 -13 35.5 -13t32.5 5.5t19.5 19t12 26t6.5 36.5q2 40 2 84z" />
    <glyph glyph-name="uni0924" unicode="&#x924;" horiz-adv-x="563" 
d="M581 560v-20h-98v-540h-140v395q-8 1 -32 1t-50 -12t-39.5 -28.5t-21.5 -45.5q-10 -41 -10 -125.5t16.5 -122t57.5 -37.5q14 0 24 2l4 -18q-20 -8 -52 -8q-89 0 -142 46.5t-53 150.5q0 127 81 175q71 42 184 42q15 0 33 -2v127h-363v20h601z" />
    <glyph glyph-name="uni0925" unicode="&#x925;" horiz-adv-x="652" 
d="M671 560v-20h-99v-540h-140v166q-24 -38 -70 -58t-95 -20q-100 0 -164.5 51.5t-64.5 141.5q0 18 2 32q10 -1 29 -1q164 0 164 119q0 38 -19 58t-49.5 20t-47.5 -16t-17 -42q0 -51 55 -58l-2 -20q-39 2 -60 23.5t-21 54.5q0 50 34.5 81t99 31t106 -35t41.5 -96.5t-47 -98
t-120 -41.5q-2 -9 -2 -23q0 -59 29.5 -102t87 -43t94.5 30.5t37 79.5v306h-43v20h282z" />
    <glyph glyph-name="uni0926" unicode="&#x926;" horiz-adv-x="489" 
d="M389 540v-143q-24 12 -66 12q-68 0 -101 -50t-33 -130.5t32.5 -131.5t87.5 -51q11 0 17 1q-30 43 -30 85.5t20.5 65t54.5 22.5t54.5 -21.5t20.5 -53.5q0 -76 -85 -107q38 -43 113 -79l-10 -18q-84 42 -125 90q-31 -7 -61 -7q-106 0 -170 53.5t-64 146.5t57.5 145.5
t147.5 52.5v118h-269v20h529v-20h-120z" />
    <glyph glyph-name="uni0927" unicode="&#x927;" horiz-adv-x="624" 
d="M358 560h286v-20h-100v-540h-140v118q-21 -37 -67 -58t-114 -21t-122 39t-54 109q0 53 30.5 90t89.5 48v4q-48 6 -77.5 34.5t-29.5 68.5q0 83 71 108h-151v20h315v-20q-54 0 -74.5 -28.5t-20.5 -75t25 -74t69 -27.5h27v-20h-26q-51 0 -77 -33t-26 -84t31 -81t74 -30
t72 21.5t35 60.5v371h-46v20z" />
    <glyph glyph-name="uni0928" unicode="&#x928;" horiz-adv-x="559" 
d="M579 560v-20h-100v-540h-140v369q-72 2 -97.5 2t-42 -1.5t-39.5 -5.5t-37.5 -14.5t-14.5 -23.5t17.5 -19.5t38.5 -10.5t38.5 -23t17.5 -53.5t-24 -56.5t-64.5 -22t-68.5 29t-28 78q0 77 55.5 110t138.5 33h110v149h-359v20h599z" />
    <glyph glyph-name="uni0928093C" unicode="&#x929;" horiz-adv-x="559" 
d="M579 560v-20h-100v-540h-140v369q-72 2 -97.5 2t-42 -1.5t-39.5 -5.5t-37.5 -14.5t-14.5 -23.5t17.5 -19.5t38.5 -10.5t38.5 -23t17.5 -53.5t-24 -56.5t-64.5 -22t-68.5 29t-28 78q0 77 55.5 110t138.5 33h110v149h-359v20h599zM150 96q28 0 48.5 -20t20.5 -49t-20.5 -49
t-48.5 -20t-48.5 20t-20.5 49t20.5 49t48.5 20z" />
    <glyph glyph-name="uni092A" unicode="&#x92a;" horiz-adv-x="562" 
d="M582 560v-20h-100v-540h-140v201q-15 -26 -52 -47.5t-82 -21.5t-78.5 18t-49.5 50q-29 57 -29 145v195h-71v20h602zM342 540h-145v-202q0 -78 7 -96.5t15 -31.5q15 -26 46 -26t51 16.5t26 37.5v302z" />
    <glyph glyph-name="uni092B" unicode="&#x92b;" horiz-adv-x="818" 
d="M838 540h-356v-146q34 71 129 71q79 0 125 -56.5t46 -140.5t-44 -136t-116.5 -52t-104.5 29l5 15q8 -4 24 -4q48 1 69.5 44t21.5 105t-22.5 101.5t-62.5 39.5q-27 -1 -45.5 -20.5t-24.5 -51.5v-338h-140v201q-15 -26 -52 -47.5t-82 -21.5t-78.5 18t-49.5 50
q-29 57 -29 145v195h-71v20h858v-20zM342 540h-145v-202q0 -78 7 -96.5t15 -31.5q15 -26 46 -26t51 16.5t26 37.5v302z" />
    <glyph glyph-name="uni092C" unicode="&#x92c;" horiz-adv-x="564" 
d="M584 560v-20h-100v-540h-139v140q-15 -28 -52.5 -48t-81.5 -20q-74 0 -125 48t-51 142.5t50.5 144t124.5 49.5q55 0 89 -32l-11 -13q-15 9 -30 9q-35 0 -56 -46l143 -135v301h-365v20h604zM185 273q0 -149 88 -149q28 0 49 22.5t23 46.5v18l-150 141q-10 -31 -10 -79z
" />
    <glyph glyph-name="uni092D" unicode="&#x92d;" horiz-adv-x="623" 
d="M643 560v-20h-100v-540h-140v312h-104q-4 -103 -44 -155t-107 -52q-50 0 -82.5 28t-32.5 78.5t36 82t92 36.5v7q0 106 -13.5 144.5t-42.5 38.5q-20 0 -34.5 -16.5t-16.5 -47.5l-19 1q1 49 33 77.5t84 28.5q148 0 148 -226v-6h103v209h-68v20h308zM100 160q56 0 61 149
q-47 -4 -74.5 -31.5t-27.5 -67.5q0 -22 11 -36t30 -14z" />
    <glyph glyph-name="uni092E" unicode="&#x92e;" horiz-adv-x="644" 
d="M664 560v-20h-100v-540h-140v312h-129q-1 -110 -38 -158.5t-108 -48.5q-51 0 -86 27t-35 78.5t36 83t92 36.5v210h-176v20h684zM99 160q31 0 43.5 38.5t13.5 110.5q-47 -4 -74.5 -31.5t-27.5 -67.5q0 -23 11.5 -36.5t33.5 -13.5zM424 331v209h-129v-209h129z" />
    <glyph glyph-name="uni092F" unicode="&#x92f;" horiz-adv-x="640" 
d="M660 560v-20h-100v-540h-140v167q-25 -35 -69.5 -53t-90.5 -18q-100 0 -164.5 51.5t-64.5 141.5q0 18 2 32q10 -1 17 -1q129 0 129 111q0 62 -30.5 85.5t-89.5 23.5h-79v20h680zM178 292l-1 -15q0 -59 29.5 -102t90.5 -43q45 0 78.5 21t44.5 57v330h-195q47 -12 73 -43.5
t26 -81.5t-38 -81.5t-108 -38.5v-3z" />
    <glyph glyph-name="uni0930" unicode="&#x930;" horiz-adv-x="373" 
d="M393 560v-20h-182q52 -12 79.5 -47.5t27.5 -85.5q0 -67 -56 -103t-150 -42v-4q51 -7 83 -34t44.5 -59.5t21.5 -64.5t24.5 -53.5t40 -21.5t39.5 9l6 -14q-32 -24 -94.5 -24t-103 24.5t-58 60.5t-29.5 73q-28 93 -75 106v20h31q138 0 138 127q0 133 -123 133h-77v20h413z
" />
    <glyph glyph-name="uni0930093C" unicode="&#x931;" horiz-adv-x="373" 
d="M393 560v-20h-182q52 -12 79.5 -47.5t27.5 -85.5q0 -67 -56 -103t-150 -42v-4q51 -7 83 -34t44.5 -59.5t21.5 -64.5t24.5 -53.5t40 -21.5t39.5 9l6 -14q-32 -24 -94.5 -24t-103 24.5t-58 60.5t-29.5 73q-28 93 -75 106v20h31q138 0 138 127q0 133 -123 133h-77v20h413z
M74 -2q28 0 48.5 -20t20.5 -49t-20.5 -49t-48.5 -20t-48.5 20t-20.5 49t20.5 49t48.5 20z" />
    <glyph glyph-name="uni0932" unicode="&#x932;" horiz-adv-x="728" 
d="M748 540h-185v-103q60 -18 95.5 -70t35.5 -135t-42 -142t-134 -59q-57 0 -89 30l10 14q15 -11 35 -11q39 0 57.5 36t18.5 127q0 199 -63 199q-58 0 -58 -189v-64h-130v64q0 189 -58 189q-63 0 -63 -199q0 -91 18.5 -127t57.5 -36q20 0 35 11l10 -14q-32 -30 -89 -30
q-92 0 -134 59t-42 151.5t54 148.5t144.5 56t131.5 -68q23 38 62 55v107h-446v20h768v-20z" />
    <glyph glyph-name="uni0933" unicode="&#x933;" horiz-adv-x="756" 
d="M791 540h-190v-97q59 -18 89.5 -68.5t30.5 -136.5t-42 -147.5t-131 -61.5q-54 0 -91.5 25.5t-52.5 71.5q-64 -94 -184 -94q-91 0 -138 63.5t-47 152.5t48.5 148t129.5 59q52 0 88.5 -25t50.5 -70q43 60 109 82v98h-481v20h811v-20zM225 51q21 0 33.5 33t27.5 99
q22 101 50 151q-6 34 -28 60t-48 26t-42 -15t-22 -46q-11 -50 -11 -141.5t7 -129t33 -37.5zM447.5 90.5q22.5 -24.5 49 -24.5t42 15t21.5 45q11 48 11 138.5t-7.5 129.5t-32.5 39q-21 0 -33.5 -34.5t-26.5 -98.5t-25.5 -93.5t-26.5 -56.5q6 -35 28.5 -59.5z" />
    <glyph glyph-name="uni0933093C" unicode="&#x934;" horiz-adv-x="771" 
d="M791 540h-190v-97q59 -18 89.5 -68.5t30.5 -136.5t-42 -147.5t-131 -61.5q-54 0 -91.5 25.5t-52.5 71.5q-64 -94 -184 -94q-91 0 -138 63.5t-47 152.5t48.5 148t129.5 59q52 0 88.5 -25t50.5 -70q43 60 109 82v98h-481v20h811v-20zM225 51q21 0 33.5 33t27.5 99
q22 101 50 151q-6 34 -28 60t-48 26t-42 -15t-22 -46q-11 -50 -11 -141.5t7 -129t33 -37.5zM447.5 90.5q22.5 -24.5 49 -24.5t42 15t21.5 45q11 48 11 138.5t-7.5 129.5t-32.5 39q-21 0 -33.5 -34.5t-26.5 -98.5t-25.5 -93.5t-26.5 -56.5q6 -35 28.5 -59.5zM192 -5
q28 0 48.5 -20.5t20.5 -48.5t-20.5 -48.5t-48.5 -20.5t-48.5 20.5t-20.5 48.5t20.5 48.5t48.5 20.5z" />
    <glyph glyph-name="uni0935" unicode="&#x935;" horiz-adv-x="564" 
d="M584 560v-20h-100v-540h-139v140q-15 -28 -52.5 -48t-81.5 -20q-74 0 -125 48t-51 142.5t50.5 144t124.5 49.5q55 0 89 -32l-11 -13q-15 9 -30 9q-32 0 -52.5 -39.5t-20.5 -107.5q0 -149 88 -149q28 0 48.5 22.5t23.5 46.5v347h-365v20h604z" />
    <glyph glyph-name="uni0936" unicode="&#x936;" horiz-adv-x="708" 
d="M726 560v-20h-98v-540h-140v540h-168q78 -36 78 -135q0 -85 -68.5 -127.5t-161.5 -42.5h-19v-4q39 -5 65 -28t39 -52t25 -57q30 -67 96 -67q22 0 32 5l5 -14q-41 -22 -106 -22q-148 0 -199 118q-35 85 -61 105q-9 7 -25 14v20h43q97 0 148 42.5t51 125.5q0 59 -24 89
t-54 30q-64 0 -64 -28q0 -12 42 -20q16 -3 29 -17.5t13 -41t-17.5 -44t-48 -17.5t-51.5 21.5t-21 58.5q0 60 55 88h-141v20h746z" />
    <glyph glyph-name="uni0937" unicode="&#x937;" horiz-adv-x="562" 
d="M580 560v-20h-98v-540h-140v201q-15 -26 -52 -47.5t-82 -21.5t-78.5 18t-49.5 50q-29 57 -29 145v195h-71v20h600zM197 338q0 -78 7 -96.5t15 -31.5q15 -26 46 -26t51.5 16t25.5 38v66l-145 137v-103zM342 540h-145v-72l145 -137v209z" />
    <glyph glyph-name="uni0938" unicode="&#x938;" horiz-adv-x="677" 
d="M697 560v-20h-100v-540h-140v262h-350v-4q51 -7 83 -34t44.5 -59.5t21.5 -64.5t24.5 -53.5t40 -21.5t39.5 9l6 -14q-32 -24 -94.5 -24t-103 24.5t-58 60.5t-28.5 73q-29 93 -76 106v20h31q138 0 138 127q0 133 -123 133h-72v20h717zM457 282v258h-251q52 -12 79.5 -47.5
t27.5 -85.5q0 -89 -100 -125h244z" />
    <glyph glyph-name="uni0939" unicode="&#x939;" horiz-adv-x="506" 
d="M419 540v-142q-66 22 -133 22q-102 0 -102 -56q0 -58 91 -58h1q184 0 184 -101q0 -42 -27 -68t-83 -26t-102 34l6 12q12 -5 31.5 -5t36 17.5t16.5 48t-18.5 47.5t-54.5 17t-62 -33t-26 -94.5t38 -95t108 -33.5q36 0 67 9.5t43 17.5l10 -18q-49 -38 -165 -38t-178.5 42
t-62.5 118q0 92 106 129q-40 7 -67 27t-27 52q0 80 144 80l86 -4v99h-299v20h546v-20h-107z" />
    <glyph glyph-name="uni093C" unicode="&#x93c;" horiz-adv-x="0" 
d="M-200 -79q0 -29 -20 -49t-49 -20t-49 20t-20 49t20 49t49 20t49 -20t20 -49z" />
    <glyph glyph-name="uni093D" unicode="&#x93d;" horiz-adv-x="483" 
d="M217 27q45 0 71.5 23.5t26.5 61t-28 69t-67.5 56t-79.5 50.5t-68 64.5t-28 91t46.5 85t131.5 32.5h220v-20h-200q-81 0 -81 -48q0 -49 93 -108q39 -24 78 -52.5t66 -72t27 -97.5q0 -73 -58.5 -114t-145.5 -41q-104 0 -196 85l12 16q85 -81 180 -81z" />
    <glyph glyph-name="uni093E" unicode="&#x93e;" 
d="M320 560v-20h-100v-540h-140v540h-100v20h340z" />
    <glyph glyph-name="uni093F" unicode="&#x93f;" 
d="M623.5 795q20.5 -25 20.5 -68.5t-30 -71.5t-86.5 -28t-189.5 31.5t-170 31.5q-72 0 -72 -52q0 -38 29.5 -58t66.5 -20h128v-20h-100v-540h-140v540h-100v20h132q-58 29 -58 99q0 56 36.5 92t110.5 36q44 0 169 -30t181 -30t56 35t-40 49l7 19q29 -10 49.5 -35z" />
    <glyph glyph-name="uni0940" unicode="&#x940;" 
d="M320 560v-20h-100v-540h-140v540h-100v20h100q-1 90 -25 130.5t-74 40.5q-36 0 -57.5 -19t-21.5 -54q0 -17 7 -33l-19 -7q-8 19 -8 40q0 45 35.5 78t117.5 33t133 -54t52 -155h100z" />
    <glyph glyph-name="uni0941" unicode="&#x941;" horiz-adv-x="0" 
d="M-218 -184q36 0 58.5 23t22.5 59.5t-18.5 58t-44 21.5t-41.5 -10.5t-21 -26.5l-19 8q15 36 50.5 53t76.5 17q67 0 103 -31t36 -88t-45 -93t-131 -36t-144.5 61.5t-59.5 152.5h21q2 -66 43.5 -117.5t112.5 -51.5z" />
    <glyph glyph-name="uni0942" unicode="&#x942;" horiz-adv-x="0" 
d="M-16 -66q-36 34 -79 34t-68 -23t-25 -61t19 -58t44 -20t41 12t18 35l20 -5q-10 -79 -119 -79q-60 0 -101 31t-41 85.5t41.5 91t115.5 36.5q106 0 163.5 -71.5t59.5 -166.5h-20q-2 98 -69 159z" />
    <glyph glyph-name="uni0943" unicode="&#x943;" horiz-adv-x="0" 
d="M-32 -136q-38 -83 -174 -83q-70 0 -118 33.5t-48 86t52 87t164 34.5q38 0 69 -5v-17q-73 -2 -108.5 -28.5t-35.5 -65t22.5 -64t56.5 -25.5t60.5 16t42.5 41z" />
    <glyph glyph-name="uni0944" unicode="&#x944;" horiz-adv-x="0" 
d="M-208 -422q-66 0 -107.5 34.5t-41.5 92.5q0 103 125 109v6q-54 7 -83.5 34t-29.5 67q0 101 179 101q46 0 79 -5v-17q-137 -7 -137 -88q0 -74 111 -84v-20q-106 -4 -106 -91q0 -43 21.5 -67t63 -24t71.5 39l14 -11q-44 -76 -159 -76z" />
    <glyph glyph-name="uni0945" unicode="&#x945;" horiz-adv-x="0" 
d="M-148 631q-78 0 -125 44.5t-45 122.5l2 2l10 2l2 -1q8 -35 49.5 -56t107 -21t107 21t49.5 56l2 1l10 -2l2 -2q2 -78 -45.5 -122.5t-125.5 -44.5z" />
    <glyph glyph-name="uni0946" unicode="&#x946;" horiz-adv-x="9" 
d="M-394 733l157 14q68 0 106 -31.5t38 -96.5q0 -45 -27 -70l-21 5q23 17 23 46q0 52 -88 52q-22 0 -84 -7.5t-77 -7.5q-143 0 -143 108q0 42 21 70t61 28t61 -24l-13 -15q-21 19 -44.5 19t-36.5 -11t-13 -31q0 -48 80 -48z" />
    <glyph glyph-name="uni0947" unicode="&#x947;" horiz-adv-x="0" 
d="M-370 691q-29 20 -29 45.5t15 39.5t35.5 14t38 -12.5t39.5 -34.5t60.5 -63t75.5 -77l-9 -14q-47 22 -98.5 43t-80.5 33.5t-47 25.5z" />
    <glyph glyph-name="uni0948" unicode="&#x948;" horiz-adv-x="0" 
d="M-506 701q0 22 15.5 36t31 14t22.5 -1t16.5 -5t17.5 -7.5t22.5 -12t26 -15.5t33.5 -21.5t39 -25.5q66 -44 103 -68l-9 -20q-72 21 -160.5 43t-112.5 31q-45 17 -45 52zM-338 778q0 21 14.5 35.5t36.5 14.5q34 0 63.5 -38.5t115.5 -184.5l-16 -15q-38 29 -83 60
q-82 58 -106.5 82.5t-24.5 45.5z" />
    <glyph glyph-name="uni0949" unicode="&#x949;" 
d="M322 560v-20h-100v-540h-140v540h-100v20h340zM152 631q-78 0 -125 44.5t-45 122.5l2 2l10 2l2 -1q8 -35 49.5 -56t107 -21t107 21t49.5 56l2 1l10 -2l2 -2q2 -78 -45.5 -122.5t-125.5 -44.5z" />
    <glyph glyph-name="uni094A" unicode="&#x94a;" 
d="M-106 733l157 14q68 0 106 -31.5t38 -96.5q0 -36 -17 -59h142v-20h-100v-540h-140v540h-100v20h174q16 20 16 40q0 52 -88 52q-22 0 -84 -7.5t-77 -7.5q-143 0 -143 108q0 42 21 70t61 28t61 -24l-13 -15q-21 19 -44.5 19t-36.5 -11t-13 -31q0 -48 80 -48z" />
    <glyph glyph-name="uni094B" unicode="&#x94b;" 
d="M320 560v-20h-100v-540h-140v540h-100v20h340zM-74 691q-29 20 -29 45.5t15 39.5t35.5 14t38 -12.5t39.5 -34.5t60.5 -63t75.5 -77l-9 -14q-47 22 -98.5 43t-80.5 33.5t-47 25.5z" />
    <glyph glyph-name="uni094C" unicode="&#x94c;" 
d="M320 560v-20h-100v-540h-140v540h-100v20h340zM-186 701q0 22 15.5 36t31 14t22.5 -1t16.5 -5t17.5 -7.5t22.5 -12t26 -15.5t33.5 -21.5t39 -25.5q65 -44 103 -68l-9 -20q-72 21 -160.5 43t-112.5 31q-45 17 -45 52zM-18 778q0 21 14.5 35.5t36.5 14.5q34 0 63.5 -38.5
t115.5 -184.5l-16 -15q-38 29 -83 60q-82 58 -106.5 82.5t-24.5 45.5z" />
    <glyph glyph-name="uni094D" unicode="&#x94d;" horiz-adv-x="0" 
d="M-102 -179q-24 41 -37 83.5t-18 54.5l10 9q12 -9 43 -34t47.5 -36.5t42.5 -27.5q48 -30 102 -34l3 -12q-50 -53 -107.5 -53t-85.5 50z" />
    <glyph glyph-name="uni0950" unicode="&#x950;" horiz-adv-x="960" 
d="M407 175q0 -38 -13 -67q17 -35 40 -35t40 39t33.5 95t41.5 112t77.5 95t128 39t128 -49t52.5 -152t-44.5 -162.5t-126.5 -59.5q-109 0 -142 86q-50 -86 -126 -86t-112 58q-53 -87 -208 -87q-74 0 -122.5 36t-48.5 101q0 40 23.5 64.5t57 24.5t53 -19.5t19.5 -49.5
q0 -55 -67 -68q-15 -3 -22.5 -7t-7.5 -13q0 -17 29.5 -31t68.5 -14q101 0 101 154q0 58 -32.5 96t-107.5 38h-13v20h13q115 0 115 109q0 40 -22 61t-57 21t-56 -21l-12 14q43 43 121.5 43t124 -31.5t45.5 -75.5q0 -103 -142 -124v-4q170 -19 170 -150zM666.5 85
q24.5 -20 48 -20t38.5 16t21 47q11 50 11 127t-4.5 116.5t-12 51t-22.5 11.5q-20 0 -35.5 -45t-35 -123.5t-41.5 -125.5q8 -35 32.5 -55zM558 501q-78 0 -125 44.5t-45 122.5l2 2l10 2l2 -1q8 -35 49.5 -56t107 -21t107 21t49.5 56l2 1l10 -2l2 -2q2 -78 -45.5 -122.5
t-125.5 -44.5zM558 654q-28 0 -48.5 20t-20.5 48.5t20 48.5t48.5 20t48.5 -19.5t20 -48.5t-20 -49t-48 -20z" />
    <glyph glyph-name="uni0951" unicode="&#x951;" horiz-adv-x="0" 
d="M-148 515q-2 -9 -8.5 -9t-8.5 9q-4 34 -11 83q-16 103 -16 121.5t10.5 27.5t25 9t24.5 -9t10 -22t-4 -44.5t-11 -80.5t-11 -85z" />
    <glyph glyph-name="uni0952" unicode="&#x952;" horiz-adv-x="0" 
d="M-517 -148v20h462v-20h-462z" />
    <glyph glyph-name="uni0953" unicode="&#x953;" horiz-adv-x="0" 
d="M-204 704q0 23 13.5 37t35.5 14t34.5 -11.5t27 -42.5t21.5 -42q27 -42 70 -59l2 -3l-3 -8l-3 -1q-198 36 -198 116z" />
    <glyph glyph-name="uni0954" unicode="&#x954;" horiz-adv-x="0" 
d="M-83.5 743.5q12.5 11.5 34.5 11.5t35.5 -14t13.5 -37.5t-18.5 -44.5t-53.5 -35q-57 -23 -126 -36l-3 1l-3 8l2 3q43 17 70 59q7 11 21.5 42t27 42.5z" />
    <glyph glyph-name="uni0915093C" unicode="&#x958;" horiz-adv-x="813" 
d="M266 124q60 2 71 79v337h-357v20h853v-20h-356v-153q34 73 130 73q79 0 125 -56.5t46 -140.5t-44 -136t-116.5 -52t-104.5 29l5 15q8 -4 24 -4q48 1 69.5 44t21.5 105t-22.5 101.5t-56.5 38.5q-66 0 -77 -78v-326h-140v144q-34 -75 -131 -75q-82 0 -126.5 55t-44.5 139
t47 137.5t128 53.5q58 0 90 -29l-5 -15q-8 4 -22 4q-47 -1 -70 -41t-23 -105.5t23 -104.5t63 -39zM149 12q29 0 49 -20t20 -49t-20 -49t-49 -20t-49 20t-20 49t20 49t49 20z" />
    <glyph glyph-name="uni0916093C" unicode="&#x959;" horiz-adv-x="776" 
d="M796 560v-20h-100v-540h-136v119q-76 -94 -236 -94q-66 0 -114.5 23t-74 57t-43.5 68.5t-35.5 62.5t-37.5 34v20q159 0 159 140q0 46 -26.5 78t-72.5 32h-94v20h811zM560 540h-324q75 -29 75 -116q0 -61 -49.5 -98t-119.5 -43v-4q57 -15 100 -88q18 -29 37.5 -56.5
t52.5 -46t78 -18.5q79 0 130.5 60t51.5 157q0 117 -69 117q-33 0 -51.5 -27t-18.5 -68.5t19 -70t51 -28.5q9 0 20 3l5 -11q-12 -14 -39 -23t-53 -9q-55 0 -92.5 35.5t-37.5 96t40.5 100t99.5 39.5t94 -23v122zM132 2q28 0 48.5 -20t20.5 -49t-20.5 -49t-48.5 -20t-48.5 20
t-20.5 49t20.5 49t48.5 20z" />
    <glyph glyph-name="uni0917093C" unicode="&#x95a;" horiz-adv-x="664" 
d="M684 560v-20h-100v-540h-140v540h-193q62 -18 96.5 -71.5t34.5 -118.5q0 -93 -59 -155.5t-153 -62.5q-60 0 -100 35.5t-40 97.5q0 38 22.5 63.5t56.5 25.5t52 -17.5t20 -43.5q0 -29 -13.5 -43t-29.5 -16q-42 -5 -42 -39q0 -16 12 -26t33 -10q49 0 72.5 55t23.5 137
t-33.5 135.5t-98.5 53.5h-125v20h704zM208 46q28 0 48.5 -20t20.5 -49t-20.5 -49t-48.5 -20t-48.5 20t-20.5 49t20.5 49t48.5 20z" />
    <glyph glyph-name="uni091C093C" unicode="&#x95b;" horiz-adv-x="695" 
d="M715 560v-20h-100v-540h-140v430h-216v-6q69 -9 110 -58t41 -121q0 -91 -58 -148.5t-168 -57.5q-78 0 -123.5 35.5t-45.5 104.5q0 37 23.5 64.5t56.5 27.5t52.5 -20.5t19.5 -47.5t-10 -41t-24.5 -19.5t-28.5 -8.5q-34 -9 -34 -25q0 -19 24 -33t57 -14q114 0 114 183
q0 93 -30.5 138.5t-105.5 46.5v20h346v90h-495v20h735zM193 -29q29 0 49 -20.5t20 -48.5t-20 -48.5t-49 -20.5t-49 20.5t-20 48.5t20 48.5t49 20.5z" />
    <glyph glyph-name="uni0921093C" unicode="&#x95c;" horiz-adv-x="457" 
d="M-20 540v20h497v-20h-109v-137q-62 30 -148 30q-43 0 -64 -13.5t-21 -33.5t29.5 -36t71.5 -28.5t84.5 -29.5t72 -51t29.5 -83q0 -71 -59.5 -116t-143 -45t-136 32t-52.5 84q0 29 18 49.5t48.5 20.5t48.5 -16.5t18 -40.5t-21.5 -41t-21.5 -27q0 -20 27.5 -30t69 -10t70 24
t28.5 62t-28 61.5t-68.5 36t-81 25.5t-68.5 39.5t-28 74t49 80t137 32.5v87h-248zM280 -99q0 -29 -20 -49t-49 -20t-49 20t-20 49t20 49t49 20t49 -20t20 -49z" />
    <glyph glyph-name="uni0922093C" unicode="&#x95d;" horiz-adv-x="522" 
d="M389 540v-143q-24 12 -66 12q-68 0 -101 -50t-33 -130t22.5 -132.5t67.5 -52.5q76 0 76 124q0 34 -12 57.5t-37.5 23.5t-37.5 -30l-15 7q22 66 109 66q57 0 90 -35t33 -88q0 -75 -58.5 -110t-156.5 -35t-162 55.5t-64 146.5t57.5 143.5t147.5 52.5v118h-269v20h562v-20
h-153zM272 -38q28 0 48.5 -20t20.5 -49t-20.5 -49t-48.5 -20t-48.5 20t-20.5 49t20.5 49t48.5 20z" />
    <glyph glyph-name="uni092B093C" unicode="&#x95e;" horiz-adv-x="823" 
d="M843 540h-356v-146q34 71 129 71q79 0 125 -56.5t46 -140.5t-44 -136t-116.5 -52t-104.5 29l5 15q8 -4 24 -4q48 1 69.5 44t21.5 105t-22.5 101.5t-62.5 39.5q-27 -1 -45.5 -20.5t-24.5 -51.5v-338h-140v201q-15 -26 -52 -47.5t-82 -21.5t-78.5 18t-50.5 50
q-28 57 -28 145v195h-71v20h858v-20zM347 540h-145v-202q0 -78 7 -96.5t15 -31.5q15 -26 46 -26t51 16.5t26 37.5v302zM188 54q28 0 48.5 -20t20.5 -49t-20.5 -49t-48.5 -20t-48.5 20t-20.5 49t20.5 49t48.5 20z" />
    <glyph glyph-name="uni092F093C" unicode="&#x95f;" horiz-adv-x="640" 
d="M660 560v-20h-100v-540h-140v167q-25 -35 -69.5 -53t-90.5 -18q-100 0 -164.5 51.5t-64.5 141.5q0 18 2 32q10 -1 17 -1q129 0 129 111q0 62 -30.5 85.5t-89.5 23.5h-79v20h680zM178 292l-1 -15q0 -59 29.5 -102t90.5 -43q45 0 78.5 21t44.5 57v330h-195q47 -12 73 -43.5
t26 -81.5t-38 -81.5t-108 -38.5v-3zM223 8q29 0 49 -20t20 -49t-20 -49t-49 -20t-49 20t-20 49t20 49t49 20z" />
    <glyph glyph-name="uni0960" unicode="&#x960;" horiz-adv-x="885" 
d="M499 540v-236h173q-76 25 -76 93q0 45 34 71.5t94 26.5q86 0 123 -46l-12 -12q-23 19 -52 19t-47.5 -17.5t-18.5 -50.5q0 -74 111 -84v-20q-106 -4 -106 -91q0 -43 21.5 -67t60.5 -24t63 32l13 -8q-42 -72 -147 -72q-66 0 -107.5 34.5t-41.5 92.5q0 82 82 103h-167v-284
h-140v260l-271 -208l-13 16l158 122q-8 14 -29 53t-31.5 55.5t-28.5 41.5q-31 44 -66 44t-55 -29l-15 11q44 86 144 86q68 0 110 -55q36 -47 76 -127l21 16v254h-379v20h925v-20h-406z" />
    <glyph glyph-name="uni0961" unicode="&#x961;" horiz-adv-x="748" 
d="M768 540h-202v-101q63 -17 100.5 -69.5t37.5 -129.5v-21q-20 11 -47.5 11t-46 -17.5t-18.5 -50.5q0 -74 111 -84v-20q-106 -4 -106 -91q0 -43 21.5 -67t60.5 -24t63 32l13 -8q-42 -72 -147 -72q-66 0 -107.5 34.5t-41.5 92.5q0 103 125 109v6q-54 7 -83.5 34t-29.5 65.5
t23 63.5t65 33q-6 160 -62 160q-58 0 -58 -189v-64h-130v64q0 189 -58 189q-63 0 -63 -199q0 -91 18.5 -127t57.5 -36q20 0 35 11l10 -14q-32 -30 -89 -30q-92 0 -134 59t-42 151.5t54 148.5t146 56t130 -70q20 33 52 51v113h-446v20h788v-20z" />
    <glyph glyph-name="uni0964" unicode="&#x964;" 
d="M80 0v560h140v-560h-140z" />
    <glyph glyph-name="uni0965" unicode="&#x965;" horiz-adv-x="599" 
d="M270 0h-140v560h140v-560zM519 0h-140v560h140v-560z" />
    <glyph glyph-name="uni0966" unicode="&#x966;" horiz-adv-x="574" 
d="M468 69.5q-67 -81.5 -180.5 -81.5t-179 81t-65.5 229q0 122 65.5 205.5t182 83.5t180.5 -82.5t64 -218t-67 -217zM289 567q-97 0 -97 -269q0 -144 21 -217t77 -73t76 72t20 218q0 269 -97 269z" />
    <glyph glyph-name="uni0967" unicode="&#x967;" horiz-adv-x="312" 
d="M232 20h70v-20h-280v20h80v481l-81 -31l-6 19q72 24 125 51.5t76 41.5h16v-562z" />
    <glyph glyph-name="uni0968" unicode="&#x968;" horiz-adv-x="500" 
d="M472 142q0 -63 -29.5 -107.5t-86 -44.5t-131.5 42.5t-105.5 42.5t-49.5 -21t-26 -54h-20q6 76 56 143q34 45 144 153q29 29 52 69t23 86t-27 79t-80 33q-34 0 -62 -13t-28 -29.5t13.5 -24.5t29 -12.5t29 -20.5t13.5 -43t-19.5 -46t-53.5 -19t-56 25t-22 64q0 61 52.5 102
t146 41t150.5 -40.5t57 -113.5q0 -51 -29.5 -91.5t-74.5 -67.5t-91.5 -48.5t-88.5 -45.5t-58 -49q24 20 67 20t101.5 -13t91.5 -13t61 20t33 60h10q8 -32 8 -63z" />
    <glyph glyph-name="uni0969" unicode="&#x969;" horiz-adv-x="486" 
d="M89.5 549q45.5 38 132.5 38t142.5 -36t55.5 -96.5t-43.5 -98.5t-124.5 -42q91 -1 147.5 -41t56.5 -109q0 -83 -68.5 -131.5t-164.5 -48.5t-144.5 38.5t-48.5 102.5q0 40 21.5 65t56.5 25t54.5 -19t19.5 -46.5t-15 -43.5t-33 -20q-47 -11 -47 -31.5t28.5 -33.5t65.5 -13
q58 0 94 42t36 113.5t-31.5 105.5t-114.5 34h-16v20h16q110 0 110 124q0 53 -23.5 85t-66 32t-64.5 -14t-22 -29.5t12.5 -22.5t28 -10.5t28 -17.5t12.5 -38t-17 -41t-48 -17t-51 22t-20 60q0 55 45.5 93z" />
    <glyph glyph-name="uni096A" unicode="&#x96a;" horiz-adv-x="446" 
d="M425 229h23v-154h-23v68h-74v-123h65v-20h-260v20h65v123h-214v20l264 419h80v-419h74v66zM221 163v296l-188 -296h188z" />
    <glyph glyph-name="uni096B" unicode="&#x96b;" horiz-adv-x="467" 
d="M252 544q115 0 139 73h10q8 -31 8 -68q0 -58 -31 -97.5t-91 -39.5q-37 0 -72.5 14t-55 28t-51.5 42l-21 -189q42 40 142 40t156 -45t56 -126t-66 -133.5t-164 -52.5t-146.5 38.5t-48.5 102.5q0 40 21.5 65t56.5 25t54.5 -19t19.5 -46.5t-15 -43.5t-33 -20
q-47 -11 -47 -31.5t28.5 -33.5t65.5 -13q57 0 93 45.5t36 112t-28 106.5t-89 40t-101 -50l-17 4l34 305q81 -33 157 -33z" />
    <glyph glyph-name="uni096C" unicode="&#x96c;" horiz-adv-x="523" 
d="M174 289q55 44 131 44t128.5 -39t52.5 -122.5t-57 -133.5t-156 -50q-120 0 -181 76t-61 214t66 224t190 86q85 0 132 -39.5t47 -103.5q0 -39 -22 -64t-56 -25t-53.5 19t-19.5 46t14.5 43t32.5 20q46 12 46 34q0 17 -23.5 31.5t-59.5 14.5q-149 0 -151 -275zM274 8
q72 0 72 156q0 137 -87 137q-44 0 -85 -36q1 -134 25.5 -195.5t74.5 -61.5z" />
    <glyph glyph-name="uni096D" unicode="&#x96d;" horiz-adv-x="453" 
d="M260 414q-32 0 -83.5 11.5t-78 11.5t-44 -17t-18.5 -48h-11q-9 34 -9 68q0 59 29 95.5t84.5 36.5t131 -29t103 -29t39.5 16.5t18 48.5h17q-6 -96 -60 -175q-22 -33 -44 -65q-53 -75 -53 -157q0 -21 9 -56t9 -62.5t-20.5 -51.5t-58 -24t-61.5 24.5t-24 72.5t29.5 98.5
t67.5 88.5q114 112 157 193l-3 3q-56 -54 -126 -54z" />
    <glyph glyph-name="uni096E" unicode="&#x96e;" horiz-adv-x="521" 
d="M484 153q0 -73 -63 -119t-149 -46q-88 0 -154 32q-34 16 -54 47t-20 77.5t35.5 86t88.5 55.5q-100 71 -100 152q0 62 49 105t138.5 43t142 -37t52.5 -91q0 -90 -112 -126q69 -45 107.5 -86.5t38.5 -92.5zM328.5 537q-28.5 29 -74.5 29t-68.5 -18.5t-22.5 -44.5t9 -43
t34 -38q30 -24 65 -47t38 -25q48 39 48 110q0 48 -28.5 77zM176 42.5q39 -34.5 91 -34.5t80.5 25t28.5 67q0 38 -40 71q-40 32 -82 58.5t-57 36.5q-60 -49 -60 -133q0 -56 39 -90.5z" />
    <glyph glyph-name="uni096F" unicode="&#x96f;" horiz-adv-x="515" 
d="M244 588q120 0 181 -76t61 -213.5t-68.5 -224t-192.5 -86.5q-86 0 -135 40t-49 103q0 39 22 64t56 25t53.5 -19t19.5 -46t-14.5 -43t-31.5 -20q-47 -12 -47 -34q0 -17 26 -31.5t62 -14.5q150 0 156 261q-49 -40 -127 -40t-131.5 43.5t-53.5 127.5t57 134t156 50zM171 412
q0 -68 22.5 -107.5t66.5 -39.5t83 37q-1 139 -25 202.5t-75 63.5q-72 0 -72 -156z" />
    <glyph glyph-name="uni0970" unicode="&#x970;" horiz-adv-x="514" 
d="M419.5 409.5q60.5 -55.5 60.5 -144t-65 -144t-165.5 -55.5t-157.5 57t-57 145t68.5 142.5t162 54.5t154 -55.5zM315.5 410.5q-14.5 38.5 -58 38.5t-58 -39t-14.5 -111t2.5 -102t9.5 -58q13 -53 58.5 -53t60 47t14.5 143t-14.5 134.5z" />
    <glyph glyph-name="uni0972" unicode="&#x972;" horiz-adv-x="709" 
d="M432 540v20h297v-20h-100v-540h-140v217h-74v-4q0 -82 -63 -124t-166 -42q-177 0 -177 142q0 39 22 64t56 25t53.5 -19t19.5 -46t-15 -43t-33 -20q-47 -13 -47 -34t25.5 -33t56.5 -12q123 0 123 142q0 61 -29 94t-101 33h-15v20h15q105 0 105 103q0 77 -73 77
q-36 0 -65 -23l-8 14q54 41 131.5 41t114 -29t36.5 -72q0 -89 -118 -114v-4q63 -4 103 -33.5t47 -82.5h76v303h-57zM566 631q-78 0 -125 44.5t-45 122.5l2 2l10 2l2 -1q8 -35 49.5 -56t107 -21t107 21t49.5 56l2 1l10 -2l2 -2q2 -78 -45.5 -122.5t-125.5 -44.5z" />
    <glyph glyph-name="uni097D" unicode="&#x97d;" horiz-adv-x="448" 
d="M51 548q18 22 56 35.5t91 13.5q91 0 153 -38.5t62 -109.5q0 -77 -70 -117q-29 -16 -58 -32.5t-49.5 -46.5t-20.5 -73v-180h-18v180q0 61 35 111q12 18 23 58t11 102.5t-24 96t-78 33.5q-35 0 -59 -15.5t-24 -28.5t3.5 -17.5t16 -9.5t17.5 -8q30 -17 30 -47.5t-17 -46.5
t-45.5 -16t-48 20t-19.5 58.5t33 77.5z" />
    <glyph glyph-name="Wgrave" unicode="&#x1e80;" horiz-adv-x="919" 
d="M499 611l-14 -10q-19 27 -59 38t-55 32t-10 45.5t26 33.5q16 10 37 4.5t35 -25t18.5 -56.5t21.5 -62zM10 540v20h293v-20h-49l137 -309l64 159l-67 150h-38v20h274v-20h-47l134 -305l106 305h-80v20h172v-20h-68l-187 -540h-24l4 11l-5 -11l-161 362l-145 -362h-24
l-241 540h-48z" />
    <glyph glyph-name="wgrave" unicode="&#x1e81;" horiz-adv-x="830" 
d="M10 440v20h270v-20h-53l108 -242l65 163l-33 79h-37v20h250v-20h-44l108 -242l93 242h-80v20h163v-20h-60l-169 -440h-21l-158 331l-131 -331h-21l-203 440h-47zM489 511l-14 -10q-19 27 -59 38t-55 32t-10 45.5t26 33.5q16 10 37 4.5t35 -25t18.5 -56.5t21.5 -62z" />
    <glyph glyph-name="Wacute" unicode="&#x1e82;" horiz-adv-x="919" 
d="M446 593q17 25 21.5 62t18.5 56.5t35 25t37 -4.5q21 -9 26 -33.5t-10 -45.5t-55 -32t-59 -38zM10 540v20h293v-20h-49l137 -309l64 159l-67 150h-38v20h274v-20h-47l134 -305l106 305h-80v20h172v-20h-68l-187 -540h-24l4 11l-5 -11l-161 362l-145 -362h-24l-241 540h-48
z" />
    <glyph glyph-name="wacute" unicode="&#x1e83;" horiz-adv-x="830" 
d="M10 440v20h270v-20h-53l108 -242l65 163l-33 79h-37v20h250v-20h-44l108 -242l93 242h-80v20h163v-20h-60l-169 -440h-21l-158 331l-131 -331h-21l-203 440h-47zM421 501l-14 10q17 25 21.5 62t18.5 56.5t35 25t37 -4.5q21 -9 26 -33.5t-10 -45.5t-55 -32t-59 -38z" />
    <glyph glyph-name="Wdieresis" unicode="&#x1e84;" horiz-adv-x="919" 
d="M446 726.5q18 -18.5 18 -44t-18 -43.5t-43.5 -18t-44.5 18t-19 43.5t19 44t44.5 18.5t43.5 -18.5zM617.5 727q17.5 -18 17.5 -44.5t-17.5 -44t-43.5 -17.5t-44 18t-18 43.5t18 44t44 18.5t43.5 -18zM10 540v20h293v-20h-49l137 -309l64 159l-67 150h-38v20h274v-20h-47
l134 -305l106 305h-80v20h172v-20h-68l-187 -540h-24l4 11l-5 -11l-161 362l-145 -362h-24l-241 540h-48z" />
    <glyph glyph-name="wdieresis" unicode="&#x1e85;" horiz-adv-x="830" 
d="M10 440v20h270v-20h-53l108 -242l65 163l-33 79h-37v20h250v-20h-44l108 -242l93 242h-80v20h163v-20h-60l-169 -440h-21l-158 331l-131 -331h-21l-203 440h-47zM387 626.5q18 -18.5 18 -44t-18 -43.5t-43.5 -18t-44.5 18t-19 43.5t19 44t44.5 18.5t43.5 -18.5z
M558.5 627q17.5 -18 17.5 -44.5t-17.5 -44t-43.5 -17.5t-44 18t-18 43.5t18 44t44 18.5t43.5 -18z" />
    <glyph glyph-name="Ygrave" unicode="&#x1ef2;" horiz-adv-x="616" 
d="M379 611l-14 -10q-19 27 -59 38t-55 32t-10 45.5t26 33.5q16 10 37 4.5t35 -25t18.5 -56.5t21.5 -62zM431 0h-230v20h40v211l-179 309h-52v20h280v-20h-49l140 -252l130 252h-80v20h175v-20h-70l-145 -282v-238h40v-20z" />
    <glyph glyph-name="ygrave" unicode="&#x1ef3;" horiz-adv-x="542" 
d="M195 -194.5q-30 -25.5 -80 -25.5t-78 21.5t-28 57t20.5 56.5t49.5 21t49 -11t28 -24q22 -35 41.5 -35t34.5 34l42 99l-234 441h-40v20h269v-20h-50l134 -264l115 264h-80v20h164v-20h-60l-240 -551q-27 -58 -57 -83.5zM339 511l-14 -10q-19 27 -59 38t-55 32t-10 45.5
t26 33.5q16 10 37 4.5t35 -25t18.5 -56.5t21.5 -62z" />
    <glyph glyph-name="uni200B" unicode="&#x200b;" horiz-adv-x="0" 
 />
    <glyph glyph-name="uni200C" unicode="&#x200c;" horiz-adv-x="0" 
d="M24 -230h-47v1041h47v-1041z" />
    <glyph glyph-name="uni200D" unicode="&#x200d;" horiz-adv-x="0" 
d="M24 -230h-47v865l-69 -73l-33 33l93 93l-95 95l33 33l95 -95l96 95l32 -32l-96 -96l96 -95l-33 -33l-72 75v-865z" />
    <glyph glyph-name="endash" unicode="&#x2013;" horiz-adv-x="522" 
d="M30 206v20h462v-20h-462z" />
    <glyph glyph-name="emdash" unicode="&#x2014;" horiz-adv-x="817" 
d="M30 206v20h749v-20h-749z" />
    <glyph glyph-name="quoteleft" unicode="&#x2018;" horiz-adv-x="198" 
d="M80 570l37 6q26 0 46.5 -17.5t20.5 -51t-22 -56.5t-61.5 -23t-65 30t-25.5 77.5t36.5 94.5t104.5 78l7 -17q-94 -52 -94 -105q0 -16 16 -16z" />
    <glyph glyph-name="quoteright" unicode="&#x2019;" horiz-adv-x="198" 
d="M114 566l-37 -6q-26 0 -46.5 17.5t-20.5 51t22 56.5t61.5 23t65 -30t25.5 -77.5t-36.5 -94.5t-104.5 -78l-7 17q94 52 94 105q0 16 -16 16z" />
    <glyph glyph-name="quotesinglbase" unicode="&#x201a;" horiz-adv-x="204" 
d="M114 -4l-37 -6q-26 0 -46.5 17.5t-20.5 51t22 56.5t61.5 23t65 -30t25.5 -77.5t-36.5 -94.5t-104.5 -78l-7 17q94 52 94 105q0 16 -16 16z" />
    <glyph glyph-name="quotedblleft" unicode="&#x201c;" horiz-adv-x="433" 
d="M90 570l37 6q26 0 46.5 -17.5t20.5 -51t-22 -56.5t-61.5 -23t-65 30t-25.5 77.5t36.5 94.5t104.5 78l7 -17q-94 -52 -94 -105q0 -16 16 -16zM310 570l37 6q26 0 46.5 -17.5t20.5 -51t-22 -56.5t-61.5 -23t-65 30t-25.5 77.5t36.5 94.5t104.5 78l7 -17q-94 -52 -94 -105
q0 -16 16 -16z" />
    <glyph glyph-name="quotedblright" unicode="&#x201d;" horiz-adv-x="433" 
d="M344 566l-37 -6q-26 0 -46.5 17.5t-20.5 51t22 56.5t61.5 23t65 -30t25.5 -77.5t-36.5 -94.5t-104.5 -78l-7 17q94 52 94 105q0 16 -16 16zM124 566l-37 -6q-26 0 -46.5 17.5t-20.5 51t22 56.5t61.5 23t65 -30t25.5 -77.5t-36.5 -94.5t-104.5 -78l-7 17q94 52 94 105
q0 16 -16 16z" />
    <glyph glyph-name="quotedblbase" unicode="&#x201e;" horiz-adv-x="434" 
d="M124 -5l-37 -6q-26 0 -46.5 17.5t-20.5 51t22 56.5t61.5 23t65 -30t25.5 -77.5t-36.5 -94.5t-104.5 -78l-7 17q94 52 94 105q0 16 -16 16zM344 -5l-37 -6q-26 0 -46.5 17.5t-20.5 51t22 56.5t61.5 23t65 -30t25.5 -77.5t-36.5 -94.5t-104.5 -78l-7 17q94 52 94 105
q0 16 -16 16z" />
    <glyph glyph-name="dagger" unicode="&#x2020;" horiz-adv-x="442" 
d="M312 269q-84 -224 -84 -449h-13q0 100 -21 212t-42 174l-21 63q54 22 69 72q12 37 12 89q-21 -4 -63.5 -25t-70 -21t-48 14.5t-20.5 42.5t20 42t48 14t69.5 -21.5t63.5 -24.5q-4 21 -25 72.5t-21 79t14.5 48t42.5 20.5t42 -20t14 -48t-21.5 -79t-24.5 -73q20 4 62 24.5
t69.5 20.5t48 -14.5t20.5 -42.5t-20 -42t-47.5 -14t-69 21.5t-64.5 24.5q0 -56 15.5 -97.5t65.5 -62.5z" />
    <glyph glyph-name="daggerdbl" unicode="&#x2021;" horiz-adv-x="442" 
d="M294 132q42 21 69.5 21t48 -14.5t20.5 -42.5t-20 -42t-48 -14t-69 21.5t-63 24.5q2 -24 24 -74.5t22 -78t-14 -47.5t-42 -20t-42.5 20.5t-14.5 48t21 79.5t25 73q-21 -4 -63 -25t-69.5 -21t-48 14.5t-20.5 42.5t20 42t47.5 14t69.5 -21.5t65 -24.5q-7 80 -71 159
q68 84 71 160q-21 -4 -63.5 -25t-70 -21t-48 14.5t-20.5 42.5t20 42t48 14t69.5 -21.5t63.5 -24.5q-4 21 -25 72.5t-21 79t14.5 48t42.5 20.5t42 -20t14 -47.5t-22 -78.5t-24 -75q20 4 62 25t69.5 21t48 -14.5t20.5 -42.5t-20 -42t-48 -14t-69.5 21.5t-63.5 24.5
q6 -75 71 -160q-7 -8 -18.5 -22t-31 -56t-21.5 -81q21 4 63 25z" />
    <glyph glyph-name="bullet" unicode="&#x2022;" horiz-adv-x="319" 
d="M67 236q-38 38 -38 92.5t38 92.5t92.5 38t92.5 -38t38 -92.5t-38 -92.5t-92.5 -38t-92.5 38z" />
    <glyph glyph-name="ellipsis" unicode="&#x2026;" horiz-adv-x="818" 
d="M722.5 19.5q-29.5 -29.5 -70 -29.5t-70 29.5t-29.5 70t29.5 70t70 29.5t70 -29.5t29.5 -70t-29.5 -70zM462.5 19.5q-29.5 -29.5 -70 -29.5t-70 29.5t-29.5 70t29.5 70t70 29.5t70 -29.5t29.5 -70t-29.5 -70zM202.5 19.5q-29.5 -29.5 -70 -29.5t-70 29.5t-29.5 70t29.5 70
t70 29.5t70 -29.5t29.5 -70t-29.5 -70z" />
    <glyph glyph-name="perthousand" unicode="&#x2030;" horiz-adv-x="926" 
d="M282 536q37 -34 37 -92.5t-36 -96t-105.5 -37.5t-103.5 35.5t-34 93.5t37.5 94.5t102.5 36.5t102 -34zM451 233q-49 0 -49 -110.5t50 -110.5q46 0 46 117q0 55 -11 79.5t-36 24.5zM156 2l292 565l18 -9l-293 -565zM553 219q37 -34 37 -92.5t-36 -96t-105.5 -37.5
t-103.5 35.5t-34 93.5t37.5 94.5t102.5 36.5t102 -34zM180 550q-49 0 -49 -110.5t50 -110.5q46 0 46 117q0 55 -11 79.5t-36 24.5zM767 233q-49 0 -49 -110.5t50 -110.5q46 0 46 117q0 55 -11 79.5t-36 24.5zM869 219q37 -34 37 -92.5t-36 -96t-105.5 -37.5t-103.5 35.5
t-34 93.5t37.5 94.5t102.5 36.5t102 -34z" />
    <glyph glyph-name="guilsinglleft" unicode="&#x2039;" horiz-adv-x="264" 
d="M242 88l-12 -12q-153 123 -164 133q-18 16 0 34l164 133l12 -12q-47 -98 -77 -138q28 -42 77 -138z" />
    <glyph glyph-name="guilsinglright" unicode="&#x203a;" horiz-adv-x="264" 
d="M52 76l-12 12q50 98 77 138q-29 40 -77 138l12 12q153 -122 164 -133q18 -18 0 -34z" />
    <glyph glyph-name="fraction" unicode="&#x2044;" horiz-adv-x="61" 
d="M-130 0l300 561h21l-300 -561h-21z" />
    <glyph glyph-name="zerosuperior" unicode="&#x2070;" horiz-adv-x="277" 
d="M177 449q0 103 -38.5 103t-38.5 -106.5t38 -106.5q23 0 31 28t8 82zM138 325q-45 0 -71.5 32.5t-26.5 86.5t26.5 87.5t72.5 33.5t72 -33.5t26 -87t-27 -86.5t-72 -33z" />
    <glyph glyph-name="Euro" unicode="&#x20ac;" horiz-adv-x="597" 
d="M407 199h-152q11 -91 50 -141.5t102 -50.5q31 0 50.5 11t19.5 30q0 10 -21.5 27t-21.5 41t18.5 40.5t48.5 16.5t48 -20.5t18 -49.5q0 -53 -48.5 -84.5t-122.5 -31.5q-125 0 -208 53t-105 159h-63v20h60q-4 23 -4 57t8 72h-64v20h69q28 97 110 150t197 53
q74 0 122.5 -31.5t48.5 -84.5q0 -29 -18 -49.5t-48 -20.5t-48.5 16.5t-18.5 40.5t21.5 41t21.5 27q0 19 -19.5 30t-50.5 11q-60 0 -98 -48.5t-51 -134.5h149v-20h-152q-4 -31 -4 -63t2 -66h154v-20z" />
    <glyph glyph-name="uni20B9" unicode="&#x20b9;" horiz-adv-x="443" 
d="M421 560v-20h-182q89 -19 104 -103h78v-20h-75v-10q0 -67 -56 -103t-150 -42v-4q51 -7 83 -34t44.5 -59.5t21.5 -64.5t24.5 -53.5t40 -21.5t39.5 9l6 -14q-32 -24 -94.5 -24t-103 24.5t-58 60.5t-29.5 73q-28 93 -75 106v20h31q138 0 138 127v10h-178v20h176
q-12 103 -121 103h-55v20h391z" />
    <glyph glyph-name="uni2113" unicode="&#x2113;" horiz-adv-x="460" 
d="M79 173v148q0 121 58.5 181.5t149.5 60.5q59 0 96 -41.5t37 -123t-52.5 -145.5t-138.5 -100q3 -56 18 -87.5t59.5 -31.5t59.5 10v-20q-48 -34 -117 -34t-111.5 28t-54.5 98q-25 -3 -53 -3v20q19 0 51 2q-2 24 -2 38zM229 321v-135q87 69 88 245q0 60 -6.5 86t-23.5 26
q-32 0 -45 -51.5t-13 -170.5z" />
    <glyph glyph-name="trademark" unicode="&#x2122;" horiz-adv-x="760" 
d="M368 396v263h-37v11h123l75 -181l71 181h120v-11h-36v-263h36v-10h-144v10h36v266h-1l-107 -279h-12l-111 279h-1v-266h36v-10h-85v10h37zM130 396v263q-93 0 -100 -78h-10v89h288v-89h-12q-5 78 -96 78v-263h38v-10h-145v10h37z" />
    <glyph glyph-name="uni2126" unicode="&#x2126;" horiz-adv-x="500" 
d="M11 0v159h20v-60h186v4q-79 16 -128 72t-49 152q0 64 22.5 113t60 76t80 40t88.5 13t88.5 -13t80.5 -40t61 -76t23 -113q0 -189 -177 -224v-4h188v60h20v-159h-260v119q45 14 60.5 66.5t15.5 161.5q0 202 -100 202q-53 0 -75.5 -51t-22.5 -156t20 -157.5t68 -65.5v-119
h-270z" />
    <glyph glyph-name="estimated" unicode="&#x212e;" horiz-adv-x="500" 
 />
    <glyph glyph-name="partialdiff" unicode="&#x2202;" horiz-adv-x="600" 
d="M340 450v-20q-48 0 -80 -19.5t-46 -54.5q-24 -59 -24 -126t8.5 -111.5t31.5 -76.5t59 -32q109 0 109 268q0 185 -76.5 294.5t-192.5 109.5v20q188 0 309.5 -123t121.5 -301q0 -170 -74 -232q-38 -31 -84.5 -43.5t-95.5 -12.5t-81.5 5.5t-68.5 21t-63 40t-45 67t-18 96.5
q0 114 74.5 172t235.5 58z" />
    <glyph glyph-name="uni2206" unicode="&#x2206;" horiz-adv-x="545" 
d="M272 570l254 -551l-14 -19h-502l237 570h25zM43 20h326l-174 364z" />
    <glyph glyph-name="product" unicode="&#x220f;" horiz-adv-x="500" 
d="M606 540h-50v-520h50v-20h-250v20h50v520h-166v-520h50v-20h-250v20h50v520h-50v20h566v-20z" />
    <glyph glyph-name="summation" unicode="&#x2211;" horiz-adv-x="500" 
d="M453 0h-449v22l223 236l-227 282v20h450v-170h-20q0 89 -35.5 119.5t-114.5 30.5h-106l164 -202l-208 -218h153q96 0 123 19.5t27 90.5h20v-230z" />
    <glyph glyph-name="minus" unicode="&#x2212;" horiz-adv-x="505" 
d="M465 245v-20h-425v20h425z" />
    <glyph glyph-name="radical" unicode="&#x221a;" horiz-adv-x="570" 
d="M530 560v-20h-209l-145 -540h-26l-110 292h21l100 -266l143 534h226z" />
    <glyph glyph-name="infinity" unicode="&#x221e;" horiz-adv-x="756" 
d="M536 442q91 0 138 -55t47 -150t-42 -156.5t-131 -61.5q-54 0 -91.5 25.5t-52.5 71.5q-64 -94 -184 -94q-91 0 -138 63.5t-47 152.5t48.5 148t129.5 59q52 0 88.5 -25t50.5 -70q64 92 184 92zM225 41q21 0 33.5 33t27.5 99q22 101 50 151q-6 34 -28 60t-48 26t-42 -15
t-22 -46q-11 -50 -11 -141.5t7 -129t33 -37.5zM447.5 80.5q22.5 -24.5 49 -24.5t42 15t21.5 45q11 48 11 138.5t-7.5 129.5t-32.5 39q-21 0 -33.5 -34.5t-26.5 -98.5t-25.5 -93.5t-26.5 -56.5q6 -35 28.5 -59.5z" />
    <glyph glyph-name="approxequal" unicode="&#x2248;" horiz-adv-x="465" 
d="M435 341v-26q-71 -49 -164 -16q-39 14 -78 27t-82 8t-81 -38v26q38 33 81 38t82 -8t78 -27q93 -33 164 16zM435 211v-26q-71 -49 -164 -16q-39 14 -78 27t-82 8t-81 -38v26q38 33 81 38t82 -8t78 -27q93 -33 164 16z" />
    <glyph glyph-name="notequal" unicode="&#x2260;" horiz-adv-x="505" 
d="M465 301h-139l-121 -136h260v-20h-278l-78 -87l-14 13l66 74h-121v20h138l121 136h-259v20h277l60 68l15 -14l-48 -54h121v-20z" />
    <glyph glyph-name="lessequal" unicode="&#x2264;" horiz-adv-x="483" 
d="M67 296l387 -137v-23l-423 154v13l423 152v-22zM454 11h-423v20h423v-20z" />
    <glyph glyph-name="greaterequal" unicode="&#x2265;" horiz-adv-x="483" 
d="M30 136v23l387 137l-387 137v22l423 -152v-13zM453 31v-20h-423v20h423z" />
    <glyph glyph-name="lozenge" unicode="&#x25ca;" horiz-adv-x="413" 
d="M207 491l-133 -223l133 -222l133 222zM373 268l-166 -272l-167 272l167 273z" />
    <glyph glyph-name="uni25CC" unicode="&#x25cc;" horiz-adv-x="660" 
d="M257 560q0 20 12.5 32t31.5 12t31.5 -12t12.5 -32t-12.5 -32t-31.5 -12t-31.5 12t-12.5 32zM396 514q-13 13 -13 31.5t12.5 31.5t32 13t31.5 -12.5t12 -31.5t-12.5 -32t-31 -13t-31.5 13zM478 477q0 19 12.5 32t31.5 13t31.5 -12.5t12.5 -32t-12.5 -32t-31.5 -12.5
t-31.5 12.5t-12.5 31.5zM528 359q0 19 12 31.5t31.5 12.5t32 -12.5t12.5 -31.5t-12.5 -31.5t-32 -12.5t-31.5 12.5t-12 31.5zM518 225q0 19 13 32t31.5 13t31 -13t12.5 -32t-12.5 -31.5t-31 -12.5t-31.5 12.5t-13 31.5zM445 127q0 19 12.5 31.5t31.5 12.5t32 -12.5t13 -31.5
t-13 -31.5t-32 -12.5t-31.5 12.5t-12.5 31.5zM324 74q0 20 12 32t32 12t32.5 -12.5t12.5 -31.5t-12.5 -31.5t-32.5 -12.5t-32 12t-12 32zM210 57q-13 13 -13 32t13 32t32 13t31.5 -13t12.5 -32t-12.5 -32t-31.5 -13t-32 13zM96 165q0 19 12.5 31.5t31.5 12.5t31.5 -12.5
t12.5 -31.5t-12.5 -31.5t-32 -12.5t-31.5 12.5t-12 31.5zM44 281q0 19 12.5 32t31.5 13t31.5 -12.5t12.5 -32t-12.5 -31.5t-31.5 -12t-31.5 12t-12.5 31zM57 407q0 19 13 31.5t32 12.5t32 -12.5t13 -31.5t-13 -31.5t-32 -12.5t-32 12.5t-13 31.5zM151.5 484.5
q-12.5 12.5 -12.5 32t12.5 32t31.5 12.5t31.5 -12.5t12.5 -32t-12.5 -32t-31.5 -12.5t-31.5 12.5z" />
    <glyph glyph-name="commaaccent" unicode="&#xf6c3;" horiz-adv-x="552" 
d="M288 -144l-24 -4q-18 0 -31.5 12.5t-13.5 34.5t15 37t41 15t42.5 -20t16.5 -46q0 -83 -89 -125l-8 16q62 34 62 70q0 10 -11 10z" />
    <glyph glyph-name="uni0915094D" horiz-adv-x="570" 
d="M264 124q60 2 71 79v337h-355v20h851v-20h-356v-154q40 74 140 74q45 0 84.5 -19.5t61.5 -51.5l-111 -97q-7 49 -31.5 81t-59.5 32t-57 -22t-27 -57v-326h-140v144q-34 -75 -131 -75q-82 0 -126.5 55t-44.5 139t47 137.5t128 53.5q58 0 90 -29l-5 -15q-8 4 -22 4
q-47 -1 -70 -41t-23 -105.5t23 -104.5t63 -39z" />
    <glyph glyph-name="uni0916094D" horiz-adv-x="652" 
d="M666 560v-20h-430q75 -29 75 -116q0 -61 -49.5 -98t-119.5 -43v-4q57 -15 100 -88q18 -29 37.5 -56.5t52.5 -46t78 -18.5q79 0 130.5 60t51.5 157q0 117 -72 117q-33 0 -50 -26.5t-17 -68.5t19 -70.5t51 -28.5q9 0 20 3l5 -11q-12 -14 -39 -23t-53 -9q-55 0 -92.5 35.5
t-37.5 96t40.5 100t99.5 39.5q147 0 147 -154q0 -125 -77.5 -193.5t-211.5 -68.5q-57 0 -102 17.5t-70 44.5t-46 58.5t-33 58.5q-29 64 -64 66v20h10q159 0 159 140q0 46 -26.5 78t-72.5 32h-99v20h686z" />
    <glyph glyph-name="uni0917094D" horiz-adv-x="419" 
d="M439 560v-20h-193q62 -18 96.5 -71.5t34.5 -118.5q0 -93 -59 -155.5t-153 -62.5q-60 0 -100 35.5t-40 97.5q0 38 22.5 63.5t56.5 25.5t52 -17.5t20 -43.5q0 -29 -13.5 -43t-28.5 -16q-43 -5 -43 -39q0 -16 12 -26t33 -10q49 0 72.5 55t23.5 137t-33.5 135.5t-98.5 53.5
h-120v20h459z" />
    <glyph glyph-name="uni0918094D" horiz-adv-x="340" 
d="M464 540h-149q-57 0 -86 -28.5t-29 -75t25 -74t69 -27.5h27v-20h-26q-51 0 -77 -33t-26 -84t31 -81t82 -30q69 0 118 49l13 -14q-32 -38 -87.5 -60.5t-124.5 -22.5t-123 39t-54 109q0 53 31 89.5t92 47.5v4q-49 5 -79.5 34t-30.5 69t18 68.5t52 40.5h-151v20h485v-20z
" />
    <glyph glyph-name="uni0919094D" horiz-adv-x="532" 
d="M484 400q28 0 48.5 -20t20.5 -49t-20.5 -49t-48.5 -20t-48.5 20t-20.5 49t20.5 49t48.5 20zM280 -174q-23 41 -36 83.5t-18 54.5l10 9q12 -9 43 -34t47.5 -36.5t43.5 -28.5q47 -29 101 -33l3 -12q-50 -53 -107.5 -53t-86.5 50zM367 540v-137q-62 30 -148 30
q-43 0 -64 -13.5t-21 -32t21.5 -33t53 -23.5t69 -23t69 -30.5t53 -47.5t21.5 -72q0 -71 -59.5 -116t-143 -45t-136 32t-52.5 84q0 29 18 49.5t48.5 20.5t48.5 -16.5t18 -40.5t-21.5 -41t-21.5 -27q0 -20 27.5 -30t69 -10t70 24t28.5 62t-28 61.5t-68.5 36t-81 25.5
t-68.5 39.5t-28 74t49 80t137 32.5v87h-248v20h573v-20h-185z" />
    <glyph glyph-name="uni091A094D" horiz-adv-x="324" 
d="M228 69q-89 0 -140.5 49.5t-51.5 134.5q0 65 33 111t92 62v4h-138v20h288v-20h-20q-55 0 -82.5 -48t-27.5 -118t28 -106t84.5 -36t112.5 72l15 -11q-30 -53 -80 -83.5t-113 -30.5zM392 560v-20h-412v20h412z" />
    <glyph glyph-name="uni091B094D" horiz-adv-x="670" 
d="M690 540h-371q-57 0 -87.5 -29t-30.5 -79q0 -84 73 -97v-20q-41 -4 -61 -34t-20 -75q0 -71 41.5 -108.5t95.5 -37.5t84.5 18t45.5 51q27 59 27 139t-23.5 122.5t-72.5 42.5t-70 -58l-19 8q26 86 136 86q83 0 136 -47.5t53 -139.5q0 -117 -75 -180.5t-213 -63.5
q-84 0 -146 14.5t-103.5 53.5t-41.5 93q0 108 106 126v4q-46 8 -72 35t-26 67.5t21.5 68.5t60.5 40h-158v20h710v-20z" />
    <glyph glyph-name="uni091C094D" horiz-adv-x="423" 
d="M514 450v-20h-250v-6q69 -9 110 -58t41 -121q0 -91 -58 -148.5t-168 -57.5q-79 0 -126.5 36t-47.5 104q0 37 23.5 64.5t56.5 27.5t52.5 -20.5t19.5 -51.5q0 -49 -52 -65q-6 -2 -16.5 -4.5t-15.5 -3.5q-13 -4 -13 -20t26.5 -30t59.5 -14q114 0 114 183q0 93 -30.5 138.5
t-105.5 46.5v20h380zM-20 540v20h534v-20h-534z" />
    <glyph glyph-name="uni091D094D" horiz-adv-x="442" 
d="M566 176v-20h-140q-3 -70 -63 -109.5t-145 -39.5q-31 0 -51 4q-29 -60 -75 -104l-16 13q17 14 38 42t33 52q-50 12 -76 38.5t-26 60t20 51.5t52 18t53 -22t21 -57.5t-16 -73.5q24 -2 39 -2q45 0 74.5 22.5t29.5 57t-28 56t-68.5 34.5t-80.5 27t-68 42t-28 74.5t47 78.5
t131 34v87h-242v20h502v-20h-120v-136q-66 29 -123.5 29t-79.5 -13.5t-22 -33t28 -35t69 -27.5t82.5 -27.5t72.5 -46t35 -74.5h141z" />
    <glyph glyph-name="uni091E094D" horiz-adv-x="380" 
d="M485 282v-20h-145q-1 -86 -50 -139t-135 -53q-56 0 -93.5 26t-46.5 60l17 7q24 -51 72 -51q91 0 91 152q0 50 -11 85q-21 68 -71 68q-42 0 -69 -42l-16 10q41 72 135 72q77 0 124 -48t52 -127h146zM484 560v-20h-502v20h502z" />
    <glyph glyph-name="uni091F094D" horiz-adv-x="441" 
d="M318 -179q-23 41 -36 83.5t-18 54.5l10 9q12 -9 43 -34t47.5 -36.5t43.5 -27.5q47 -30 101 -34l3 -12q-50 -53 -107.5 -53t-86.5 50zM439 108q-50 -84 -160.5 -84t-174 52.5t-63.5 155.5q0 85 57.5 137.5t147.5 52.5v118h-269v20h509v-20h-100v-140q-29 9 -60 9
q-73 0 -106.5 -49.5t-33.5 -135t37.5 -126.5t90.5 -41q33 0 63.5 17.5t47.5 43.5z" />
    <glyph glyph-name="uni0920094D" horiz-adv-x="535" 
d="M-19 560h572v-20h-215v-108q66 -19 108.5 -68.5t42.5 -123.5q0 -93 -68.5 -147t-154.5 -54t-153.5 54t-67.5 139.5t46.5 136t115.5 66.5v105h-226v20zM266 59q45 0 59.5 41.5t14.5 140t-14.5 140t-59.5 41.5t-59.5 -41.5t-14.5 -140t14.5 -140t59.5 -41.5zM330 -169
q-24 41 -37 83.5t-18 54.5l10 9q12 -9 43 -34t47.5 -36.5t42.5 -27.5q48 -30 102 -34l3 -12q-50 -53 -107.5 -53t-85.5 50z" />
    <glyph glyph-name="uni0921094D" horiz-adv-x="457" 
d="M268 -197q-23 41 -36 83.5t-18 54.5l10 9q12 -9 43 -34t47.5 -36.5t43.5 -27.5q47 -30 101 -34l3 -12q-50 -53 -107.5 -53t-86.5 50zM-20 540v20h497v-20h-109v-137q-62 30 -148 30q-43 0 -64 -13.5t-21 -33.5t29.5 -36t71.5 -28.5t84.5 -29.5t72 -51t29.5 -83
q0 -71 -59.5 -116t-143 -45t-136 32t-52.5 84q0 29 18 49.5t48.5 20.5t48.5 -16.5t18 -40.5t-21.5 -41t-21.5 -27q0 -20 27.5 -30t69 -10t70 24t28.5 62t-28 61.5t-68.5 36t-81 25.5t-68.5 39.5t-28 74t49 80t137 32.5v87h-248z" />
    <glyph glyph-name="uni0922094D" horiz-adv-x="522" 
d="M-20 560h562v-20h-153v-143q-24 12 -66 12q-68 0 -101 -50t-33 -130t22.5 -132.5t67.5 -52.5q76 0 76 124q0 34 -12 57.5t-37.5 23.5t-37.5 -30l-15 7q22 66 109 66q57 0 90 -35t33 -88q0 -75 -58.5 -110t-156.5 -35t-162 55.5t-64 146.5t57.5 143.5t147.5 52.5v118h-269
v20zM326 -179q-23 41 -36 83.5t-18 54.5l10 9q12 -9 43 -34t47.5 -36.5t43.5 -27.5q47 -30 101 -34l3 -12q-50 -53 -107.5 -53t-86.5 50z" />
    <glyph glyph-name="uni0923094D" horiz-adv-x="525" 
d="M571 560v-20h-88v-198q0 -108 -51 -156.5t-162.5 -48.5t-163 48.5t-51.5 156.5v198h-73v20h589zM338 328v212h-138v-212q0 -134 30 -158q15 -13 35.5 -13t32.5 5.5t19.5 19t12 26t6.5 36.5q2 40 2 84z" />
    <glyph glyph-name="uni0924094D" horiz-adv-x="288" 
d="M378 415v-20h-60q-70 0 -102 -40q-25 -33 -30 -97q-1 -24 -1 -60q0 -98 16.5 -135.5t57.5 -37.5q14 0 24 2l4 -18q-20 -8 -52 -8q-89 0 -142 46.5t-53 150.5q0 127 81 175q71 42 184 42h73zM-18 540v20h427v-20h-427z" />
    <glyph glyph-name="uni0925094D" horiz-adv-x="380" 
d="M407.5 144.5q-56.5 -56.5 -155 -56.5t-163 51.5t-64.5 141.5q0 18 2 32q10 -1 29 -1q164 0 164 119q0 38 -19 58t-49.5 20t-47.5 -16t-17 -42q0 -51 55 -58l-2 -20q-39 2 -60 23.5t-21 54.5q0 50 34.5 81t99 31t106 -35t41.5 -96.5t-47 -98t-120 -41.5q-2 -9 -2 -23
q0 -59 29.5 -102t91.5 -43t107.5 45.5t60.5 121.5l19 -4q-15 -86 -71.5 -142.5z" />
    <glyph glyph-name="uni0926094D" horiz-adv-x="489" 
d="M-20 560h529v-20h-120v-143q-24 12 -66 12q-68 0 -101 -50t-33 -130.5t32.5 -131.5t87.5 -51q11 0 17 1q-30 43 -30 85.5t20.5 65t54.5 22.5t54.5 -21.5t20.5 -53.5q0 -76 -85 -107q38 -43 113 -79l-10 -18q-84 42 -125 90q-31 -7 -61 -7q-106 0 -170 53.5t-64 146.5
t57.5 145.5t147.5 52.5v118h-269v20zM310 -186q-24 41 -37 83.5t-18 54.5l10 9q12 -9 43 -34t47.5 -36.5t42.5 -28.5q48 -29 102 -33l3 -12q-50 -53 -107.5 -53t-85.5 50z" />
    <glyph glyph-name="uni0927094D" horiz-adv-x="370" 
d="M358 560h116v-20h-116v20zM321 315h-26q-51 0 -77 -33t-26 -84.5t32 -81t86 -29.5q78 0 141 63l13 -14q-35 -43 -95 -70t-137 -27t-131 39t-54 109q0 53 30.5 90t89.5 48v4q-48 6 -77.5 34.5t-29.5 68.5q0 83 71 108h-151v20h315v-20q-54 0 -74.5 -28.5t-20.5 -75t25 -74
t69 -27.5h27v-20z" />
    <glyph glyph-name="uni0928094D" horiz-adv-x="279" 
d="M365 371h-134q-80 0 -109 -21q-15 -11 -15 -24t17.5 -19.5t38.5 -10.5t38.5 -23t17.5 -53.5t-24 -56.5t-64.5 -22t-68.5 29t-28 78q0 77 55.5 110t138.5 33h137v-20zM-20 540v20h388v-20h-388z" />
    <glyph glyph-name="uni092A094D" horiz-adv-x="287" 
d="M210 132q-109 0 -142 94q-17 47 -17 119v195h-71v20h395v-20h-178v-202q0 -78 7 -96.5t15 -31.5q15 -26 47.5 -26t60 23.5t41.5 53.5l17 -9q-19 -50 -64.5 -85t-110.5 -35z" />
    <glyph glyph-name="uni092B094D" horiz-adv-x="575" 
d="M818 540h-336v-152q41 72 139 72q45 0 84.5 -19.5t61.5 -51.5l-111 -97q-7 49 -31.5 81t-59 32t-56 -20.5t-27.5 -52.5v-332h-140v201q-15 -26 -52 -47.5t-82 -21.5t-78.5 18t-49.5 50q-29 57 -29 145v195h-71v20h838v-20zM342 540h-145v-202q0 -78 7 -96.5t15 -31.5
q15 -26 46 -26t51 16.5t26 37.5v302z" />
    <glyph glyph-name="uni092C094D" horiz-adv-x="324" 
d="M-20 560h438v-20h-438v20zM258 420q-35 0 -56 -46l204 -192l-14 -15l-17 15q-21 -56 -64.5 -83t-99.5 -27q-74 0 -125 48t-51 142.5t50.5 144t124.5 49.5q55 0 89 -32l-11 -13q-15 9 -30 9zM185 273q0 -149 88 -149q60 3 87 73l-165 155q-10 -31 -10 -79z" />
    <glyph glyph-name="uni092D094D" horiz-adv-x="408" 
d="M523 331v-19h-207q-4 -103 -44 -155t-107 -52q-50 0 -82.5 28t-32.5 78.5t36 82t92 36.5v7q0 106 -13.5 144.5t-42.5 38.5q-20 0 -34.5 -16.5t-16.5 -47.5l-19 1q1 49 33 77.5t84 28.5q148 0 148 -226v-6h206zM117 160q56 0 61 149q-47 -4 -74.5 -31.5t-27.5 -67.5
q0 -22 11 -36t30 -14z" />
    <glyph glyph-name="uni092E094D" horiz-adv-x="399" 
d="M513 331v-19h-216q-1 -110 -38 -158.5t-108 -48.5q-51 0 -86 27t-35 78.5t36 83t92 36.5v210h-176v20h482v-20h-167v-209h216zM101 160q31 0 43.5 38.5t13.5 110.5q-47 -4 -74.5 -31.5t-27.5 -67.5q0 -23 11.5 -36.5t33.5 -13.5z" />
    <glyph glyph-name="uni092F094D" horiz-adv-x="333" 
d="M162 292l-1 -15q0 -59 30.5 -102t100 -43t120.5 72l16 -13q-60 -95 -184 -95q-100 0 -164.5 51.5t-64.5 141.5q0 18 2 32q10 -1 17 -1q129 0 129 111q0 62 -30.5 85.5t-89.5 23.5h-61v20h460v-20h-233q47 -12 73 -43.5t26 -81.5t-38 -81.5t-108 -38.5v-3z" />
    <glyph glyph-name="uni0930094D" horiz-adv-x="373" 
d="M234 -189q-23 41 -36 83.5t-18 54.5l10 9q12 -9 43 -34t47.5 -36.5t43.5 -27.5q47 -30 101 -34l3 -12q-50 -53 -107.5 -53t-86.5 50zM371 20q-32 -24 -94.5 -24t-103 24.5t-58 60.5t-29.5 73q-28 93 -75 106v20h31q138 0 138 127q0 133 -123 133h-77v20h413v-20h-182
q52 -12 79.5 -47.5t27.5 -85.5q0 -67 -56 -103t-150 -42v-4q51 -7 83 -34t44.5 -59.5t21.5 -64.5t24.5 -53.5t40 -21.5t39.5 9z" />
    <glyph glyph-name="uni0932094D" horiz-adv-x="729" 
d="M-20 540v20h769v-20h-769zM212 31q-92 0 -134 59t-42 151.5t54 148.5t144.5 56t131.5 -68q41 68 131.5 68t144.5 -56t54 -148.5t-42 -151.5t-134 -59q-57 0 -89 30l10 14q15 -11 35 -11q39 0 57.5 36t18.5 127q0 199 -63 199q-58 0 -58 -189v-64h-130v64q0 189 -58 189
q-63 0 -63 -199q0 -91 18.5 -127t57.5 -36q20 0 35 11l10 -14q-32 -30 -89 -30z" />
    <glyph glyph-name="uni0933094D" horiz-adv-x="756" 
d="M-21 560h798v-20h-798v20zM536 452q91 0 138 -55t47 -150t-42 -156.5t-131 -61.5q-54 0 -91.5 25.5t-52.5 71.5q-64 -94 -184 -94q-91 0 -138 63.5t-47 152.5t48.5 148t129.5 59q52 0 88.5 -25t50.5 -70q64 92 184 92zM225 51q21 0 33.5 33t27.5 99q22 101 50 151
q-6 34 -28 60t-48 26t-42 -15t-22 -46q-11 -50 -11 -141.5t7 -129t33 -37.5zM447.5 90.5q22.5 -24.5 49 -24.5t42 15t21.5 45q11 48 11 138.5t-7.5 129.5t-32.5 39q-21 0 -33.5 -34.5t-26.5 -98.5t-25.5 -93.5t-26.5 -56.5q6 -35 28.5 -59.5z" />
    <glyph glyph-name="uni0935094D" horiz-adv-x="282" 
d="M-20 540v20h438v-20h-438zM258 420q-32 0 -52.5 -39.5t-20.5 -107.5q0 -149 88 -149q65 3 92 88l17 -9q-18 -66 -64 -98.5t-113.5 -32.5t-118.5 48t-51 142.5t50.5 144t124.5 49.5q55 0 89 -32l-11 -13q-15 9 -30 9z" />
    <glyph glyph-name="uni0936094D" horiz-adv-x="455" 
d="M526 560v-20h-206q78 -36 78 -135q0 -85 -68.5 -127.5t-161.5 -42.5h-19v-4q39 -5 65 -28t39 -52t25 -57q30 -67 96 -67q22 0 32 5l5 -14q-41 -22 -106 -22q-148 0 -199 118q-35 85 -61 105q-9 7 -25 14v20h43q97 0 148 42.5t51 125.5q0 59 -24 89t-54 30q-64 0 -64 -28
q0 -12 42 -20q16 -3 29 -17.5t13 -41t-17.5 -44t-48 -17.5t-51.5 21.5t-21 58.5q0 60 55 88h-141v20h546z" />
    <glyph glyph-name="uni0937094D" horiz-adv-x="274" 
d="M196 338q0 -78 7 -96.5t15 -31.5q15 -26 48.5 -26t58 26t30.5 51l16 -5q-12 -47 -55 -85t-98.5 -38.5t-89 17.5t-49.5 50q-29 59 -29 145v195h-70v20h399v-20h-183v-72l204 -192l-15 -13l-189 178v-103z" />
    <glyph glyph-name="uni0938094D" horiz-adv-x="354" 
d="M460 560v-20h-254q52 -12 79.5 -47.5t27.5 -85.5q0 -89 -100 -125h232v-20h-338v-4q51 -7 83 -34t44.5 -59.5t21.5 -64.5t24.5 -53.5t40 -21.5t39.5 9l6 -14q-32 -24 -94.5 -24t-103 24.5t-58 60.5t-28.5 73q-29 93 -76 106v20h31q138 0 138 127q0 133 -123 133h-72v20
h480z" />
    <glyph glyph-name="uni0939094D" horiz-adv-x="443" 
d="M431 540v-122q-50 13 -112 13q-123 0 -123 -67q0 -58 91 -58h244v-24h-249q-41 0 -67 -33t-26 -92.5t35.5 -91.5t85.5 -32q77 0 125 67l16 -12q-10 -21 -39 -44q-56 -47 -145.5 -47t-153.5 44.5t-64 117.5q0 91 104 128q-39 7 -65.5 28.5t-26.5 56.5q0 90 162 90
q30 0 68 -4v82h-311v20h565v-20h-114z" />
    <glyph glyph-name="uni0915093C094D" horiz-adv-x="568" 
d="M264 124q60 2 71 79v337h-355v20h851v-20h-356v-154q40 74 140 74q45 0 84.5 -19.5t61.5 -51.5l-111 -97q-7 49 -31.5 81t-59.5 32t-57 -22t-27 -57v-326h-140v144q-34 -75 -131 -75q-82 0 -126.5 55t-44.5 139t47 137.5t128 53.5q58 0 90 -29l-5 -15q-8 4 -22 4
q-47 -1 -70 -41t-23 -105.5t23 -104.5t63 -39zM144 -2q28 0 48.5 -20t20.5 -49t-20.5 -49t-48.5 -20t-48.5 20t-20.5 49t20.5 49t48.5 20z" />
    <glyph glyph-name="uni0916093C094D" horiz-adv-x="652" 
d="M666 560v-20h-430q75 -29 75 -116q0 -61 -49.5 -98t-119.5 -43v-4q57 -15 100 -88q18 -29 37.5 -56.5t52.5 -46t78 -18.5q79 0 130.5 60t51.5 157q0 117 -72 117q-33 0 -50 -26.5t-17 -68.5t19 -70.5t51 -28.5q9 0 20 3l5 -11q-12 -14 -39 -23t-53 -9q-55 0 -92.5 35.5
t-37.5 96t40.5 100t99.5 39.5q147 0 147 -154q0 -125 -77.5 -193.5t-211.5 -68.5q-57 0 -102 17.5t-70 44.5t-46 58.5t-33 58.5q-29 64 -64 66v20h10q159 0 159 140q0 46 -26.5 78t-72.5 32h-99v20h686zM145 7q29 0 49 -20.5t20 -48.5t-20 -48.5t-49 -20.5t-49 20.5
t-20 48.5t20 48.5t49 20.5z" />
    <glyph glyph-name="uni0917093C094D" horiz-adv-x="419" 
d="M439 560v-20h-193q62 -18 96.5 -71.5t34.5 -118.5q0 -93 -59 -155.5t-153 -62.5q-60 0 -100 35.5t-40 97.5q0 38 22.5 63.5t56.5 25.5t52 -17.5t20 -43.5q0 -29 -13.5 -43t-28.5 -16q-43 -5 -43 -39q0 -16 12 -26t33 -10q49 0 72.5 55t23.5 137t-33.5 135.5t-98.5 53.5
h-120v20h459zM184 73q28 0 48.5 -20.5t20.5 -48.5t-20.5 -48.5t-48.5 -20.5t-48.5 20.5t-20.5 48.5t20.5 48.5t48.5 20.5z" />
    <glyph glyph-name="uni091C093C094D" horiz-adv-x="443" 
d="M514 450v-20h-250v-6q69 -9 110 -58t41 -121q0 -91 -58 -148.5t-168 -57.5q-79 0 -126.5 36t-47.5 104q0 37 23.5 64.5t56.5 27.5t52.5 -20.5t19.5 -51.5q0 -49 -52 -65q-6 -2 -16.5 -4.5t-15.5 -3.5q-13 -4 -13 -20t26.5 -30t59.5 -14q114 0 114 183q0 93 -30.5 138.5
t-105.5 46.5v20h380zM-20 540v20h534v-20h-534zM200 -81q0 -29 -20 -49t-49 -20t-49 20t-20 49t20 49t49 20t49 -20t20 -49z" />
    <glyph glyph-name="uni0928093C094D" horiz-adv-x="279" 
d="M365 371h-134q-80 0 -109 -21q-15 -11 -15 -24t17.5 -19.5t38.5 -10.5t38.5 -23t17.5 -53.5t-24 -56.5t-64.5 -22t-68.5 29t-28 78q0 77 55.5 110t138.5 33h137v-20zM-20 540v20h388v-20h-388zM190 26q0 -28 -20 -48.5t-49 -20.5t-49 20.5t-20 48.5t20 48.5t49 20.5
t49 -20.5t20 -48.5z" />
    <glyph glyph-name="uni092B093C094D" horiz-adv-x="585" 
d="M818 540h-336v-152q41 72 139 72q45 0 84.5 -19.5t61.5 -51.5l-111 -97q-7 49 -31.5 81t-59 32t-56 -20.5t-27.5 -52.5v-332h-140v201q-15 -26 -52 -47.5t-82 -21.5t-78.5 18t-49.5 50q-29 57 -29 145v195h-71v20h838v-20zM342 540h-145v-202q0 -78 7 -96.5t15 -31.5
q15 -26 46 -26t51 16.5t26 37.5v302zM157 83q29 0 49 -20.5t20 -48.5t-20 -48.5t-49 -20.5t-49 20.5t-20 48.5t20 48.5t49 20.5z" />
    <glyph glyph-name="uni092F093C094D" horiz-adv-x="331" 
d="M160 292l-1 -15q0 -59 30.5 -102t100 -43t120.5 72l16 -13q-60 -95 -184 -95q-100 0 -164.5 51.5t-64.5 141.5q0 18 2 32q10 -1 17 -1q129 0 129 111q0 62 -30.5 85.5t-89.5 23.5h-61v20h460v-20h-233q47 -12 73 -43.5t26 -81.5t-38 -81.5t-108 -38.5v-3zM148 62
q28 0 48.5 -20t20.5 -49t-20.5 -49t-48.5 -20t-48.5 20t-20.5 49t20.5 49t48.5 20z" />
    <glyph glyph-name="uni09080902" horiz-adv-x="551" 
d="M301.5 700.5q15.5 15.5 38 15.5t38 -15t15.5 -38t-15.5 -39t-37.5 -16t-38 16t-16 38.5t15.5 38zM362 540v-136q-66 29 -123.5 29t-79.5 -13.5t-22 -32t21.5 -32.5t53.5 -23t69 -23t69 -30t53.5 -46.5t21.5 -70.5q0 -73 -60.5 -114t-147.5 -41q-31 0 -51 4
q-29 -60 -75 -104l-16 13q17 14 38 42t33 52q-50 12 -76 38.5t-26 60t20 51.5t52 18t53 -22t21 -57.5t-16 -73.5q24 -2 39 -2q45 0 74.5 22.5t29.5 57t-28 56t-68.5 34.5t-80.5 27t-68 42t-28 74.5t47 78.5t131 34v87h-242v20h295q-50 9 -84 43t-34 85t38 87t104 36
q101 0 128 -85l-21 -7q-23 42 -72 42q-35 0 -56.5 -25t-21.5 -69t38 -75.5t101 -31.5h87v-20h-120z" />
    <glyph glyph-name="uni09300941" horiz-adv-x="582" 
d="M602 560v-20h-386q52 -12 79.5 -47.5t27.5 -79t-19 -72.5l3 -3q62 39 118.5 39t94 -36t37.5 -90t-35 -89.5t-100 -35.5q-88 0 -127 47l12 15q21 -16 53.5 -16t52.5 20.5t20 56.5t-17.5 60t-44.5 24t-50.5 -10.5t-44.5 -23.5t-63 -24.5t-96 -12.5v-4q51 -7 83 -34
t44.5 -59.5t21.5 -64.5t24.5 -53.5t40 -21.5t39.5 9l6 -14q-32 -24 -94.5 -24t-103 24.5t-58 60.5t-28.5 73q-29 93 -76 106v20h31q138 0 138 127q0 133 -123 133h-82v20h622z" />
    <glyph glyph-name="uni09300942" horiz-adv-x="667" 
d="M687 560v-20h-471q52 -12 79.5 -47.5t27.5 -77t-16 -70.5h26q24 78 136 78q81 0 128 -39.5t47 -109.5t-52 -113t-136 -43q-58 0 -90 16l5 20q5 -1 15 -1q56 0 89.5 35.5t33.5 87.5q0 107 -85 107q-33 0 -53.5 -18.5t-20.5 -49t18 -52.5l-16 -12q-23 27 -23 63q0 7 1 11
h-38q-54 -57 -175 -63v-4q51 -7 83 -34t44.5 -59.5t21.5 -64.5t24.5 -53.5t40 -21.5t39.5 9l6 -14q-32 -24 -94.5 -24t-103 24.5t-58 60.5t-28.5 73q-29 93 -76 106v20h31q138 0 138 127q0 133 -123 133h-82v20h707z" />
    <glyph glyph-name="uni09390941" horiz-adv-x="506" 
d="M419 540v-142q-66 22 -133 22q-102 0 -102 -56q0 -58 91 -58h1q184 0 184 -101q0 -42 -27 -68t-83 -26t-102 34l6 12q12 -5 31.5 -5t36 17.5t16.5 48t-18.5 47.5t-54.5 17t-62 -33t-26 -89q0 -122 123 -133q67 0 103 -31t36 -88t-45 -93t-131 -36t-144.5 61.5
t-59.5 152.5h21q2 -66 43.5 -117.5t112.5 -51.5q36 0 58.5 23t22.5 59.5t-18.5 58t-44 21.5t-41.5 -10.5t-21 -26.5l-19 8q12 28 37 45q-86 12 -129.5 51.5t-43.5 103.5q0 92 106 129q-40 7 -67 27t-27 52q0 80 144 80l86 -4v99h-299v20h546v-20h-107z" />
    <glyph glyph-name="uni09390942" horiz-adv-x="506" 
d="M419 540v-142q-66 22 -133 22q-102 0 -102 -56q0 -58 91 -58h1q184 0 184 -101q0 -42 -27 -68t-83 -26t-102 34l6 12q12 -5 31.5 -5t36 17.5t16.5 48t-18.5 47.5t-54.5 17t-62 -33t-26 -89q0 -104 90 -128q88 -13 135.5 -81.5t49.5 -153.5h-20q-3 71 -43 132t-110 61
q-39 0 -63.5 -24.5t-24.5 -60.5t19.5 -56.5t46.5 -20.5q47 0 56 47l20 -5q-10 -79 -119 -79q-61 0 -101.5 29.5t-40.5 85.5q0 76 71 112q-106 38 -106 134.5t106 133.5q-40 7 -67 27t-27 52q0 80 144 80l86 -4v99h-299v20h546v-20h-107z" />
    <glyph glyph-name="uni09260943" horiz-adv-x="489" 
d="M389 540v-93q-24 12 -66 12q-69 0 -101.5 -34.5t-32.5 -95t44.5 -89.5t115.5 -29v-24q-73 -2 -108.5 -28.5t-35.5 -65.5t27 -64t79 -25q69 0 106 57l17 -10q-18 -40 -65 -65t-120 -25t-129 31t-56 94q0 86 112 112q-132 31 -132 134q0 72 55.5 106t149.5 34v68h-269v20
h529v-20h-120z" />
    <glyph glyph-name="uni09390943" horiz-adv-x="579" 
d="M430 435h-87q-46 0 -73 -2q-66 -5 -66 -56q0 -35 29 -49q40 8 75 8t66.5 -4.5t61.5 -14.5q64 -22 64 -75q0 -23 -15 -44.5t-33 -35.5q-52 -37 -55 -59q0 -30 61 -30q39 0 95 23l8 -18q-62 -27 -126.5 -27t-107.5 26t-43 73q0 25 15.5 48.5t34.5 37.5q49 36 49 51
q0 27 -61.5 27t-97 -47.5t-35.5 -119.5t39 -113t107 -41q30 0 68 10l5 -24q-49 -15 -113 -15q-119 0 -182.5 49.5t-63.5 132t74 134.5q-26 14 -43.5 36t-17.5 47q0 43 40.5 65.5t84.5 24.5t103 2v85h-310v20h619v-20h-169v-105z" />
    <glyph glyph-name="uni094D0930" horiz-adv-x="0" 
d="M-196 4h31v-4l165 -115l-12 -18l-168 116l-161 -112l-12 18l157 111v4z" />
    <glyph glyph-name="uni0930094D.1" horiz-adv-x="168" 
d="M0 351q39 -15 88 -15t86 14l7 -17q-39 -16 -98 -16t-90 17zM-20 540v20h208v-20h-208z" />
    <glyph glyph-name="uni0930094D.2" horiz-adv-x="0" 
d="M-59.5 734.5q-17.5 17.5 -47.5 17.5t-47.5 -20.5t-17.5 -55.5q0 -54 34.5 -83.5t95.5 -32.5v-4h-58q-84 0 -135 35.5t-51 93.5t37 92.5t96.5 34.5t96 -35.5t38.5 -89.5h-22q-2 30 -19.5 47.5z" />
    <glyph glyph-name="uni0930094D0902" horiz-adv-x="0" 
d="M-55 670q0 -17 -12 -29t-29 -12t-29 12t-12 29t12 29t29 12t29 -12t12 -29zM-59.5 734.5q-17.5 17.5 -47.5 17.5t-47.5 -20.5t-17.5 -55.5q0 -54 34.5 -83.5t95.5 -32.5v-4h-58q-84 0 -135 35.5t-51 93.5t37 92.5t96.5 34.5t96 -35.5t38.5 -89.5h-22q-2 30 -19.5 47.5z
" />
    <glyph glyph-name="uni0930094D.aMatraI" horiz-adv-x="0" 
d="M-35 727q10 0 17.5 2t11.5 3t7 7t3 7q4 11 4 22q6 41 29 67q35 39 90 39t95 -33t43 -91h-22q-2 30 -19.5 47.5t-46.5 17.5q-59 0 -59 -82q0 -48 -31.5 -76.5t-86.5 -28.5l-35 3v96z" />
    <glyph glyph-name="uni0902.aMatraI" horiz-adv-x="0" 
d="M290 691q0 -29 -20 -48.5t-48 -19.5t-48 19.5t-20 48.5t20 49t48 20t48 -20t20 -49z" />
    <glyph glyph-name="uni0930094D0902.aMatraI" horiz-adv-x="0" 
d="M-35 727q10 0 17.5 2t11.5 3t7 7t3 7q4 11 4 22q6 41 29 67q35 39 90 39t95 -33t43 -91h-22q-2 30 -19.5 47.5t-46.5 17.5q-59 0 -59 -82q0 -48 -31.5 -76.5t-86.5 -28.5l-35 3v96zM221 746q0 -17 -12 -29t-29 -12t-29 12t-12 29t12 29t29 12t29 -12t12 -29z" />
    <glyph glyph-name="uni09400930094D" 
d="M-118 658q0 45 35.5 78t113.5 33t125 -43q-1 5 -1 14q0 39 26 67t71 28t69 -31.5t24 -79.5q0 -16 -5 -38l-18 2q1 5 1 24t-16 36t-45.5 17t-47.5 -20t-18 -43.5t3 -35.5q19 -43 21 -106h100v-20h-100v-540h-140v540h-100v20h100q-1 90 -25 130.5t-74 40.5
q-36 0 -57.5 -19t-21.5 -54q0 -17 7 -33l-19 -7q-8 19 -8 40z" />
    <glyph glyph-name="uni09400902" 
d="M317 782q28 0 48 -20t20 -49t-19.5 -48.5t-48.5 -19.5t-48.5 19.5t-19.5 48.5t20 49t48 20zM320 560v-20h-100v-540h-140v540h-100v20h100q-1 90 -25 130.5t-74 40.5q-36 0 -57.5 -19t-21.5 -54q0 -17 7 -33l-19 -7q-8 19 -8 40q0 45 35.5 78t117.5 33t133 -54t52 -155
h100z" />
    <glyph glyph-name="uni09400930094D0902" 
d="M223 699q0 17 12 29t29 12t29 -12t12 -29t-12 -29t-29 -12t-29 12t-12 29zM-118 658q0 45 35.5 78t113.5 33t125 -43q-1 5 -1 14q0 39 26 67t71 28t69 -31.5t24 -79.5q0 -16 -5 -38l-18 2q1 5 1 24t-16 36t-45.5 17t-47.5 -20t-18 -43.5t3 -35.5q19 -43 21 -106h100v-20
h-100v-540h-140v540h-100v20h100q-1 90 -25 130.5t-74 40.5q-36 0 -57.5 -19t-21.5 -54q0 -17 7 -33l-19 -7q-8 19 -8 40z" />
    <glyph glyph-name="uni0940.aLong" 
d="M320 560v-20h-100v-540h-140v540h-100v20h100q-2 98 -58 148.5t-190.5 50.5t-207.5 -32.5t-73 -90.5q0 -19 8 -35l-21 -7q-7 15 -7 43q0 66 78 104.5t256.5 38.5t265 -53t89.5 -167h100z" />
    <glyph glyph-name="uni09400930094D.aLong" 
d="M317 688q1 5 1 24t-16 36t-45.5 17t-47.5 -20t-18 -45t5 -40q22 -42 24 -100h100v-20h-100v-540h-140v540h-100v20h100q-2 98 -58 148.5t-190.5 50.5t-207.5 -32.5t-73 -90.5q0 -19 8 -35l-21 -7q-7 15 -7 43q0 66 78 104.5t241 38.5q220 0 305 -70q-5 15 -5 30
q0 39 26 67t71 28t69 -31.5t24 -79.5q0 -16 -5 -38z" />
    <glyph glyph-name="uni09400902.aLong" 
d="M298 760q28 0 48 -20t20 -49t-20 -48.5t-48 -19.5t-48 19.5t-20 48.5t20 49t48 20zM-469 637q0 66 78 104.5t256.5 38.5t265 -53t89.5 -167h100v-20h-100v-540h-140v540h-100v20h100q-2 98 -58 148.5t-190.5 50.5t-207.5 -32.5t-73 -90.5q0 -19 8 -35l-21 -7q-7 15 -7 43
z" />
    <glyph glyph-name="uni09400930094D0902.aLong" 
d="M204 699q0 17 12 29t29 12t29 -12t12 -29t-12 -29t-29 -12t-29 12t-12 29zM303 688q1 5 1 24t-16 36t-45.5 17t-47.5 -20t-18 -52v-5q40 -47 43 -128h100v-20h-100v-540h-140v540h-100v20h100q-2 98 -58 148.5t-190.5 50.5t-207.5 -32.5t-73 -90.5q0 -19 8 -35l-21 -7
q-7 15 -7 43q0 66 78 104.5t259 38.5t270 -57q-2 10 -2 17q0 39 26 67t71 28t69 -31.5t24 -79.5q0 -16 -5 -38z" />
    <glyph glyph-name="uni09470930094D" horiz-adv-x="0" 
d="M-38 560v-10q-82 8 -183.5 45t-164.5 75q-29 17 -29 50q0 21 15 35t31.5 14t30 -6.5t32 -22.5t31.5 -28.5t40 -40.5t42 -43l3 3q-19 22 -19 67.5t32.5 75t86 29.5t86 -35.5t32.5 -92.5l-2 -20h-21q1 7 1 13q0 74 -64 74q-36 0 -55 -24t-19 -62t27.5 -67t66.5 -29z" />
    <glyph glyph-name="uni09470902" horiz-adv-x="0" 
d="M-389 691q-29 20 -29 45.5t15 39.5t35 14t38 -12.5t40 -34.5t60.5 -63t75.5 -77l-9 -14q-47 22 -98.5 43t-80.5 33.5t-47 25.5zM-28.5 743q16.5 -17 16.5 -41.5t-16.5 -41t-41 -16.5t-41 16.5t-16.5 41t16.5 41.5t41 17t41 -17z" />
    <glyph glyph-name="uni09470930094D0902" horiz-adv-x="0" 
d="M10 686q-9 56 -72 56q-32 0 -51 -24t-19 -62t27.5 -67t66.5 -29v-10q-82 8 -183.5 45t-164.5 75q-29 17 -29 50q0 21 15 35t31.5 14t30 -6.5t32 -22.5t31.5 -28.5t40 -40.5t42 -43l3 3q-19 22 -19 67.5t33 75.5t85 30t84.5 -32.5t35.5 -85.5h-19zM-11 660q0 -17 -12 -29
t-29 -12t-29 12t-12 29t12 29t29 12t29 -12t12 -29z" />
    <glyph glyph-name="uni09480930094D" horiz-adv-x="0" 
d="M-187 632q-18 26 -18 70.5t31 72.5t82 28t82 -37t31 -94l-2 -20h-21q1 7 1 13q0 35 -17 55t-51 20t-51.5 -22.5t-17.5 -59.5t25.5 -65.5t61.5 -32.5v-8q-58 0 -105 21t-110.5 70.5t-84 74.5t-20.5 43.5t10.5 28t24.5 9.5q25 0 50.5 -30t90.5 -140zM-530 668.5
q-10 10.5 -10 27t12.5 27t35 10.5t65 -25t176.5 -114l-9 -20q-49 17 -128 40t-105.5 33.5t-36.5 21z" />
    <glyph glyph-name="uni09480902" horiz-adv-x="0" 
d="M42 729q0 -29 -20 -48.5t-48 -19.5t-48 19.5t-20 48.5t20 48.5t48 19.5t48 -19.5t20 -48.5zM-440 694q0 18 12.5 28.5t35 10.5t65 -25t176.5 -114l-9 -20q-47 15 -101 31q-79 23 -135 43q-44 16 -44 46zM-222 690q-18 15 -36.5 33.5t-18.5 37t11 28.5t25 10
q30 0 55.5 -33t106.5 -167l-16 -13q-28 23 -68.5 56t-58.5 48z" />
    <glyph glyph-name="uni09480930094D0902" horiz-adv-x="0" 
d="M-67 740q-36 0 -53.5 -22.5t-17.5 -59.5t25.5 -65.5t61.5 -32.5v-8q-58 0 -105 21t-110.5 70.5t-84 74.5t-20.5 43.5t10.5 28t24.5 9.5q25 0 50.5 -30t90.5 -140l8 3q-18 26 -18 70.5t31 72.5t80.5 28t81 -34t33.5 -88h-23q-8 59 -65 59zM-530 668.5q-10 10.5 -10 27
t12.5 27t35 10.5t65 -25t176.5 -114l-9 -20q-49 17 -128 40t-105.5 33.5t-36.5 21zM-22 660q0 -17 -12 -29t-29 -12t-29 12t-12 29t12 29t29 12t29 -12t12 -29z" />
    <glyph glyph-name="uni094B0930094D" 
d="M316 668q0 74 -64 74q-36 0 -55 -24t-19 -62t27.5 -67t66.5 -29h48v-20h-100v-540h-140v540h-100v20h228q-74 15 -154 47t-130 63q-29 17 -29 50q0 21 15 35t31.5 14t30 -6.5t32 -22.5t31.5 -28.5t40 -40.5t42 -43l3 3q-19 22 -19 67.5t32.5 75t86 29.5t86 -35.5
t32.5 -92.5l-2 -20h-21q1 7 1 13z" />
    <glyph glyph-name="uni094B0902" horiz-adv-x="291" 
d="M320 560v-20h-100v-540h-140v540h-100v20h340zM-69 691q-29 20 -29 45.5t15 39.5t35 14t38 -12.5t40 -34.5t60.5 -63t75.5 -77l-9 -14q-47 22 -98.5 43t-80.5 33.5t-47 25.5zM221 635q-29 0 -48.5 19.5t-19.5 48.5t20 49t48 20t48 -20t20 -49t-19.5 -48.5t-48.5 -19.5z
" />
    <glyph glyph-name="uni094B0930094D0902" horiz-adv-x="291" 
d="M217 660q0 17 12 29t29 12t29 -12t12 -29t-12 -29t-29 -12t-29 12t-12 29zM320 686q-9 56 -72 56q-32 0 -51 -24t-19 -62t27.5 -67t66.5 -29h48v-20h-100v-540h-140v540h-100v20h228q-74 15 -154 47t-130 63q-29 17 -29 50q0 21 15 35t31.5 14t30 -6.5t32 -22.5
t31.5 -28.5t40 -40.5t42 -43l3 3q-19 22 -19 67.5t32.5 75t84.5 29.5t87 -32.5t38 -84.5h-23z" />
    <glyph glyph-name="uni094C0930094D" horiz-adv-x="291" 
d="M159 632q-18 26 -18 70.5t31 72.5t82 28t82 -37t31 -94l-2 -20h-21q1 7 1 13q0 35 -17 55t-51 20t-51.5 -22.5t-17.5 -59.5t25.5 -65.5t61.5 -32.5h25v-20h-100v-540h-140v540h-100v20h248q-63 16 -137.5 74.5t-95 83.5t-20.5 43.5t10.5 28t24.5 9.5q25 0 50.5 -30
t90.5 -140zM-184 668.5q-10 10.5 -10 27t12.5 27t35 10.5t65 -25t176.5 -114l-9 -20q-49 17 -128 40t-105.5 33.5t-36.5 21z" />
    <glyph glyph-name="uni094C0902" horiz-adv-x="291" 
d="M283 772q28 0 48 -20t20 -49t-19.5 -48.5t-48.5 -19.5t-48.5 19.5t-19.5 48.5t20 49t48 20zM320 560v-20h-100v-540h-140v540h-100v20h340zM-186 701q0 22 15.5 36t31 14t22.5 -1t16.5 -5t17.5 -7.5t22.5 -12t26 -15.5t33.5 -21.5t39 -25.5q65 -44 103 -68l-9 -20
q-72 21 -160.5 43t-112.5 31q-45 17 -45 52zM-18 778q0 21 14.5 35.5t36.5 14.5q34 0 63.5 -38.5t115.5 -184.5l-16 -15q-38 29 -83 60q-82 58 -106.5 82.5t-24.5 45.5z" />
    <glyph glyph-name="uni094C0930094D0902" 
d="M242 660q0 17 12 29t29 12t29 -12t12 -29t-12 -29t-29 -12t-29 12t-12 29zM159 632q-18 26 -18 70.5t31 72.5t80.5 28t81 -34t33.5 -88h-23q-8 59 -65 59q-36 0 -53.5 -22.5t-17.5 -59.5t25.5 -65.5t61.5 -32.5h25v-20h-100v-540h-140v540h-100v20h248
q-63 16 -137.5 74.5t-95 83.5t-20.5 43.5t10.5 28t24.5 9.5q25 0 50.5 -30t90.5 -140zM-184 668.5q-10 10.5 -10 27t12.5 27t35 10.5t65 -25t176.5 -114l-9 -20q-49 17 -128 40t-105.5 33.5t-36.5 21z" />
    <glyph glyph-name="uni0915094D0937" horiz-adv-x="724" 
d="M742 560v-20h-98v-540h-140v302q-52 -18 -110.5 -18t-108.5 8q-10 -9 -35 -29t-36.5 -31t-27.5 -28q-29 -32 -29 -75.5t30.5 -71t77.5 -27.5q16 0 38 4q-29 40 -29 83t20.5 65.5t54.5 22.5t54.5 -21.5t20.5 -53.5q0 -76 -85 -107q38 -43 113 -79l-10 -18q-86 43 -126 90
q-37 -8 -75 -8q-95 0 -151.5 47.5t-56.5 126.5q0 48 29 85t82 79q-59 44 -59 102.5t38.5 89.5t99 31t104 -33.5t43.5 -89.5q0 -74 -66 -136q39 -6 93.5 -6t106.5 20v216h-98v20h336zM105 453q0 -55 55 -93q45 36 68.5 64.5t23.5 57.5q0 56 -61 56q-41 0 -63.5 -24.5
t-22.5 -60.5z" />
    <glyph glyph-name="uni0915094D0937094D" horiz-adv-x="433" 
d="M381 284q-46 0 -96 8q-10 -9 -35 -29t-36.5 -31t-27.5 -28q-29 -32 -29 -75.5t30.5 -71t77.5 -27.5q16 0 38 4q-29 40 -29 83t20.5 65.5t54.5 22.5t54.5 -21.5t20.5 -53.5q0 -76 -85 -107q38 -43 113 -79l-10 -18q-86 43 -126 90q-37 -8 -75 -8q-95 0 -151.5 47.5
t-56.5 126.5q0 48 29 85t82 79q-59 44 -59 102t39.5 89.5t98.5 31.5t103 -35t44 -88q0 -74 -66 -136q39 -6 77 -6q96 0 148 33l3 -22q-51 -31 -151 -31zM105 453q0 -55 55 -93q45 36 68.5 64.5t23.5 57.5q0 56 -61 56q-39 0 -62.5 -25t-23.5 -60z" />
    <glyph glyph-name="uni0915094D0937094D092E" horiz-adv-x="1070" 
d="M1090 560v-20h-100v-540h-140v312h-129q-1 -110 -38 -158.5t-108 -48.5q-51 0 -86 27t-35 71.5t20 72.5q-39 -10 -93.5 -10t-110.5 14q-72 -57 -86 -79q-19 -28 -23 -43.5t-4 -29.5q0 -43 30.5 -70.5t77.5 -27.5q16 0 38 4q-29 40 -29 83t20.5 65.5t54.5 22.5t54.5 -21.5
t20.5 -53.5q0 -76 -85 -107q38 -43 113 -79l-10 -18q-86 43 -126 90q-37 -8 -75 -8q-95 0 -151.5 47.5t-56.5 126.5q0 47 28 83.5t79 77.5q-55 49 -55 106t39.5 88.5t98.5 31.5t103 -35t44 -88q0 -79 -80 -150q50 -10 91 -10q81 0 123 20.5t78 23.5v210h-176v20h684z
M105 453q0 -54 52 -96q32 26 48 41t31.5 40t15.5 49t-16 37.5t-50 13.5t-57.5 -25t-23.5 -60zM525 160q31 0 43.5 38.5t13.5 110.5q-47 -4 -74.5 -31.5t-27.5 -67.5q0 -23 11.5 -36.5t33.5 -13.5zM850 331v209h-129v-209h129z" />
    <glyph glyph-name="uni0915094D0937094D092E094D" horiz-adv-x="812" 
d="M939 540h-218v-209h216v-19h-216q-1 -110 -38 -158.5t-108 -48.5q-51 0 -86 27t-35 71.5t20 72.5q-39 -10 -93.5 -10t-110.5 14q-72 -57 -86 -79q-19 -28 -23 -43.5t-4 -29.5q0 -43 30.5 -70.5t77.5 -27.5q16 0 38 4q-29 40 -29 83t20.5 65.5t54.5 22.5t54.5 -21.5
t20.5 -53.5q0 -76 -85 -107q38 -43 113 -79l-10 -18q-86 43 -126 90q-37 -8 -75 -8q-95 0 -151.5 47.5t-56.5 126.5q0 47 28 83.5t79 77.5q-55 49 -55 106t39.5 88.5t98.5 31.5t103 -35t44 -88q0 -79 -80 -150q50 -10 91 -10q81 0 123 20.5t78 23.5v210h-176v20h533v-20z
M105 453q0 -54 52 -96q32 26 48 41t31.5 40t15.5 49t-16 37.5t-50 13.5t-57.5 -25t-23.5 -60zM525 160q31 0 43.5 38.5t13.5 110.5q-47 -4 -74.5 -31.5t-27.5 -67.5q0 -23 11.5 -36.5t33.5 -13.5z" />
    <glyph glyph-name="uni0915094D0937094D092E094D092F" horiz-adv-x="1440" 
d="M978 292l-1 -15q0 -59 29.5 -102t90.5 -43q45 0 78.5 21t44.5 57v349h140v-559h-140v167q-25 -35 -69.5 -53t-90.5 -18q-100 0 -164.5 51.5t-64.5 141.5q0 17 1 23h-111q-1 -110 -38 -158.5t-108 -48.5q-51 0 -86 27t-35 71.5t20 72.5q-39 -10 -93.5 -10t-110.5 14
q-72 -57 -86 -79q-19 -28 -23 -43.5t-4 -29.5q0 -43 30.5 -70.5t77.5 -27.5q16 0 38 4q-29 40 -29 83t20.5 65.5t54.5 22.5t54.5 -21.5t20.5 -53.5q0 -76 -85 -107q38 -43 113 -79l-10 -18q-86 43 -126 90q-37 -8 -75 -8q-95 0 -151.5 47.5t-56.5 126.5q0 47 28 83.5
t79 77.5q-55 49 -55 106t39.5 88.5t98.5 31.5t103 -35t44 -88q0 -79 -80 -150q50 -10 91 -10q81 0 123 20.5t78 23.5v210h-146v20h344v-20h-59v-209h196q62 24 62 100q0 62 -30.5 85.5t-89.5 23.5v6h115q69 0 109.5 -35t40.5 -90.5t-38 -87t-108 -38.5v-3zM105 453
q0 -54 52 -96q32 26 48 41t31.5 40t15.5 49t-16 37.5t-50 13.5t-57.5 -25t-23.5 -60zM525 160q31 0 43.5 38.5t13.5 110.5q-47 -4 -74.5 -31.5t-27.5 -67.5q0 -23 11.5 -36.5t33.5 -13.5z" />
    <glyph glyph-name="uni0915094D0937094D092F" horiz-adv-x="1051" 
d="M1071 560v-20h-100v-540h-140v167q-25 -35 -69.5 -53t-90.5 -18q-100 0 -164.5 51.5t-64.5 140.5q-27 -3 -65 -3t-91 8q-10 -9 -35 -29t-37 -31t-28 -29q-29 -33 -29 -76t30.5 -70.5t77.5 -27.5q16 0 38 4q-29 40 -29 83t20.5 65.5t54.5 22.5t54.5 -21.5t20.5 -53.5
q0 -76 -85 -107q38 -43 113 -79l-10 -18q-86 43 -126 90q-37 -8 -75 -8q-95 0 -151.5 47.5t-56.5 126.5q0 34 18.5 66.5t38.5 51.5t55 48q-58 45 -58 105t38 88t97.5 28t103.5 -35t44 -88q0 -73 -64 -135q39 -6 76 -6q45 0 85 8q123 25 123 118q0 62 -30.5 85.5t-89.5 23.5
h-64v20h665zM107 459q0 -58 55 -98q45 36 67.5 64t22.5 62q0 51 -65 51q-37 0 -58.5 -21.5t-21.5 -57.5zM831 540h-195q47 -12 73 -43.5t26 -81.5t-38 -81.5t-108 -38.5q-1 -6 -1 -10v-8q0 -59 29.5 -102t90.5 -43q45 0 78.5 21t44.5 57v330z" />
    <glyph glyph-name="uni0915094D0937094D0935" horiz-adv-x="990" 
d="M1010 560v-20h-100v-540h-139v140q-15 -28 -52.5 -48t-81.5 -20q-74 0 -125 48t-51 138v15q-34 -7 -84.5 -7t-106.5 14q-72 -57 -86 -79q-19 -28 -23 -43.5t-4 -29.5q0 -43 30.5 -70.5t77.5 -27.5q16 0 38 4q-29 40 -29 83t20.5 65.5t54.5 22.5t54.5 -21.5t20.5 -53.5
q0 -76 -85 -107q38 -43 113 -79l-10 -18q-86 43 -126 90q-37 -8 -75 -8q-95 0 -151.5 47.5t-56.5 126.5q0 47 28 83.5t79 77.5q-55 49 -55 106t39.5 88.5t98.5 31.5t103 -35t44 -88q0 -79 -80 -150q50 -10 92.5 -10t80.5 8q10 81 58.5 121.5t109 40.5t94.5 -32l-11 -13
q-15 9 -30 9q-32 0 -52.5 -39.5t-20.5 -107.5q0 -149 88 -149q28 0 48.5 22.5t23.5 46.5v347h-365v20h604zM105 453q0 -54 52 -96q32 26 48 41t31.5 40t15.5 49t-16 37.5t-50 13.5t-57.5 -25t-23.5 -60z" />
    <glyph glyph-name="uni091C094D091E" horiz-adv-x="709" 
d="M729 560v-20h-100v-540h-140v430h-211v-6q69 -9 110 -58t41 -121q0 -91 -58 -148.5t-168 -57.5q-31 0 -60 6q-41 -48 -125 -90l-10 18q75 36 113 79q-85 31 -85 107q0 32 20.5 53.5t54.5 21.5t54.5 -22.5t20.5 -65.5t-29 -83q5 -1 13 -1q114 0 114 183q0 93 -30.5 138.5
t-105.5 46.5v20h341v90h-509v20h749z" />
    <glyph glyph-name="uni091C094D091E094D" horiz-adv-x="440" 
d="M-20 560h567v-20h-567v20zM128 450h410v-20h-280v-6q69 -9 110 -58t41 -121q0 -91 -58 -148.5t-168 -57.5q-31 0 -60 6q-41 -48 -125 -90l-10 18q75 36 113 79q-85 31 -85 107q0 32 20.5 53.5t54.5 21.5t54.5 -22.5t20.5 -65.5t-29 -83q5 -1 13 -1q114 0 114 183
q0 93 -30.5 138.5t-105.5 46.5v20z" />
    <glyph glyph-name="uni091C094D091E094D092F" horiz-adv-x="1083" 
d="M1103 560v-20h-100v-540h-140v167q-25 -35 -69.5 -53t-90.5 -18q-100 0 -164.5 51.5t-64.5 141.5q0 18 2 32q10 -1 17 -1q129 0 129 110h-363v-6q69 -9 110 -58t41 -121q0 -91 -58 -148.5t-168 -57.5q-32 0 -60 6q-41 -48 -125 -90l-10 18q75 36 113 79q-85 31 -85 107
q0 32 20.5 53.5t54.5 21.5t54.5 -22.5t20.5 -65.5t-29 -83q5 -1 13 -1q114 0 114 183q0 93 -30.5 138.5t-105.5 46.5v20h492q-4 51 -34 70.5t-85 19.5h-522v20h1123zM863 540h-195q47 -12 73 -43.5t26 -81.5t-38 -81.5t-108 -38.5q-1 -6 -1 -10v-8q0 -59 29.5 -102t90.5 -43
q45 0 78.5 21t44.5 57v330z" />
    <glyph glyph-name="uni0915094D0928" horiz-adv-x="813" 
d="M833 540h-356v-153q34 73 130 73q79 0 125 -56.5t46 -140.5t-44 -136t-116.5 -52t-104.5 29l5 15q8 -4 24 -4q48 1 69.5 44t21.5 105t-22.5 101.5t-56.5 38.5q-66 0 -77 -78v-326h-140v141l-76 -53q-44 -31 -59 -48.5t-15 -32t13.5 -24t30 -15.5t30 -23.5t13.5 -45.5
t-21.5 -48.5t-58.5 -20.5t-59 25t-22 67q0 76 91 149h-3q-75 0 -120.5 56.5t-45.5 138t47 135t128 53.5q58 0 90 -29l-5 -15q-8 4 -22 4q-47 -1 -70 -41t-23 -103.5t21 -104.5t63 -41q13 0 27 9l46 31v376h-357v20h853v-20z" />
    <glyph glyph-name="uni0916094D0928" horiz-adv-x="771" 
d="M791 560v-20h-100v-540h-136v119q-24 -30 -62 -52q-11 -7 -65 -34t-68.5 -34.5t-33.5 -18.5q-33 -20 -33 -34t12.5 -22t27.5 -13t27.5 -21t12.5 -44t-21.5 -48.5t-58.5 -20.5t-59 24t-22 69.5t38 81.5t118 76q-24 -3 -49 -3q-66 0 -114.5 23t-74 57t-43.5 68.5
t-35.5 62.5t-37.5 34v20q159 0 159 140q0 46 -26.5 78t-72.5 32h-94v20h811zM555 540h-324q75 -29 75 -116q0 -61 -49.5 -98t-119.5 -43v-4q57 -15 101 -88q17 -29 36.5 -56.5t52.5 -46t78 -18.5q79 0 130.5 60t51.5 157q0 117 -69 117q-33 0 -51.5 -27t-18.5 -68.5t19 -70
t51 -28.5q10 0 20 3l5 -11q-12 -14 -39 -23t-53 -9q-55 0 -92.5 35.5t-37.5 96t40.5 100t99.5 39.5t94 -23v122z" />
    <glyph glyph-name="uni0917094D0928" horiz-adv-x="664" 
d="M684 560v-20h-100v-540h-140v163q-145 -97 -164 -119t-19 -36.5t13.5 -24t30 -15.5t30 -23.5t13.5 -45.5t-21.5 -48.5t-58.5 -20.5t-59 25t-22 69.5t30.5 86.5t103.5 92l123 84v353h-193q62 -18 96.5 -71.5t34.5 -118.5q0 -93 -59 -155.5t-153 -62.5q-60 0 -100 35.5
t-40 97.5q0 38 22.5 63.5t56.5 25.5t52 -17.5t20 -43.5q0 -29 -13.5 -43t-29.5 -16q-42 -5 -42 -39q0 -16 12 -26t33 -10q49 0 72.5 55t23.5 137t-33.5 135.5t-98.5 53.5h-125v20h704z" />
    <glyph glyph-name="uni0918094D0928" horiz-adv-x="623" 
d="M643 560v-20h-100v-540h-140v118q-12 -24 -40 -43q-6 -5 -41 -29q-75 -51 -75 -76q0 -22 40 -36q15 -6 27.5 -23t12.5 -45t-21.5 -48.5t-58.5 -20.5t-59 25t-22 67t28 77t88 77q-23 -4 -52 -4q-76 0 -130 39t-54 109q0 52 31 89.5t91 48.5v4q-51 7 -80 34.5t-29 67.5
t18 68.5t52 40.5h-149v20h663zM403 540h-89q-57 0 -86 -28.5t-29 -75t25 -74t69 -27.5h27v-20h-26q-51 0 -77 -33t-26 -84t31 -81t74 -30t72 21.5t35 60.5v371z" />
    </font>
</defs>
</svg>
